<?xml version="1.0" encoding="UTF-8"?>
<!DOCTYPE svg PUBLIC "-//W3C//DTD SVG 1.1//EN" "http://www.w3.org/Graphics/SVG/1.1/DTD/svg11.dtd">
<svg version="1.2" xmlns="http://www.w3.org/2000/svg" xmlns:xlink="http://www.w3.org/1999/xlink" x="0" y="0" width="323" height="148" viewBox="0 0 323 148">
<style type="text/css"><![CDATA[
text { font:12px Dialog; }
]]></style>
<rect x="-1131" y="-1076" width="2586" height="2236" style="fill:rgb(255,255,255);stroke:none" />
<clipPath id="clip1"><path d="M15,15 L308,15 L308,133 L15,133 Z M82,79 L82,132 L239,132 L239,79 Z M82,79" /></clipPath>
<path d="M160.6834106,69.0001221 L102,69.0001221 C97.5839996,69.0001221 94,65.4161224 94,61.0001259 L94,47" style="fill:none;stroke:rgb(85,142,213)" clip-path="url(#clip1)" />
<clipPath id="clip2"><path d="M15,15 L308,15 L308,133 L15,133 Z M82,79 L82,132 L239,132 L239,79 Z M82,79" /></clipPath>
<path d="M160.6834106,69.0001221 L237.5800018,69.0001221 C241.9960022,69.0001221 245.5800018,65.4161224 245.5800018,61.0001259 L245.5800018,47" style="fill:none;stroke:rgb(85,142,213)" clip-path="url(#clip2)" />
<clipPath id="clip3"><path d="M14,14 L309,14 L309,134 L14,134 L14,14 Z" /></clipPath>
<path d="M160.6331635,79 L160.6834106,69.0001221" style="fill:none;stroke:rgb(85,142,213)" clip-path="url(#clip3)" />
<clipPath id="clip4"><path d="M81,78 L241,78 L241,134 L81,134 L81,78 Z" /></clipPath>
<path d="M82,79 L82,132 L239,132 L239,79 Z M82,79" style="fill:rgb(247,150,70);stroke:none" clip-path="url(#clip4)" />
<clipPath id="clip5"><path d="M112,93 L210,93 L210,119 L112,119 L112,93 Z" /></clipPath>
<path d="M116.6749954,100.5189972 C117.3769989,100.4469986 118.060997,100.375 118.7449951,100.2850037 L118.7449951,102.4090042 L116.2070007,102.4090042 L116.2070007,104.2269974 L118.5289917,104.2269974 C117.9529953,105.9550018 117.0529938,107.4850006 115.8289948,108.8529968 L116.6389923,110.9049988 C117.4850006,109.7170029 118.1869965,108.439003 118.7449951,107.0350037 L118.7449951,114.2710037 L120.5809937,114.2710037 L120.5809937,106.6389999 C120.9769974,107.1429977 121.4629974,107.8089981 122.0209961,108.6009979 L122.3269958,108.1330032 L123.4249954,109.7350006 C125.1529999,109.2669983 126.5930023,108.6190033 127.7630005,107.8270035 L130.6069946,107.8270035 C130.0670013,108.7630005 129.2569885,109.5910034 128.177002,110.3110046 C127.7089996,109.8249969 127.2229919,109.375 126.6829987,108.9609985 L125.3689957,109.8970032 L126.6289978,111.1569977 C125.3509979,111.7330017 123.8029938,112.201004 121.9850006,112.5610046 L122.9749985,114.3430023 C128.3389893,113.0110016 131.5610046,110.8150024 132.677002,107.7190018 L132.677002,106.1529999 L129.598999,106.1529999 C129.8150024,105.8649979 130.0309906,105.5770035 130.2109985,105.2710037 L128.5009918,104.5329971 C127.3849945,106.1170044 125.3509979,107.2689972 122.4349976,107.9889984 L123.0650024,107.0350037 C122.2369995,106.2610016 121.4089966,105.5589981 120.5809937,104.9290009 L120.5809937,104.2269974 L122.7589951,104.2269974 L122.7589951,102.4090042 L120.5809937,102.4090042 L120.5809937,99.9790039 C121.336998,99.8349991 122.0569916,99.6549988 122.7409973,99.4570007 L122.0749969,97.6930008 C120.3829956,98.2330017 118.4570007,98.5749969 116.2969971,98.7549973 L116.6749954,100.5189972 Z M128.3569946,98.0169983 L126.5029984,97.6029968 C125.3509979,99.1330032 124.0189972,100.3030014 122.5069962,101.1309967 L123.784996,102.6610031 C124.7929993,102.0849991 125.6929932,101.3830032 126.4850006,100.572998 L129.5449982,100.572998 C128.9689941,101.4729996 128.2129974,102.2470016 127.2769928,102.913002 C127.0429993,102.4810028 126.7009964,102.0130005 126.2689972,101.5270004 L124.9550018,102.4810028 C125.2429962,102.7509995 125.5849915,103.1650009 125.9449921,103.7050018 C125.0089951,104.1730042 123.9109955,104.5690002 122.651001,104.8929977 L123.6049957,106.2789993 C127.8170013,105.1269989 130.427002,103.201004 131.4530029,100.465004 L131.4530029,98.9169998 L127.8170013,98.9169998 C127.996994,98.6289978 128.177002,98.3410034 128.3569946,98.0169983 Z M135.1609955,98.7549973 L135.1609955,100.5370026 L141.9290009,100.5370026 L141.9290009,98.7549973 L135.1609955,98.7549973 Z M134.4949951,103.5970001 L134.4949951,105.4329987 L136.7269897,105.4329987 C135.9530029,108.348999 135.322998,110.1490021 134.8549957,110.8330002 C134.7829895,110.887001 134.6569977,110.9410019 134.4769897,110.9950027 L134.9089966,112.7590027 C137.0690002,112.362999 139.1029968,111.8590012 140.9929962,111.2109985 C141.1369934,111.5530014 141.2809906,111.913002 141.4250031,112.3089981 L142.9729919,111.5169983 C142.5769958,112.1470032 142.1269989,112.7229996 141.6049957,113.2269974 L143.0269928,114.4690018 C145.4749908,112.0749969 146.7169952,108.2949982 146.7709961,103.1289978 L146.7709961,102.9850006 L148.822998,102.9850006 C148.7870026,107.7549973 148.7330017,110.5449982 148.625,111.3550034 C148.4810028,112.1470032 148.048996,112.5429993 147.2929993,112.5429993 C146.8249969,112.5429993 146.2850037,112.5070038 145.6549988,112.4710007 L146.0869904,114.1090012 C146.8069916,114.163002 147.2929993,114.1989975 147.5809937,114.1989975 C149.2369995,114.1989975 150.1730042,113.5329971 150.3889923,112.201004 C150.5509949,110.7969971 150.6409912,107.125 150.6409912,101.1849976 L146.7709961,101.1849976 L146.7709961,97.7290039 L144.8990021,97.7290039 L144.8990021,101.1849976 L142.6849976,101.1849976 L142.6849976,102.9850006 L144.8990021,102.9850006 L144.8990021,103.1289978 C144.8629913,106.5490036 144.2509918,109.3209991 143.0449982,111.4090042 C142.2890015,109.6090012 141.496994,107.9710007 140.7050018,106.4950027 L139.1389923,107.2509995 C139.5350037,108.0070038 139.9309998,108.7990036 140.3269958,109.663002 C139.2290039,110.0589981 138.1129913,110.401001 136.9790039,110.6529999 C137.4290009,109.5009995 137.9509888,107.7730026 138.5449982,105.4329987 L142.5769958,105.4329987 L142.5769958,103.5970001 L134.4949951,103.5970001 Z M168.7669983,99.2770004 L162.0169983,99.2770004 C161.7649994,98.6289978 161.5309906,98.0530014 161.2789917,97.5309982 L159.1549988,97.8909988 C159.4250031,98.322998 159.677002,98.7730026 159.8929901,99.2770004 L153.2330017,99.2770004 L153.2330017,103.4169998 L155.1409912,103.4169998 L155.1409912,101.0950012 L166.8589935,101.0950012 L166.8589935,103.4349976 L168.7669983,103.4349976 L168.7669983,99.2770004 Z M153.0169983,104.2630005 L153.0169983,106.0630035 L156.9769897,106.0630035 C156.4369965,107.0350037 155.8609924,107.9889984 155.2489929,108.9609985 C156.8509979,109.465004 158.4530029,110.0589981 160.0370026,110.7249985 C158.2369995,111.9850006 155.8789978,112.6149979 152.9629974,112.6149979 L154.0610046,114.3610001 C157.3190002,114.2710037 159.9649963,113.3529968 161.9989929,111.5890045 C163.8349915,112.4169998 165.6529999,113.3710022 167.470993,114.451004 L168.7489929,112.7949982 C166.8950043,111.7870026 165.0950012,110.9230042 163.348999,110.1849976 C164.1589966,109.1409988 164.9149933,107.7730026 165.6170044,106.0630035 L169.0370026,106.0630035 L169.0370026,104.2630005 L160.1989899,104.2630005 L161.3329926,102.1029968 L159.3889923,101.5090027 C158.9389954,102.4090042 158.470993,103.3270035 157.9669952,104.2630005 L153.0169983,104.2630005 Z M159.1909943,106.0630035 L163.5469971,106.0630035 C163.0070038,107.3590012 162.322998,108.4930038 161.4949951,109.4290009 C160.2709961,108.9609985 159.0650024,108.5469971 157.8950043,108.2229996 C158.2910004,107.5930023 158.7229919,106.8730011 159.1909943,106.0630035 Z M178.6849976,97.6389999 C176.5970001,99.8349991 173.9869995,101.6529999 170.8549957,103.1289978 L171.772995,104.8030014 C172.6730042,104.3710022 173.5189972,103.9029999 174.3289948,103.3990021 L174.3289948,105.0370026 L178.3970032,105.0370026 L178.3970032,107.5569992 L173.375,107.5569992 L173.375,109.375 L178.3970032,109.375 L178.3970032,112.0390015 L171.772995,112.0390015 L171.772995,113.875 L186.946991,113.875 L186.946991,112.0390015 L180.3049927,112.0390015 L180.3049927,109.375 L185.3089905,109.375 L185.3089905,107.5569992 L180.3049927,107.5569992 L180.3049927,105.0370026 L184.3730011,105.0370026 L184.3730011,103.4169998 C185.1649933,103.9029999 185.9929962,104.3529968 186.8569946,104.7669983 L187.7929993,103.0930023 C184.8589935,101.7610016 182.2669983,99.9430008 180.0169983,97.6389999 L178.6849976,97.6389999 Z M174.6170044,103.2190018 C176.4530029,102.0670013 178.0370026,100.7710037 179.3509979,99.348999 C180.7189941,100.8069992 182.2850037,102.1029968 184.0670013,103.2190018 L174.6170044,103.2190018 Z M194.3809967,99.9430008 L194.3809967,101.7070007 L200.572998,101.7070007 C200.644989,104.3710022 200.7890015,106.5849991 201.022995,108.3310013 C201.0769958,108.8349991 201.1490021,109.3030014 201.2569885,109.7710037 C200.3569946,111.1029968 199.2590027,112.1110001 197.9989929,112.8310013 L199.151001,114.3430023 C200.1409912,113.7310028 201.0410004,112.939003 201.8509979,111.9489975 C201.9589996,112.2369995 202.0670013,112.5250015 202.2109985,112.8130035 C202.7149963,113.7490005 203.272995,114.2350006 203.8849945,114.2350006 C204.7489929,114.2350006 205.522995,113.137001 206.17099,110.9589996 L204.7669983,109.8069992 C204.4429932,111.4449997 204.1549988,112.2730026 203.8849945,112.3089981 C203.5789948,112.2190018 203.2910004,111.5169983 203.0390015,110.2210007 C204.0650024,108.439003 204.875,106.2070007 205.4869995,103.5429993 L203.8670044,102.8410034 C203.5610046,104.4430008 203.1470032,105.8830032 202.625,107.1429977 C202.4989929,105.6310043 202.427002,103.8310013 202.3909912,101.7070007 L205.9550018,101.7070007 L205.9550018,99.9430008 L205.2169952,99.9430008 C205.0370026,99.2409973 204.875,98.6110001 204.7129974,98.0530014 L203.0569916,98.322998 C203.272995,98.8270035 203.470993,99.3670044 203.651001,99.9430008 L202.3730011,99.9430008 C202.3549957,99.2229996 202.3549957,98.4850006 202.3549957,97.7290039 L200.5189972,97.7290039 C200.5189972,98.4850006 200.5189972,99.2229996 200.5370026,99.9430008 L194.3809967,99.9430008 Z M195.0469971,103.0930023 L195.0469971,108.439003 L199.8710022,108.439003 L199.8710022,103.0930023 L195.0469971,103.0930023 Z M198.2509918,106.9090042 L196.6490021,106.9090042 L196.6490021,104.6230011 L198.2509918,104.6230011 L198.2509918,106.9090042 Z M199.8710022,109.1590042 C197.8909912,109.8970032 195.8569946,110.4189987 193.7689972,110.7430038 L194.2369995,112.5429993 C196.2350006,112.0749969 198.1069946,111.5169983 199.8710022,110.8509979 L199.8710022,109.1590042 Z M189.5930023,102.2829971 L189.5930023,104.0830002 L191.1589966,104.0830002 L191.1589966,109.4830017 C190.5829926,109.663002 190.0069885,109.8069992 189.4129944,109.9329987 L189.8809967,111.8410034 C191.5009918,111.3190002 193.0310059,110.689003 194.470993,109.951004 L194.470993,108.060997 C194.0029907,108.3130035 193.5169983,108.5469971 193.0130005,108.7809982 L193.0130005,104.0830002 L194.5069885,104.0830002 L194.5069885,102.2829971 L193.0130005,102.2829971 L193.0130005,97.7649994 L191.1589966,97.7649994 L191.1589966,102.2829971 L189.5930023,102.2829971 Z M206.6929932,112.4710007" style="fill:rgb(55,96,146);stroke:none" clip-path="url(#clip5)" />
<clipPath id="clip6"><path d="M14,14 L175,14 L175,49 L14,49 L14,14 Z" /></clipPath>
<path d="M15,15 L15,47 L173,47 L173,15 Z M15,15" style="fill:rgb(217,217,217);stroke:none" clip-path="url(#clip6)" />
<clipPath id="clip7"><path d="M26,21 L163,21 L163,42 L26,42 L26,21 Z" /></clipPath>
<path d="M32.741333,36.1865005 L33.8839111,36.1865005 L33.8839111,27.0268326 L32.7476807,27.0268326 L30.3101807,28.7787857 L30.3101807,29.9848404 L32.6397705,28.2963638 L32.741333,28.2963638 Z M38.4161377,36.2499771 C38.6446533,36.2499771 38.8393173,36.1685181 39.0001221,36.0055923 C39.1609268,35.8426666 39.241333,35.6490631 39.241333,35.4247818 C39.241333,35.1962662 39.1609268,35.0016022 39.0001221,34.8407974 C38.8393173,34.6799927 38.6446533,34.5995865 38.4161377,34.5995865 C38.1918564,34.5995865 37.9982529,34.6799927 37.8353271,34.8407974 C37.6724014,35.0016022 37.5909424,35.1962662 37.5909424,35.4247818 C37.5909424,35.6490631 37.6724014,35.8426666 37.8353271,36.0055923 C37.9982529,36.1685181 38.1918564,36.2499771 38.4161377,36.2499771 Z M44.772728,27.3335037 C45.383728,27.2685013 45.9687347,27.1904984 46.5277328,27.1125031 L46.5277328,29.1275024 L44.5517349,29.1275024 L44.5517349,30.024498 L46.4237289,30.024498 C45.9947281,31.4544983 45.2797318,32.7285004 44.2657318,33.8594971 L44.6687317,34.873497 C45.4487305,33.8594971 46.0597305,32.7415009 46.5277328,31.5195007 L46.5277328,37.4345016 L47.4377289,37.4345016 L47.4377289,31.5455017 C47.8147278,31.9485016 48.2697296,32.4944992 48.7897339,33.1965027 L49.3097305,32.4165039 C48.6727295,31.7925034 48.0487289,31.2334976 47.4377289,30.739502 L47.4377289,30.024498 L49.1537323,30.024498 L49.1537323,29.1275024 L47.4377289,29.1275024 L47.4377289,26.9435043 C48.022728,26.8264999 48.5817337,26.6965027 49.1017303,26.5404968 L48.7767334,25.6565018 C47.5547333,26.0465012 46.1637344,26.3065033 44.5907288,26.449501 L44.772728,27.3335037 Z M53.586731,30.5055008 C52.7287292,31.7795029 51.1817322,32.6894989 48.9327316,33.2355042 L49.5047302,34.0804977 C50.7917328,33.7294998 51.883728,33.248497 52.7677307,32.6374969 L55.2637329,32.6374969 C54.8477325,33.5214996 54.1327286,34.2884979 53.1317291,34.925499 C52.7417297,34.5094986 52.3387299,34.1194992 51.909729,33.7555008 L51.2337341,34.2235031 L52.3647308,35.3544998 C51.3767319,35.8485031 50.1547318,36.2645035 48.6987305,36.5764999 L49.1797333,37.4475021 C53.1057281,36.4855042 55.4717331,34.8605042 56.2777328,32.5855026 L56.2777328,31.7925034 L53.7427292,31.7925034 C54.0027313,31.5065002 54.2367325,31.1945038 54.4447327,30.8694992 L53.586731,30.5055008 Z M53.0407333,25.7085037 L52.1177292,25.513504 C51.3117294,26.6575012 50.31073,27.5544968 49.1147308,28.2044983 L49.7387314,28.9585037 C50.4927292,28.5295029 51.1817322,28.0094986 51.7797318,27.3984985 L54.4707336,27.3984985 C54.0287323,28.2304993 53.3527298,28.9585037 52.4557343,29.5565033 C52.2217331,29.1665039 51.9227295,28.7764969 51.5327301,28.3864975 L50.8827286,28.8675003 C51.1427307,29.1015015 51.4547348,29.4524994 51.8057327,29.9465027 C51.0517349,30.3365021 50.1807327,30.6744995 49.1667328,30.9345016 L49.6347351,31.6364975 C52.7287292,30.7785034 54.6397324,29.3485031 55.3937302,27.3465042 L55.3937302,26.5664978 L52.4817352,26.5664978 C52.6767349,26.2935028 52.8587341,26.0074997 53.0407333,25.7085037 Z M58.2797318,26.475502 L58.2797318,27.3724976 L62.985733,27.3724976 L62.985733,26.475502 L58.2797318,26.475502 Z M57.772728,29.9855042 L57.772728,30.8955002 L59.5797348,30.8955002 C58.9297333,33.2614975 58.409729,34.7044983 58.0197296,35.2375031 C57.9677277,35.263504 57.9027328,35.2894974 57.8117294,35.3154984 L58.0327301,36.199501 C59.6447296,35.9134979 61.1527328,35.5234985 62.5307312,35.0295029 C62.6607285,35.3284988 62.7907333,35.6405029 62.9207306,35.9785004 L63.7267303,35.5625 C63.1807327,34.2495041 62.5957336,33.0404968 61.9717331,31.9225006 L61.1787338,32.3125 C61.5167313,32.9104996 61.8417282,33.5475006 62.1797333,34.2495041 C61.1657333,34.626503 60.1387329,34.925499 59.1117325,35.1334991 C59.5017319,34.2754974 59.9567337,32.8714981 60.4767303,30.8955002 L63.4797287,30.8955002 L63.4797287,29.9855042 L57.772728,29.9855042 Z M65.4297333,25.6044998 L65.4297333,28.2304993 L63.6747284,28.2304993 L63.6747284,29.1405029 L65.4297333,29.1405029 L65.4297333,29.2965012 C65.4037323,32.7935028 64.5717316,35.3284988 62.9467316,36.9014969 L63.648735,37.5124969 C65.4167328,35.7835007 66.3267288,33.0404968 66.3657303,29.2965012 L66.3657303,29.1405029 L68.2897339,29.1405029 C68.2637329,32.6374969 68.211731,34.7304993 68.133728,35.4195023 C68.0297318,36.1604996 67.6527328,36.5374985 67.0157318,36.5374985 C66.6647339,36.5374985 66.2487335,36.5114975 65.7807312,36.4855042 L65.9887314,37.3174973 C66.534729,37.3434982 66.9117279,37.3564987 67.1327286,37.3564987 C68.2507324,37.3564987 68.8877335,36.8235016 69.0177307,35.7705002 C69.1347351,34.8085022 69.1997299,32.2994995 69.1997299,28.2304993 L66.3657303,28.2304993 L66.3657303,25.6044998 L65.4297333,25.6044998 Z M74.3877945,36.1865005 L75.5875015,36.1865005 L78.2789078,28.5058365 L78.6407242,28.5058365 L78.6407242,27.0268326 L77.7647476,27.0268326 Z M75.9175797,33.5649185 L80.767189,33.5649185 L80.4117203,32.5937271 L76.2730484,32.5937271 Z M81.0718765,36.1865005 L82.2715836,36.1865005 L78.8946304,27.0268326 L78.3804703,27.0268326 L78.3804703,28.5058365 Z M84.3726578,32.9174576 L87.2544937,32.9174576 C87.8300171,32.9174576 88.3378296,32.7926178 88.7779312,32.5429459 C89.2180405,32.2932739 89.5639877,31.9462662 89.815773,31.5019302 C90.0675659,31.0575943 90.1934586,30.5455551 90.1934586,29.9657974 L90.1934586,29.9531021 C90.1934586,29.3733444 90.0675659,28.8634262 89.815773,28.423317 C89.5639877,27.9832077 89.2180405,27.6404419 88.7779312,27.3949966 C88.3378296,27.1495514 87.8300171,27.0268326 87.2544937,27.0268326 L84.3726578,27.0268326 L84.3726578,28.0424576 L86.9625015,28.0424576 C87.6184311,28.0424576 88.1262436,28.2117233 88.485939,28.5502701 C88.8456421,28.8888168 89.0254898,29.3606491 89.0254898,29.9657974 L89.0254898,29.9784927 C89.0254898,30.5794067 88.8456421,31.0501862 88.485939,31.3908463 C88.1262436,31.7315063 87.6184311,31.9018326 86.9625015,31.9018326 L84.3726578,31.9018326 Z M83.8013687,36.1865005 L84.9439468,36.1865005 L84.9439468,27.0268326 L83.8013687,27.0268326 Z M92.5547867,32.9174576 L95.4366226,32.9174576 C96.012146,32.9174576 96.5199585,32.7926178 96.9600601,32.5429459 C97.4001694,32.2932739 97.746109,31.9462662 97.9979095,31.5019302 C98.2496948,31.0575943 98.3755951,30.5455551 98.3755951,29.9657974 L98.3755951,29.9531021 C98.3755951,29.3733444 98.2496948,28.8634262 97.9979095,28.423317 C97.746109,27.9832077 97.4001694,27.6404419 96.9600601,27.3949966 C96.5199585,27.1495514 96.012146,27.0268326 95.4366226,27.0268326 L92.5547867,27.0268326 L92.5547867,28.0424576 L95.1446304,28.0424576 C95.80056,28.0424576 96.3083725,28.2117233 96.6680679,28.5502701 C97.027771,28.8888168 97.2076263,29.3606491 97.2076263,29.9657974 L97.2076263,29.9784927 C97.2076263,30.5794067 97.027771,31.0501862 96.6680679,31.3908463 C96.3083725,31.7315063 95.80056,31.9018326 95.1446304,31.9018326 L92.5547867,31.9018326 Z M91.9834976,36.1865005 L93.1260757,36.1865005 L93.1260757,27.0268326 L91.9834976,27.0268326 Z M118.0528183,26.8395004 L113.2168121,26.8395004 C113.0348206,26.3325043 112.8398132,25.8775024 112.6318207,25.4615021 L111.5918121,25.6435013 C111.8128204,26.0074997 112.0078125,26.3974991 112.1898193,26.8395004 L107.2498169,26.8395004 L107.2498169,29.6214981 L108.2118225,29.6214981 L108.2118225,27.7495041 L117.0908203,27.7495041 L117.0908203,29.6344986 L118.0528183,29.6344986 L118.0528183,26.8395004 Z M106.9378204,30.4534988 L106.9378204,31.3635025 L110.070816,31.3635025 C109.6548157,32.0784988 109.2128143,32.8065033 108.744812,33.5345001 C109.9538193,33.9244995 111.1628189,34.3795013 112.384819,34.899498 C111.0068207,35.9524994 109.1998138,36.4855042 106.9898224,36.498497 L107.5358124,37.3694992 C109.9538193,37.2915039 111.8778229,36.6155014 113.3338165,35.3154984 C114.7118225,35.9394989 116.0898132,36.6675034 117.4678192,37.4735031 L118.0918121,36.6545029 C116.7138214,35.8745041 115.3488159,35.1985016 114.009819,34.626503 C114.698822,33.8205032 115.3098145,32.7415009 115.8428192,31.3635025 L118.4038162,31.3635025 L118.4038162,30.4534988 L111.6828156,30.4534988 C111.994812,29.8815002 112.3198166,29.2705002 112.6578217,28.6204987 L111.695816,28.3345032 C111.3448181,29.036499 110.9678192,29.7385025 110.5778198,30.4534988 L106.9378204,30.4534988 Z M111.1758118,31.3635025 L114.8158188,31.3635025 C114.3738174,32.5074997 113.8018188,33.4694977 113.099823,34.2365036 C112.0728149,33.8075027 111.0718155,33.4435043 110.0838165,33.1575012 C110.421814,32.6374969 110.7858124,32.0394974 111.1758118,31.3635025 Z M125.5798187,25.6044998 C124.0718155,27.2425003 122.1738129,28.6204987 119.8858185,29.725502 L120.3408203,30.5445023 C122.6418152,29.3874969 124.5008163,28.0224991 125.9178162,26.449501 C127.4518127,28.100502 129.2848206,29.4394989 131.4428101,30.4794998 L131.9108124,29.6474991 C129.7788239,28.6595001 127.8938141,27.3205032 126.2558136,25.6044998 L125.5798187,25.6044998 Z M122.2908173,29.7125015 L122.2908173,30.6094971 L125.4368134,30.6094971 L125.4368134,32.8714981 L121.6668167,32.8714981 L121.6668167,33.7685013 L125.4368134,33.7685013 L125.4368134,36.1735001 L120.509819,36.1735001 L120.509819,37.0965042 L131.3388214,37.0965042 L131.3388214,36.1735001 L126.398819,36.1735001 L126.398819,33.7685013 L130.1558228,33.7685013 L130.1558228,32.8714981 L126.398819,32.8714981 L126.398819,30.6094971 L129.5448151,30.6094971 L129.5448151,29.7125015 L122.2908173,29.7125015 Z M144.520813,27.5025024 L140.2698212,27.5025024 L140.2698212,37.2915039 L141.1668091,37.2915039 L141.1668091,36.4205017 L143.6108093,36.4205017 L143.6108093,37.2915039 L144.520813,37.2915039 L144.520813,27.5025024 Z M141.1668091,35.5234985 L141.1668091,28.399498 L143.6108093,28.399498 L143.6108093,35.5234985 L141.1668091,35.5234985 Z M135.4858093,25.6044998 L135.4858093,28.2304993 L133.4058228,28.2304993 L133.4058228,29.1405029 L135.4858093,29.1405029 C135.4468231,32.7024994 134.6668091,35.3024979 133.1588135,36.9274979 L133.8478088,37.5384979 C135.5118103,35.7705002 136.369812,32.975502 136.421814,29.1405029 L138.1508179,29.1405029 C138.1248169,32.6245041 138.0728149,34.7174988 137.994812,35.3935013 C137.8908234,36.1344986 137.500824,36.5114975 136.8378143,36.5114975 C136.5258179,36.5114975 136.1618195,36.4855042 135.7458191,36.4595032 L135.9798126,37.3174973 C136.4478149,37.3434982 136.7728119,37.3694992 136.9678192,37.3694992 C138.1118164,37.3694992 138.7488098,36.8235016 138.8788147,35.7574997 C139.0088196,34.7955017 139.073822,32.286499 139.073822,28.2304993 L136.421814,28.2304993 L136.421814,25.6044998 L135.4858093,25.6044998 Z M148.8108215,29.010498 L148.8108215,29.8945007 L151.9698181,29.8945007 L151.9698181,31.3115005 L149.7598114,31.3115005 L149.7598114,34.8864975 L155.1288147,34.8864975 L155.1288147,31.3115005 L152.9058228,31.3115005 L152.9058228,29.8945007 L156.0648193,29.8945007 L156.0648193,29.010498 L152.9058228,29.010498 L152.9058228,27.6064987 L151.9698181,27.6064987 L151.9698181,29.010498 L148.8108215,29.010498 Z M154.244812,34.0674973 L150.6438141,34.0674973 L150.6438141,32.1175003 L154.244812,32.1175003 L154.244812,34.0674973 Z M157.6898193,26.1374969 L147.198822,26.1374969 L147.198822,37.4865036 L148.1218109,37.4865036 L148.1218109,36.9014969 L156.7538147,36.9014969 L156.7538147,37.4865036 L157.6898193,37.4865036 L157.6898193,26.1374969 Z M148.1218109,36.0175018 L148.1218109,27.0214996 L156.7538147,27.0214996 L156.7538147,36.0175018 L148.1218109,36.0175018 Z M158.9378204,36.1865005" style="fill:rgb(23,55,94);stroke:none" clip-path="url(#clip7)" />
<clipPath id="clip8"><path d="M183,14 L309,14 L309,49 L183,49 L183,14 Z" /></clipPath>
<path d="M184,15 L184,47 L307,47 L307,15 Z M184,15" style="fill:rgb(217,217,217);stroke:none" clip-path="url(#clip8)" />
<clipPath id="clip9"><path d="M195,21 L297,21 L297,42 L195,42 L195,21 Z" /></clipPath>
<path d="M199.0613861,36.2190018 L204.844101,36.2190018 L204.844101,35.1906815 L200.3626556,35.1906815 L200.6419525,35.3811111 L200.6419525,34.8542557 L200.356308,35.3811111 L202.6478119,32.9372635 C203.1852417,32.3659744 203.6020813,31.884613 203.8983002,31.4931717 C204.194519,31.1017303 204.401886,30.7452087 204.5203705,30.4235916 C204.638855,30.1019745 204.6981049,29.7676697 204.6981049,29.4206619 L204.6981049,29.4079666 C204.6981049,28.9128494 204.5764465,28.4727478 204.3331146,28.0876541 C204.0897827,27.7025604 203.7607727,27.3989334 203.3460541,27.1767654 C202.9313354,26.9545975 202.4616089,26.8435135 201.9368744,26.8435135 C201.369812,26.8435135 200.8651733,26.9630585 200.4229584,27.2021561 C199.9807434,27.4412537 199.633728,27.7713242 199.3819427,28.1923904 C199.1301575,28.6134567 199.0021362,29.0948105 198.9979095,29.6364822 L199.0042572,29.6428299 L200.0960541,29.6491776 L200.1024017,29.6364822 C200.1024017,29.2767792 200.1753998,28.9625778 200.3213959,28.6938553 C200.467392,28.4251328 200.6726379,28.2156677 200.9371185,28.0654373 C201.2015991,27.9152069 201.5094604,27.8400955 201.8607025,27.8400955 C202.2077026,27.8400955 202.5060425,27.9141541 202.755722,28.0622635 C203.0054016,28.2103729 203.1968842,28.4113846 203.3301849,28.6652908 C203.4634857,28.9191971 203.5301361,29.206955 203.5301361,29.5285721 L203.5301361,29.5412674 C203.5301361,29.807869 203.4867554,30.0543671 203.4000092,30.2807693 C203.3132629,30.5071716 203.1630249,30.7578964 202.9493256,31.0329666 C202.7356262,31.3080368 202.4383392,31.6571503 202.0574799,32.0803299 L199.0613861,35.4318924 Z M207.8274994,36.2824783 C208.056015,36.2824783 208.2506714,36.2010193 208.4114838,36.0380936 C208.5722961,35.8751678 208.6526947,35.6815643 208.6526947,35.457283 C208.6526947,35.2287674 208.5722961,35.0341034 208.4114838,34.8732986 C208.2506714,34.7124939 208.056015,34.6320877 207.8274994,34.6320877 C207.6032104,34.6320877 207.4096069,34.7124939 207.2466888,34.8732986 C207.0837708,35.0341034 207.0023041,35.2287674 207.0023041,35.457283 C207.0023041,35.6815643 207.0837708,35.8751678 207.2466888,36.0380936 C207.4096069,36.2010193 207.6032104,36.2824783 207.8274994,36.2824783 Z M214.1840973,27.3660049 C214.7950897,27.3010025 215.3800964,27.2229996 215.9390869,27.1450043 L215.9390869,29.1600037 L213.963089,29.1600037 L213.963089,30.0569992 L215.8350983,30.0569992 C215.4060974,31.4869995 214.6911011,32.7610016 213.6770935,33.8919983 L214.0800934,34.9059982 C214.8600922,33.8919983 215.4710999,32.7740021 215.9390869,31.552002 L215.9390869,37.4670029 L216.8490906,37.4670029 L216.8490906,31.5780029 C217.2260895,31.9810028 217.6810913,32.5270004 218.2010956,33.2290039 L218.7210999,32.4490051 C218.0840912,31.8250046 217.4600983,31.2659988 216.8490906,30.7720032 L216.8490906,30.0569992 L218.565094,30.0569992 L218.565094,29.1600037 L216.8490906,29.1600037 L216.8490906,26.9760056 C217.4340973,26.8590012 217.9930878,26.7290039 218.513092,26.572998 L218.1880951,25.689003 C216.966095,26.0790024 215.5750885,26.3390045 214.0020905,26.4820023 L214.1840973,27.3660049 Z M222.9980927,30.538002 C222.1400909,31.8120041 220.5930939,32.7220001 218.3440857,33.2680054 L218.9160919,34.112999 C220.2030945,33.762001 221.2950897,33.2809982 222.1790924,32.6699982 L224.6750946,32.6699982 C224.2590942,33.5540009 223.5440979,34.3209991 222.5430908,34.9580002 C222.1530914,34.5419998 221.7500916,34.1520004 221.3210907,33.788002 L220.6450958,34.2560043 L221.7760925,35.387001 C220.7880859,35.8810043 219.5661011,36.2970047 218.1100922,36.6090012 L218.591095,37.4800034 C222.5170898,36.5180054 224.8830872,34.8930054 225.6890869,32.6180038 L225.6890869,31.8250046 L223.1540985,31.8250046 C223.414093,31.5390015 223.6481018,31.227005 223.8560944,30.9020004 L222.9980927,30.538002 Z M222.4520874,25.7410049 L221.5290985,25.5460052 C220.7230988,26.6900024 219.7220917,27.586998 218.5260925,28.2369995 L219.1500854,28.9910049 C219.9040985,28.5620041 220.5930939,28.0419998 221.1911011,27.4309998 L223.8820953,27.4309998 C223.440094,28.2630005 222.7640991,28.9910049 221.8670959,29.5890045 C221.6330872,29.1990051 221.3340912,28.8089981 220.9440918,28.4189987 L220.2940979,28.9000015 C220.5540924,29.1340027 220.8660889,29.4850006 221.2171021,29.9790039 C220.463089,30.3690033 219.5921021,30.7070007 218.5780945,30.9670029 L219.0460968,31.6689987 C222.1400909,30.8110046 224.0510864,29.3810043 224.8050842,27.3790054 L224.8050842,26.598999 L221.8930969,26.598999 C222.088089,26.326004 222.2700958,26.0400009 222.4520874,25.7410049 Z M227.6911011,26.5080032 L227.6911011,27.4049988 L232.3970947,27.4049988 L232.3970947,26.5080032 L227.6911011,26.5080032 Z M227.184082,30.0180054 L227.184082,30.9280014 L228.9910889,30.9280014 C228.341095,33.2939987 227.8210907,34.7369995 227.4310913,35.2700043 C227.3790894,35.2960052 227.3140869,35.3219986 227.2230835,35.3479996 L227.4440918,36.2320023 C229.0560913,35.9459991 230.5640869,35.5559998 231.9420929,35.0620041 C232.0720825,35.3610001 232.2020874,35.6730042 232.3320923,36.0110016 L233.138092,35.5950012 C232.5921021,34.2820053 232.0070953,33.072998 231.3830872,31.9550018 L230.5900879,32.3450012 C230.9281006,32.9430008 231.2530823,33.5800018 231.591095,34.2820053 C230.5770874,34.6590042 229.5500946,34.9580002 228.5231018,35.1660004 C228.9130859,34.3079987 229.368103,32.9039993 229.888092,30.9280014 L232.8910828,30.9280014 L232.8910828,30.0180054 L227.184082,30.0180054 Z M234.841095,25.637001 L234.841095,28.2630005 L233.0860901,28.2630005 L233.0860901,29.1730042 L234.841095,29.1730042 L234.841095,29.3290024 C234.815094,32.826004 233.9830933,35.3610001 232.3580933,36.9339981 L233.0600891,37.5449982 C234.8280945,35.8160019 235.7380981,33.072998 235.7770996,29.3290024 L235.7770996,29.1730042 L237.7010956,29.1730042 C237.6750946,32.6699982 237.6230927,34.7630005 237.5450897,35.4520035 C237.4411011,36.1930008 237.0640869,36.5699997 236.4270935,36.5699997 C236.0760956,36.5699997 235.6600952,36.5439987 235.1920929,36.5180054 L235.4000854,37.3499985 C235.9460907,37.3759995 236.3230896,37.3889999 236.5440979,37.3889999 C237.6620941,37.3889999 238.2991028,36.8560028 238.4290924,35.8030014 C238.5460968,34.8410034 238.611084,32.3320007 238.611084,28.2630005 L235.7770996,28.2630005 L235.7770996,25.637001 L234.841095,25.637001 Z M251.6760864,26.8720016 L246.8400879,26.8720016 C246.6580963,26.3650055 246.4631042,25.9100037 246.2550964,25.4940033 L245.2150879,25.6760025 C245.4360962,26.0400009 245.6311035,26.4300003 245.8130951,26.8720016 L240.8730927,26.8720016 L240.8730927,29.6539993 L241.835083,29.6539993 L241.835083,27.7820053 L250.7140961,27.7820053 L250.7140961,29.6669998 L251.6760864,29.6669998 L251.6760864,26.8720016 Z M240.5610962,30.4860001 L240.5610962,31.3960037 L243.6940918,31.3960037 C243.2780914,32.1110001 242.8360901,32.8390045 242.368103,33.5670013 C243.5770874,33.9570007 244.7861023,34.4120026 246.0080872,34.9319992 C244.6300964,35.9850006 242.8230896,36.5180054 240.6130981,36.5309982 L241.1590881,37.4020004 C243.5770874,37.3240051 245.5010986,36.6480026 246.9570923,35.3479996 C248.335083,35.9720001 249.7131042,36.7000046 251.091095,37.5060043 L251.7150879,36.6870041 C250.3370972,35.9070053 248.9720917,35.2310028 247.6330872,34.6590042 C248.3220825,33.8530045 248.9330902,32.7740021 249.466095,31.3960037 L252.0270996,31.3960037 L252.0270996,30.4860001 L245.3060913,30.4860001 C245.618103,29.9140015 245.9430847,29.3030014 246.2810974,28.6529999 L245.3190918,28.3670044 C244.9680939,29.0690002 244.591095,29.7710037 244.2010956,30.4860001 L240.5610962,30.4860001 Z M244.7991028,31.3960037 L248.4390869,31.3960037 C247.9971008,32.5400009 247.4250946,33.5019989 246.7230835,34.2690048 C245.6960907,33.840004 244.6950989,33.4760056 243.7070923,33.1900024 C244.0450897,32.6699982 244.4090881,32.0719986 244.7991028,31.3960037 Z M259.2030945,25.637001 C257.6950989,27.2750015 255.7970886,28.6529999 253.5090942,29.7580032 L253.9640961,30.5770035 C256.2650757,29.4199982 258.1240845,28.0550003 259.5410767,26.4820023 C261.0751038,28.1330032 262.9080811,29.4720001 265.0661011,30.512001 L265.5340881,29.6800003 C263.4020996,28.6920013 261.5170898,27.3530045 259.8790894,25.637001 L259.2030945,25.637001 Z M255.914093,29.7450027 L255.914093,30.6419983 L259.0600891,30.6419983 L259.0600891,32.9039993 L255.2901001,32.9039993 L255.2901001,33.8010025 L259.0600891,33.8010025 L259.0600891,36.2060013 L254.1330872,36.2060013 L254.1330872,37.1290054 L264.9620972,37.1290054 L264.9620972,36.2060013 L260.0220947,36.2060013 L260.0220947,33.8010025 L263.7790833,33.8010025 L263.7790833,32.9039993 L260.0220947,32.9039993 L260.0220947,30.6419983 L263.1680908,30.6419983 L263.1680908,29.7450027 L255.914093,29.7450027 Z M274.1530762,28.0550003 L278.3391113,28.0550003 L278.3391113,27.1450043 L274.4650879,27.1450043 C274.5950928,26.677002 274.7120972,26.1959991 274.8161011,25.6760025 L273.8540955,25.4940033 C273.5290833,27.3660049 272.9050903,28.8479996 271.9820862,29.9530029 L272.5800781,30.6809998 C273.2171021,29.9790039 273.7370911,29.0950012 274.1530762,28.0550003 Z M275.5180969,28.939003 L274.7640991,29.4070053 C275.4270935,30.2779999 275.9470825,31.0709991 276.3370972,31.7860031 L277.1170959,31.2529984 C276.7530823,30.590004 276.2200928,29.822998 275.5180969,28.939003 Z M270.4870911,25.5589981 L270.4870911,31.9810028 L271.4360962,31.9810028 L271.4360962,25.5589981 L270.4870911,25.5589981 Z M267.7960815,26.1959991 L267.7960815,31.5 L268.7190857,31.5 L268.7190857,26.1959991 L267.7960815,26.1959991 Z M277.2731018,32.6310043 L268.3551025,32.6310043 L268.3551025,36.2450027 L266.8991089,36.2450027 L266.8991089,37.090004 L278.664093,37.090004 L278.664093,36.2450027 L277.2731018,36.2450027 L277.2731018,32.6310043 Z M269.2520752,36.2450027 L269.2520752,33.4889984 L270.9810791,33.4889984 L270.9810791,36.2450027 L269.2520752,36.2450027 Z M271.8780823,36.2450027 L271.8780823,33.4889984 L273.6980896,33.4889984 L273.6980896,36.2450027 L271.8780823,36.2450027 Z M274.5950928,36.2450027 L274.5950928,33.4889984 L276.3760986,33.4889984 L276.3760986,36.2450027 L274.5950928,36.2450027 Z M287.6080933,33.3460007 L287.6080933,36.1930008 L284.059082,36.1930008 L284.059082,37.1030045 L292.0020752,37.1030045 L292.0020752,36.1930008 L288.5440979,36.1930008 L288.5440979,33.3460007 L291.5210876,33.3460007 L291.5210876,32.4749985 L284.5791016,32.4749985 L284.5791016,33.3460007 L287.6080933,33.3460007 Z M281.6800842,37.4020004 C282.434082,37.4020004 282.8240967,37.0250015 282.8240967,36.2710037 L282.8240967,32.4360046 C283.2011108,32.2669983 283.5780945,32.0849991 283.9550781,31.9029999 L283.9550781,30.9540024 C283.591095,31.1490021 283.2141113,31.3310013 282.8240967,31.5130005 L282.8240967,28.9910049 L283.9030762,28.9910049 L283.9030762,28.0940018 L282.8240967,28.0940018 L282.8240967,25.6110001 L281.8620911,25.6110001 L281.8620911,28.0940018 L280.2760925,28.0940018 L280.2760925,28.9910049 L281.8620911,28.9910049 L281.8620911,31.9029999 C281.2770996,32.1110001 280.6790771,32.2929993 280.0680847,32.4490051 L280.3020935,33.3850021 C280.8220825,33.2160034 281.3421021,33.0340042 281.8620911,32.8390045 L281.8620911,36.0370026 C281.8620911,36.375 281.6930847,36.5439987 281.3551025,36.5439987 C281.0300903,36.5439987 280.6920776,36.5180054 280.341095,36.4920044 L280.5361023,37.4020004 L281.6800842,37.4020004 Z M287.9591064,25.4550018 L287.0101013,25.6110001 C287.2440796,26.0270004 287.4650879,26.5080032 287.6730957,27.0279999 L284.4490967,27.0279999 L284.4490967,29.4850006 L285.3330994,29.4850006 L285.3330994,27.8730011 L290.7930908,27.8730011 L290.7930908,29.4850006 L291.664093,29.4850006 L291.664093,27.0279999 L288.6091003,27.0279999 C288.4010925,26.4430008 288.1800842,25.9230042 287.9591064,25.4550018 Z M286.7500916,28.6790009 C286.2561035,29.7970047 285.5150757,30.6940002 284.5401001,31.3700027 L285.216095,31.9550018 C286.1911011,31.2789993 286.9710999,30.2910004 287.5690918,29.0040054 L286.7500916,28.6790009 Z M289.2590942,28.6529999 L288.466095,28.9910049 C289.2460938,29.822998 289.9480896,30.7850037 290.585083,31.8510056 L291.4041138,31.4350052 C290.7800903,30.4210052 290.065094,29.4850006 289.2590942,28.6529999 Z M292.5610962,36.2190018" style="fill:rgb(23,55,94);stroke:none" clip-path="url(#clip9)" />
</svg>
