<?xml version="1.0" encoding="UTF-8"?>
<!DOCTYPE svg PUBLIC "-//W3C//DTD SVG 1.1//EN" "http://www.w3.org/Graphics/SVG/1.1/DTD/svg11.dtd">
<svg version="1.2" xmlns="http://www.w3.org/2000/svg" xmlns:xlink="http://www.w3.org/1999/xlink" x="0" y="0" width="500" height="148" viewBox="0 0 500 148">
<style type="text/css"><![CDATA[
text { font:12px Dialog; }
]]></style>
<rect x="-1220" y="-1076" width="2940" height="2236" style="fill:rgb(255,255,255);stroke:none" />
<clipPath id="clip1"><path d="M15,15 L485,15 L485,133 L15,133 Z M180,79 L180,132 L319,132 L319,79 Z M180,79" /></clipPath>
<path d="M249.6834106,69.0001221 L64.5800018,69.0001221 C60.1640015,69.0001221 56.5800018,65.4161224 56.5800018,61.0001259 L56.5800018,47" style="fill:none;stroke:rgb(85,142,213)" clip-path="url(#clip1)" />
<clipPath id="clip2"><path d="M15,15 L485,15 L485,133 L15,133 Z M180,79 L180,132 L319,132 L319,79 Z M180,79" /></clipPath>
<path d="M249.6834106,69.0001221 L165,69.0001221 C160.5839996,69.0001221 157,65.4161224 157,61.0001259 L157,47" style="fill:none;stroke:rgb(85,142,213)" clip-path="url(#clip2)" />
<clipPath id="clip3"><path d="M15,15 L485,15 L485,133 L15,133 Z M180,79 L180,132 L319,132 L319,79 Z M180,79" /></clipPath>
<path d="M249.6834106,69.0001221 L342,69.0001221 C346.4160156,69.0001221 350,65.4161224 350,61.0001259 L350,47" style="fill:none;stroke:rgb(85,142,213)" clip-path="url(#clip3)" />
<clipPath id="clip4"><path d="M14,14 L486,14 L486,134 L14,134 L14,14 Z" /></clipPath>
<path d="M249.6331635,79 L249.6834106,69.0001221" style="fill:none;stroke:rgb(85,142,213)" clip-path="url(#clip4)" />
<clipPath id="clip5"><path d="M179,78 L321,78 L321,134 L179,134 L179,78 Z" /></clipPath>
<path d="M180,79 L180,132 L319,132 L319,79 Z M180,79" style="fill:rgb(247,150,70);stroke:none" clip-path="url(#clip5)" />
<clipPath id="clip6"><path d="M210,93 L290,93 L290,119 L210,119 L210,93 Z" /></clipPath>
<path d="M215.9259949,98.5479965 L215.9259949,100.3659973 L228.8860016,100.3659973 L228.8860016,98.5479965 L215.9259949,98.5479965 Z M214.1799927,103.4980011 L214.1799927,105.3700027 L219.904007,105.3700027 C218.1759949,108.8440018 216.7720032,110.9680023 215.6920013,111.7600021 C215.5839996,111.8320007 215.4400024,111.8860016 215.2420044,111.9580002 L215.7279968,113.8659973 C219.9580078,113.5599976 223.8639984,113.1640015 227.4459991,112.6600037 C227.7700043,113.2720032 228.0579987,113.8659973 228.3280029,114.4779968 L230.0200043,113.2900009 C229.1199951,111.5080032 227.8600006,109.4020004 226.2400055,106.9899979 L224.7279968,107.9260025 C225.3760071,108.9520035 225.9700012,109.9599991 226.5279999,110.9499969 C223.7200012,111.3460007 220.8760071,111.6520004 218.0319977,111.8499985 C219.1840057,110.5179977 220.4980011,108.3580017 221.9920044,105.3700027 L230.5059967,105.3700027 L230.5059967,103.4980011 L214.1799927,103.4980011 Z M248.4160004,99.2679977 L241.6660004,99.2679977 C241.4140015,98.6200027 241.1800079,98.0439987 240.928009,97.5220032 L238.8040009,97.8820038 C239.0740051,98.314003 239.326004,98.7639999 239.5420074,99.2679977 L232.8820038,99.2679977 L232.8820038,103.4079971 L234.7900085,103.4079971 L234.7900085,101.0859985 L246.5079956,101.0859985 L246.5079956,103.4260025 L248.4160004,103.4260025 L248.4160004,99.2679977 Z M232.6660004,104.2539978 L232.6660004,106.0540009 L236.6260071,106.0540009 C236.0859985,107.026001 235.5100098,107.9800034 234.897995,108.9520035 C236.5,109.4560013 238.102005,110.0500031 239.6860046,110.7160034 C237.8860016,111.9759979 235.5279999,112.6060028 232.6119995,112.6060028 L233.7100067,114.3519974 C236.9680023,114.262001 239.6139984,113.3440018 241.647995,111.5800018 C243.4840088,112.4079971 245.302002,113.3619995 247.1199951,114.4420013 L248.397995,112.7860031 C246.5440063,111.7779999 244.7440033,110.9140015 242.9980011,110.1760025 C243.8079987,109.1320038 244.5639954,107.7639999 245.2660065,106.0540009 L248.6860046,106.0540009 L248.6860046,104.2539978 L239.8480072,104.2539978 L240.9819946,102.0940018 L239.0379944,101.5 C238.5879974,102.4000015 238.1199951,103.3180008 237.6159973,104.2539978 L232.6660004,104.2539978 Z M238.8399963,106.0540009 L243.1959991,106.0540009 C242.6560059,107.3499985 241.9720001,108.4840012 241.1439972,109.4199982 C239.9199982,108.9520035 238.7140045,108.538002 237.5440063,108.2139969 C237.9400024,107.5839996 238.3720093,106.8639984 238.8399963,106.0540009 Z M258.3340149,97.6299973 C256.2460022,99.8259964 253.6360016,101.6439972 250.5039978,103.1200027 L251.4219971,104.7939987 C252.3220062,104.3619995 253.1679993,103.8939972 253.9779968,103.3899994 L253.9779968,105.0279999 L258.04599,105.0279999 L258.04599,107.5479965 L253.0240021,107.5479965 L253.0240021,109.3659973 L258.04599,109.3659973 L258.04599,112.0299988 L251.4219971,112.0299988 L251.4219971,113.8659973 L266.5960083,113.8659973 L266.5960083,112.0299988 L259.95401,112.0299988 L259.95401,109.3659973 L264.9580078,109.3659973 L264.9580078,107.5479965 L259.95401,107.5479965 L259.95401,105.0279999 L264.0220032,105.0279999 L264.0220032,103.4079971 C264.8139954,103.8939972 265.6419983,104.3440018 266.506012,104.7580032 L267.4420166,103.0839996 C264.5079956,101.7519989 261.9160156,99.9339981 259.6660156,97.6299973 L258.3340149,97.6299973 Z M254.2660065,103.2099991 C256.1019897,102.0579987 257.6860046,100.762001 259,99.3399963 C260.3680115,100.7979965 261.9339905,102.0940018 263.7160034,103.2099991 L254.2660065,103.2099991 Z M274.0299988,99.9339981 L274.0299988,101.697998 L280.2220154,101.697998 C280.2940063,104.3619995 280.4379883,106.5759964 280.6719971,108.3219986 C280.7260132,108.8259964 280.7980042,109.2939987 280.9060059,109.762001 C280.006012,111.0940018 278.9079895,112.1019974 277.6480103,112.8219986 L278.7999878,114.3339996 C279.7900085,113.7220001 280.6900024,112.9300003 281.5,111.9400024 C281.6080017,112.2279968 281.7160034,112.5159988 281.8600159,112.8040009 C282.3640137,113.7399979 282.9219971,114.2259979 283.5339966,114.2259979 C284.3980103,114.2259979 285.1719971,113.1279984 285.8200073,110.9499969 L284.4160156,109.7979965 C284.0920105,111.435997 283.8040161,112.2639999 283.5339966,112.3000031 C283.2279968,112.2099991 282.9400024,111.5080032 282.6879883,110.211998 C283.7139893,108.4300003 284.5239868,106.197998 285.1359863,103.5339966 L283.5159912,102.8320007 C283.2099915,104.4339981 282.79599,105.8740005 282.2739868,107.1340027 C282.1480103,105.6220016 282.0759888,103.8219986 282.0400085,101.697998 L285.6040039,101.697998 L285.6040039,99.9339981 L284.8659973,99.9339981 C284.6860046,99.2320023 284.5239868,98.6019974 284.3619995,98.0439987 L282.7059937,98.314003 C282.9219971,98.8180008 283.1199951,99.3580017 283.2999878,99.9339981 L282.0220032,99.9339981 C282.0039978,99.2139969 282.0039978,98.4759979 282.0039978,97.7200012 L280.1679993,97.7200012 C280.1679993,98.4759979 280.1679993,99.2139969 280.1860046,99.9339981 L274.0299988,99.9339981 Z M274.6960144,103.0839996 L274.6960144,108.4300003 L279.519989,108.4300003 L279.519989,103.0839996 L274.6960144,103.0839996 Z M277.8999939,106.9000015 L276.2980042,106.9000015 L276.2980042,104.6139984 L277.8999939,104.6139984 L277.8999939,106.9000015 Z M279.519989,109.1500015 C277.5400085,109.8880005 275.506012,110.4100037 273.4179993,110.7340012 L273.8859863,112.5339966 C275.8840027,112.0660019 277.756012,111.5080032 279.519989,110.8420029 L279.519989,109.1500015 Z M269.2420044,102.2740021 L269.2420044,104.0739975 L270.8080139,104.0739975 L270.8080139,109.473999 C270.2319946,109.6539993 269.6560059,109.7979965 269.0620117,109.923996 L269.5299988,111.8320007 C271.1499939,111.3099976 272.6799927,110.6800003 274.1199951,109.9420013 L274.1199951,108.052002 C273.6520081,108.3040009 273.1660156,108.538002 272.6619873,108.7720032 L272.6619873,104.0739975 L274.1560059,104.0739975 L274.1560059,102.2740021 L272.6619873,102.2740021 L272.6619873,97.7559967 L270.8080139,97.7559967 L270.8080139,102.2740021 L269.2420044,102.2740021 Z M286.3420105,112.461998" style="fill:rgb(55,96,146);stroke:none" clip-path="url(#clip6)" />
<clipPath id="clip7"><path d="M14,14 L100,14 L100,49 L14,49 L14,14 Z" /></clipPath>
<path d="M15,15 L15,47 L98,47 L98,15 Z M15,15" style="fill:rgb(217,217,217);stroke:none" clip-path="url(#clip7)" />
<clipPath id="clip8"><path d="M26,21 L88,21 L88,42 L26,42 L26,21 Z" /></clipPath>
<path d="M32.8628845,36.1409988 L34.0054626,36.1409988 L34.0054626,26.9813309 L32.8692322,26.9813309 L30.4317322,28.733284 L30.4317322,29.9393387 L32.761322,28.2508621 L32.8628845,28.2508621 Z M38.5376892,36.2044754 C38.7662048,36.2044754 38.9608612,36.1230164 39.1216736,35.9600906 C39.282486,35.7971649 39.3628845,35.6035614 39.3628845,35.3792801 C39.3628845,35.1507645 39.282486,34.9561005 39.1216736,34.7952957 C38.9608612,34.634491 38.7662048,34.5540848 38.5376892,34.5540848 C38.3134003,34.5540848 38.1197968,34.634491 37.9568787,34.7952957 C37.7939606,34.9561005 37.7124939,35.1507645 37.7124939,35.3792801 C37.7124939,35.6035614 37.7939606,35.7971649 37.9568787,35.9600906 C38.1197968,36.1230164 38.3134003,36.2044754 38.5376892,36.2044754 Z M45.9082794,26.2740021 L45.9082794,27.1839981 L55.1642761,27.1839981 L55.1642761,26.2740021 L45.9082794,26.2740021 Z M44.6602783,29.901001 L44.6602783,30.836998 L49.0412903,30.836998 C47.6762848,33.6059952 46.5712891,35.2959976 45.7392883,35.9199982 C45.6872864,35.9459991 45.6222839,35.9850006 45.51828,36.0110016 L45.7652893,36.9599991 C48.8852844,36.7519989 51.7582855,36.4919968 54.3972778,36.1539993 C54.6442871,36.6220016 54.8652802,37.0769958 55.073288,37.5319977 L55.9052887,36.9469986 C55.2552795,35.6210022 54.3322754,34.0479965 53.1362762,32.2539978 L52.3822784,32.7220001 C52.9542847,33.6059952 53.4742889,34.4639969 53.942276,35.2959976 C51.6152802,35.6080017 49.2882843,35.8290024 46.948288,35.9589996 C47.8322754,34.9970016 48.8852844,33.2939987 50.0812836,30.836998 L56.3212891,30.836998 L56.3212891,29.901001 L44.6602783,29.901001 Z M58.297287,26.0400009 L58.297287,37.4540024 L59.2202759,37.4540024 L59.2202759,26.923996 L61.3782806,26.923996 C61.0402832,28.0159988 60.5592804,29.237999 59.9612885,30.5899963 C60.8452759,31.7080002 61.2872772,32.7350006 61.2872772,33.6449966 C61.2872772,33.9049988 61.1962891,34.0739975 61.0402832,34.1780014 C60.8842773,34.2819977 60.5592804,34.3470001 60.0652771,34.3730011 C59.922287,34.3730011 59.7532806,34.3470001 59.5582886,34.3209991 L59.8572845,35.2699966 C60.7932892,35.2569962 61.4562836,35.1009979 61.820282,34.8150024 C62.0802765,34.5810013 62.2232819,34.1910019 62.2232819,33.6449966 C62.1712799,32.6829987 61.7292786,31.6169968 60.9232788,30.4469986 C61.4562836,29.1729965 61.9242859,27.9509964 62.3142853,26.7809982 L62.3142853,26.0400009 L58.297287,26.0400009 Z M62.4962769,27.4570007 L62.4962769,28.3669968 L64.2772827,28.3669968 C64.2642822,28.7829971 64.2382813,29.4329987 64.2122803,30.3170013 C64.1602783,31.5390015 63.9652863,32.6439972 63.6272888,33.6319962 C63.2762756,34.6199951 62.5612793,35.685997 61.495285,36.8430023 L62.1842804,37.4929962 C63.0812836,36.5830002 63.7832794,35.5820007 64.2902832,34.4899979 C64.6672821,33.5930023 64.9142761,32.6049957 65.044281,31.526001 L67.8912811,31.526001 C67.8782806,33.5019989 67.8392792,34.802002 67.7612762,35.413002 C67.6182861,36.0629959 67.2672882,36.401001 66.721283,36.427002 C66.3572845,36.427002 65.9022827,36.401001 65.3822784,36.375 L65.6812897,37.2460022 C66.1232758,37.284996 66.5002899,37.310997 66.8122864,37.310997 C67.72229,37.284996 68.3072815,36.8300018 68.5412903,35.9720001 C68.7102814,35.1790009 68.8142853,33.3980026 68.8402863,30.6159973 L65.1222839,30.6159973 C65.1742859,29.6279984 65.2002869,28.8740005 65.2132874,28.3669968 L69.5162811,28.3669968 L69.5162811,27.4570007 L66.695282,27.4570007 C66.5002899,26.7029953 66.2922821,26.0530014 66.0712891,25.4809952 L65.1352844,25.637001 C65.369278,26.1829987 65.5642853,26.7939987 65.7462769,27.4570007 L62.4962769,27.4570007 Z M72.6622772,37.3239975 C73.4162903,37.3239975 73.7932892,36.9339981 73.7932892,36.1669998 L73.7932892,32.461998 C74.2872772,32.2539978 74.794281,32.0459976 75.2882843,31.8119965 L75.2882843,30.8889999 C74.794281,31.1230011 74.3002777,31.3440018 73.7932892,31.552002 L73.7932892,28.913002 L75.2102814,28.913002 L75.2102814,28.0159988 L73.7932892,28.0159988 L73.7932892,25.5589981 L72.8442841,25.5589981 L72.8442841,28.0159988 L71.2062836,28.0159988 L71.2062836,28.913002 L72.8442841,28.913002 L72.8442841,31.8899994 C72.2462769,32.0849991 71.6352844,32.2539978 70.9982758,32.3969955 L71.2322845,33.3330002 C71.7782898,33.177002 72.3112793,32.9949951 72.8442841,32.8129959 L72.8442841,35.9329987 C72.8442841,36.2839966 72.6752777,36.4659958 72.3372803,36.4659958 C71.9602814,36.4659958 71.570282,36.4400024 71.1672821,36.4140015 L71.3622894,37.3239975 L72.6622772,37.3239975 Z M81.6582794,28.0029984 L81.6582794,30.4729996 L76.9132843,30.4729996 L76.9132843,28.0029984 L81.6582794,28.0029984 Z M76.9132843,31.3699951 L82.5682831,31.3699951 L82.5682831,27.1059952 L79.7862854,27.1059952 C79.6042786,26.4949951 79.422287,25.9489975 79.2402802,25.4680023 L78.2522888,25.6240005 C78.4602814,26.0660019 78.6682892,26.5599976 78.8502808,27.1059952 L75.9772797,27.1059952 L75.9772797,31.2529984 C75.9642792,33.5279999 75.4832764,35.387001 74.547287,36.8170013 L75.2492828,37.4410019 C76.3282776,35.7509995 76.8872833,33.7360001 76.9132843,31.3699951 Z M83.4912872,36.1409988" style="fill:rgb(23,55,94);stroke:none" clip-path="url(#clip8)" />
<clipPath id="clip9"><path d="M108,14 L207,14 L207,49 L108,49 L108,14 Z" /></clipPath>
<path d="M109,15 L109,47 L205,47 L205,15 Z M109,15" style="fill:rgb(217,217,217);stroke:none" clip-path="url(#clip9)" />
<clipPath id="clip10"><path d="M120,21 L195,21 L195,42 L120,42 L120,21 Z" /></clipPath>
<path d="M123.8018799,36.1539993 L129.5845947,36.1539993 L129.5845947,35.125679 L125.1031494,35.125679 L125.3824463,35.3161087 L125.3824463,34.7892532 L125.0968018,35.3161087 L127.3883057,32.872261 C127.9257431,32.300972 128.3425598,31.8196106 128.6387939,31.4281693 C128.9350281,31.0367279 129.1423645,30.6802063 129.2608643,30.3585892 C129.379364,30.036972 129.4385986,29.7026672 129.4385986,29.3556595 L129.4385986,29.3429642 C129.4385986,28.847847 129.316925,28.4077454 129.0736084,28.0226517 C128.8302917,27.637558 128.5012665,27.333931 128.0865479,27.111763 C127.6718292,26.889595 127.2021103,26.778511 126.6773682,26.778511 C126.1103058,26.778511 125.6056747,26.898056 125.1634521,27.1371536 C124.7212296,27.3762512 124.3742294,27.7063217 124.1224365,28.127388 C123.8706436,28.5484543 123.7426376,29.029808 123.7384033,29.5714798 L123.744751,29.5778275 L124.8365479,29.5841751 L124.8428955,29.5714798 C124.8428955,29.2117767 124.9158936,28.8975754 125.0618896,28.6288528 C125.2078857,28.3601303 125.4131241,28.1506653 125.6776123,28.0004349 C125.9421005,27.8502045 126.2499542,27.7750931 126.6011963,27.7750931 C126.948204,27.7750931 127.2465439,27.8491516 127.4962158,27.997261 C127.7458878,28.1453705 127.9373779,28.3463821 128.0706787,28.6002884 C128.2039795,28.8541946 128.2706299,29.1419525 128.2706299,29.4635696 L128.2706299,29.476265 C128.2706299,29.7428665 128.2272644,29.9893646 128.1405029,30.2157669 C128.0537415,30.4421692 127.9035263,30.692894 127.6898193,30.9679642 C127.4761124,31.2430344 127.178833,31.5921478 126.7979736,32.0153275 L123.8018799,35.36689 Z M132.5679932,36.2174759 C132.7965088,36.2174759 132.9911804,36.1360168 133.1519775,35.9730911 C133.3127747,35.8101654 133.3931885,35.6165619 133.3931885,35.3922806 C133.3931885,35.163765 133.3127747,34.969101 133.1519775,34.8082962 C132.9911804,34.6474915 132.7965088,34.5670853 132.5679932,34.5670853 C132.3437195,34.5670853 132.150116,34.6474915 131.9871826,34.8082962 C131.8242493,34.969101 131.7427979,35.163765 131.7427979,35.3922806 C131.7427979,35.6165619 131.8242493,35.8101654 131.9871826,35.9730911 C132.150116,36.1360168 132.3437195,36.2174759 132.5679932,36.2174759 Z M142.6425781,30.0309982 C142.525589,30.4860001 142.3825836,30.9670029 142.226593,31.4609985 L140.9915771,31.4609985 L140.9915771,32.2669983 L141.9535828,32.2669983 C141.7455902,32.8259964 141.5245972,33.4110031 141.2775879,34.0219955 C141.9015808,34.3339996 142.473587,34.6459961 143.0065918,34.9580002 C142.3955841,35.6080017 141.6155853,36.1279984 140.6665955,36.5179977 L141.121582,37.3239975 C142.200592,36.8560028 143.0845947,36.2320023 143.7735901,35.4260025 C144.1635895,35.6729965 144.5145874,35.9199982 144.8395844,36.1800003 L145.3335876,35.4649963 C144.9955902,35.2050018 144.6445923,34.9710007 144.2805786,34.75 C144.7485962,34.0219955 145.0735779,33.177002 145.2815857,32.2149963 L145.2815857,31.4609985 L143.1365967,31.4609985 C143.2665863,30.9929962 143.3835907,30.5250015 143.5005798,30.0309982 L145.2425842,30.0309982 L145.2425842,29.211998 L141.0565796,29.211998 L141.0565796,30.0309982 L142.6425781,30.0309982 Z M143.5395813,34.2949982 C143.1495972,34.0739975 142.7595825,33.8659973 142.3565979,33.6709976 C142.5385895,33.2289963 142.7205811,32.7610016 142.8765869,32.2669983 L144.4625854,32.2669983 C144.2545776,33.0209961 143.9555969,33.6969986 143.5395813,34.2949982 Z M148.778595,28.9909973 C148.4665833,30.6549988 148.0375977,32.0849991 147.5175781,33.2809982 C147.4135895,32.8129959 147.3095856,32.2929993 147.2185974,31.7210007 C147.0625916,30.6940002 146.9585876,29.4459991 146.9065857,27.9769974 L150.1045837,27.9769974 L150.1045837,27.0930023 L149.1945801,27.0930023 C149.025589,26.598999 148.8435974,26.1699982 148.6615906,25.7799988 L147.7905884,25.9229965 C147.9985962,26.2870026 148.1935883,26.677002 148.3755798,27.0930023 L146.8805847,27.0930023 C146.8675842,26.6119995 146.8675842,26.1049957 146.8675842,25.5719986 L145.9185791,25.5719986 C145.9185791,26.0920029 145.9185791,26.598999 145.9445801,27.0930023 L139.522583,27.0930023 L139.522583,30.7330017 C139.496582,33.2549973 139.1845856,35.2180023 138.5995789,36.6220016 L139.3925781,37.3239975 C140.0425873,35.6729965 140.3805847,33.4759979 140.4195862,30.7330017 L140.4195862,27.9769974 L145.9705811,27.9769974 C146.048584,29.7969971 146.2045898,31.2789993 146.4385834,32.4229965 C146.5815887,33.151001 146.7505798,33.814003 146.9325867,34.3860016 C146.3995972,35.2699966 145.775589,35.9589996 145.0605774,36.4530029 L145.5805969,37.2070007 C146.2045898,36.7779999 146.7895813,36.1930008 147.3095856,35.439003 C147.4135895,35.6729965 147.5175781,35.8809967 147.6345825,36.0759964 C148.1025848,36.8949966 148.5575867,37.310997 149.025589,37.310997 C149.3505859,37.310997 149.6495972,37.012001 149.9095764,36.427002 C150.1175842,35.9329987 150.3125916,35.3219986 150.4945831,34.6070023 L149.6235962,34.0479965 C149.4025879,35.439003 149.1815796,36.1539993 148.9605865,36.2060013 C148.6875916,36.1930008 148.3755798,35.8160019 148.0375977,35.0619965 C147.9725952,34.9059982 147.9075928,34.7369995 147.8555908,34.5550003 C148.5835876,33.2159958 149.1555786,31.473999 149.5845947,29.3420029 L148.778595,28.9909973 Z M153.4715881,30.0699997 L155.0575867,30.0699997 L155.0575867,32.2799988 L153.4715881,32.2799988 L153.4715881,30.0699997 Z M155.0575867,29.1989975 L153.4715881,29.1989975 L153.4715881,26.923996 L155.0575867,26.923996 L155.0575867,29.1989975 Z M153.4455872,33.1640015 L155.0575867,33.1640015 L155.0575867,35.9069977 C155.0575867,36.322998 154.9275818,36.5439987 154.6935883,36.5439987 C154.4335938,36.5439987 154.1605835,36.5179977 153.8615875,36.4919968 L154.1085815,37.3889999 L154.9795837,37.3889999 C155.6295776,37.3889999 155.9545898,36.9990005 155.9545898,36.2190018 L155.9545898,26.0270004 L152.6005859,26.0270004 L152.6005859,32.2019958 C152.574585,34.0479965 152.2885895,35.5690002 151.7425842,36.7649994 L152.496582,37.4410019 C153.0295868,36.3099976 153.3415833,34.8799973 153.4455872,33.1640015 Z M156.9945831,30.3430023 C156.903595,31.5909958 156.6695862,32.6959991 156.2925873,33.6579971 L157.1115875,33.9049988 C157.449585,32.8909988 157.6575928,31.7340012 157.7485962,30.4339981 L156.9945831,30.3430023 Z M162.9095764,30.2389984 L162.2595825,30.4469986 C162.5455933,31.4349976 162.8185883,32.5530014 163.0655823,33.8269958 L163.7805786,33.5019989 C163.5205841,32.3450012 163.2345886,31.2529984 162.9095764,30.2389984 Z M158.7885895,25.5459976 L158.7885895,27.6520004 L156.5655823,27.6520004 L156.5655823,28.5619965 L158.7885895,28.5619965 L158.7885895,29.3549957 C158.7625885,32.7610016 157.9175873,35.2439957 156.2535858,36.8040009 L156.9945831,37.4410019 C158.749588,35.737999 159.6465759,33.0469971 159.6855774,29.3549957 L159.6855774,28.5619965 L161.1805878,28.5619965 C161.1545868,32.3450012 161.1025848,34.5940018 161.0115967,35.3219986 C160.9075928,36.0500031 160.5175781,36.427002 159.8155823,36.427002 C159.4905853,36.427002 159.1005859,36.4140015 158.6585846,36.3880005 L158.8925781,37.2719955 C159.3865967,37.2979965 159.7375793,37.3239975 159.9455872,37.3239975 C161.1155853,37.3239975 161.7655945,36.7910004 161.8955841,35.7249985 C162.0125885,34.697998 162.0775757,32.0069962 162.0775757,27.6520004 L159.6855774,27.6520004 L159.6855774,25.5459976 L158.7885895,25.5459976 Z M171.0215759,33.7099991 L175.1425781,33.7099991 L175.1425781,34.6200027 L171.0215759,34.6200027 L171.0215759,33.7099991 Z M175.1425781,32.9820023 L171.0215759,32.9820023 L171.0215759,32.0199966 L175.1425781,32.0199966 L175.1425781,32.9820023 Z M171.0215759,35.3349991 L175.1425781,35.3349991 L175.1425781,36.1019974 C175.1425781,36.4140015 174.9865875,36.5830002 174.6875916,36.5830002 L173.7125854,36.5309982 L173.9465942,37.362999 L174.9605865,37.362999 C175.6755981,37.362999 176.0395813,36.9990005 176.0395813,36.2969971 L176.0395813,31.2399979 L170.1375885,31.2399979 L170.1375885,37.4280014 L171.0215759,37.4280014 L171.0215759,35.3349991 Z M172.6595764,25.5329971 L172.6595764,26.3649979 L169.6045837,26.3649979 L169.6045837,27.1319962 L172.6595764,27.1319962 L172.6595764,28.0289993 L170.0465851,28.0289993 L170.0465851,28.7829971 L172.6595764,28.7829971 L172.6595764,29.6539993 L169.2145844,29.6539993 L169.2145844,29.7450027 C169.0065918,29.0039978 168.7595825,28.3409958 168.499588,27.7559967 L167.8235779,27.9639969 C168.1485901,28.7180023 168.4215851,29.5110016 168.6295776,30.3300018 L169.2145844,30.1869965 L169.2145844,30.4339981 L176.9885864,30.4339981 L176.9885864,29.6539993 L173.5955811,29.6539993 L173.5955811,28.7829971 L176.1825867,28.7829971 L176.1825867,28.0289993 L173.5955811,28.0289993 L173.5955811,27.1319962 L176.6115875,27.1319962 L176.6115875,26.3649979 L173.5955811,26.3649979 L173.5955811,25.5329971 L172.6595764,25.5329971 Z M165.4315796,28.0419998 C165.4055786,29.2900009 165.2625885,30.4860001 165.002594,31.6169968 L165.7175903,31.8119965 C165.9775848,30.6419983 166.1335907,29.4069977 166.1595764,28.0940018 L165.4315796,28.0419998 Z M166.7575836,25.5719986 L166.7575836,37.4020004 L167.6675873,37.4020004 L167.6675873,25.5719986 L166.7575836,25.5719986 Z M182.8125916,30.7590027 C182.3185883,31.0189972 181.824585,31.2529984 181.3175964,31.473999 L181.3175964,28.8219986 L182.7735901,28.8219986 L182.7735901,27.9250031 L181.3175964,27.9250031 L181.3175964,25.5719986 L180.3945923,25.5719986 L180.3945923,27.9250031 L178.5095825,27.9250031 L178.5095825,28.8219986 L180.3945923,28.8219986 L180.3945923,31.8379974 C179.7185974,32.0719986 179.0295868,32.2799988 178.3145905,32.4489975 L178.548584,33.3720016 C179.1725769,33.177002 179.7965851,32.9690018 180.3945923,32.7480011 L180.3945923,36.0240021 C180.3945923,36.3880005 180.2125854,36.5830002 179.8615875,36.5830002 C179.5105896,36.5830002 179.1465759,36.5569992 178.7695923,36.5179977 L178.9775848,37.4150009 L180.1865845,37.4150009 C180.9405823,37.4150009 181.3175964,37.0250015 181.3175964,36.2450027 L181.3175964,32.3710022 C181.824585,32.163002 182.3185883,31.9290009 182.8125916,31.6819992 L182.8125916,30.7590027 Z M184.4115906,31.5780029 L185.1655884,31.5780029 C185.3735962,32.8259964 185.9195862,33.9830017 186.8165894,35.048996 C186.2445831,35.6989975 185.5425873,36.2320023 184.7105865,36.6480026 L185.1655884,37.4670029 C186.0495911,37.0250015 186.8165894,36.4400024 187.4405823,35.7249985 C188.0385895,36.322998 188.7795868,36.8819962 189.6375885,37.4280014 L190.2615814,36.7129974 C189.351593,36.2060013 188.5845947,35.659996 187.9605865,35.0619965 C188.6365814,34.086998 189.0915833,32.9039993 189.351593,31.526001 L189.351593,30.7200012 L184.4115906,30.7200012 L184.4115906,26.923996 L188.3375854,26.923996 C188.3115845,27.7299957 188.2595825,28.2630005 188.1685791,28.5100021 C188.0775909,28.6660004 187.9605865,28.7569962 187.8175964,28.8089981 C187.6615906,28.8349991 187.4145813,28.8610001 187.1025848,28.8610001 C186.7905884,28.8610001 186.5435791,28.8479996 186.3355865,28.8479996 L186.5955811,29.6669998 L187.5315857,29.6669998 C188.3635864,29.6669998 188.8575897,29.4199982 189.0135803,28.9519958 C189.1565857,28.4710007 189.2345886,27.5090027 189.2345886,26.0660019 L183.5275879,26.0660019 L183.5275879,37.4540024 L184.4115906,37.4540024 L184.4115906,31.5780029 Z M186.0105896,31.5780029 L188.4545898,31.5780029 C188.2205811,32.6439972 187.8435822,33.5800018 187.3235779,34.3730011 C186.621582,33.5279999 186.1925964,32.5920029 186.0105896,31.5780029 Z M190.7815857,36.1539993" style="fill:rgb(23,55,94);stroke:none" clip-path="url(#clip10)" />
<clipPath id="clip11"><path d="M215,14 L486,14 L486,49 L215,49 L215,14 Z" /></clipPath>
<path d="M216,15 L216,47 L484,47 L484,15 Z M216,15" style="fill:rgb(217,217,217);stroke:none" clip-path="url(#clip11)" />
<clipPath id="clip12"><path d="M227,21 L474,21 L474,42 L227,42 L227,21 Z" /></clipPath>
<path d="M233.5982971,36.3193436 C234.1992188,36.3193436 234.7334747,36.2040253 235.2010803,35.9733963 C235.6687012,35.7427673 236.0368652,35.426445 236.3055725,35.0244217 C236.574295,34.6223984 236.7086487,34.1674881 236.7086487,33.6596756 L236.7086487,33.6469803 C236.7086487,32.995285 236.5076447,32.471611 236.1056213,32.0759354 C235.7036133,31.6802597 235.1788788,31.4549255 234.5314026,31.39991 L234.5314026,31.3745193 C234.8995819,31.2941132 235.2254181,31.1565857 235.5089417,30.9619217 C235.7924805,30.7672577 236.0146484,30.5239334 236.1754456,30.2319412 C236.3362579,29.939949 236.4166565,29.6056442 236.4166565,29.2290115 L236.4166565,29.2163162 C236.4166565,28.7508163 236.2992401,28.3414001 236.0643616,27.9880447 C235.8294983,27.6346893 235.5004883,27.3575134 235.077301,27.1565018 C234.654129,26.9554901 234.1569061,26.8549881 233.5856018,26.8549881 C233.0270081,26.8549881 232.5340118,26.9586639 232.1065979,27.1660233 C231.6791992,27.3733826 231.3364258,27.6632538 231.0782776,28.0356522 C230.8201447,28.4080505 230.6656799,28.8439178 230.6148987,29.3432693 L230.608551,29.4067459 L231.7066956,29.4067459 L231.7130432,29.3432693 C231.7426758,29.0343475 231.8399963,28.767746 232.0050354,28.5434647 C232.1700745,28.3191833 232.3880157,28.1467361 232.658844,28.0261307 C232.9296875,27.9055252 233.2386017,27.8452225 233.5856018,27.8452225 C233.9453125,27.8452225 234.2510529,27.9044647 234.5028381,28.0229568 C234.7546387,28.141449 234.9461212,28.3128357 235.077301,28.537117 C235.2084961,28.7613983 235.2740784,29.0343475 235.2740784,29.3559647 L235.2740784,29.36866 C235.2740784,29.6733475 235.1979218,29.9452362 235.0455627,30.1843338 C234.893219,30.4234314 234.6826935,30.6117401 234.4139709,30.7492752 C234.1452637,30.8868103 233.8331757,30.955574 233.4776917,30.955574 L232.4176331,30.955574 L232.4176331,31.9204178 L233.5284729,31.9204178 C234.1463165,31.9204178 234.637207,32.071701 235.0011292,32.3742752 C235.3650665,32.6768494 235.5470276,33.1095428 235.5470276,33.6723709 L235.5470276,33.6850662 C235.5470276,34.0066833 235.4655762,34.2912674 235.3026428,34.538826 C235.1397247,34.7863846 234.9122772,34.9799881 234.6202698,35.1196365 C234.3282776,35.259285 233.9876251,35.3291092 233.5982971,35.3291092 C233.2089844,35.3291092 232.86409,35.2645721 232.5636292,35.1355057 C232.2631836,35.0064392 232.0240784,34.8276443 231.846344,34.5991287 C231.6686096,34.3706131 231.5649414,34.1061325 231.5353088,33.8056717 L231.5289612,33.7421951 L230.4308167,33.7421951 L230.4371643,33.818367 C230.4752502,34.3007889 230.627594,34.7303085 230.8941956,35.1069412 C231.1608124,35.4835739 231.5247345,35.7797928 231.9859924,35.9956131 C232.4472656,36.2114334 232.9846954,36.3193436 233.5982971,36.3193436 Z M239.4825745,36.2304764 C239.7111053,36.2304764 239.9057617,36.1490173 240.0665588,35.9860916 C240.2273712,35.8231659 240.3077698,35.6295624 240.3077698,35.4052811 C240.3077698,35.1767654 240.2273712,34.9821014 240.0665588,34.8212967 C239.9057617,34.6604919 239.7111053,34.5800858 239.4825745,34.5800858 C239.2583008,34.5800858 239.0646973,34.6604919 238.9017639,34.8212967 C238.7388458,34.9821014 238.6573792,35.1767654 238.6573792,35.4052811 C238.6573792,35.6295624 238.7388458,35.8231659 238.9017639,35.9860916 C239.0646973,36.1490173 239.2583008,36.2304764 239.4825745,36.2304764 Z M255.3291779,30.8239975 L254.4971771,31.1100006 C254.9651794,32.435997 255.3811798,33.814003 255.7451782,35.2440033 C254.601181,35.4779968 253.223175,35.711998 251.6111755,35.9459991 L254.4581757,25.987999 L253.522171,25.8580017 L250.7141724,35.8160019 C250.6621704,35.9589996 250.5061798,36.0630035 250.2331696,36.1409988 L250.4151764,37.0510025 C252.4171753,36.7649994 254.2631836,36.4530029 255.9661713,36.1149979 C256.0701904,36.5439987 256.1741638,36.9990005 256.2781677,37.4670029 L257.2141724,37.2330017 C256.6551819,34.8280029 256.031189,32.6959991 255.3291779,30.8239975 Z M245.7741699,29.0559998 L245.7741699,29.9530029 L248.0231781,29.9530029 C247.5291748,31.3959961 246.6971741,32.6829987 245.5401764,33.814003 L245.9561768,34.8669968 C246.8401794,33.8529968 247.5551758,32.7350006 248.0881805,31.5 L248.0881805,37.4280014 L249.0371704,37.4280014 L249.0371704,31.3180008 C249.4401703,31.8379974 249.9211731,32.5139999 250.4671783,33.3720016 L250.9871826,32.5790024 C250.3371735,31.7990036 249.6871796,31.0970001 249.0371704,30.4729996 L249.0371704,29.9530029 L251.1431732,29.9530029 L251.1431732,29.0559998 L249.0371704,29.0559998 L249.0371704,26.9889984 C249.7651825,26.8460007 250.4671783,26.6900024 251.1171722,26.5080032 L250.7921753,25.637001 C249.3621826,26.0530014 247.7111816,26.3389969 245.8521729,26.4950027 L246.0471802,27.3919983 C246.749176,27.3270035 247.4381714,27.2490005 248.0881805,27.1449966 L248.0881805,29.0559998 L245.7741699,29.0559998 Z M262.7261658,30.2259979 L267.8871765,30.2259979 L267.8871765,31.6429977 L262.7261658,31.6429977 L262.7261658,30.2259979 Z M267.8871765,32.461998 L267.8871765,33.8399963 L262.7261658,33.8399963 L262.7261658,32.461998 L267.8871765,32.461998 Z M267.8871765,34.6589966 L267.8871765,36.1409988 C267.8871765,36.4530029 267.7181702,36.6090012 267.380188,36.6090012 C266.9511719,36.6090012 266.4831848,36.5830002 265.9891663,36.5569992 L266.223175,37.4150009 L267.6791687,37.4150009 C268.4071655,37.3889999 268.7711792,37.064003 268.7711792,36.427002 L268.7711792,29.4069977 L262.7391663,29.4069977 C263.051178,28.9260025 263.3241882,28.4189987 263.5841675,27.8990021 L270.4351807,27.8990021 L270.4351807,26.9889984 L263.9741821,26.9889984 C264.156189,26.5339966 264.3121643,26.0660019 264.4681702,25.5849991 L263.519165,25.4680023 C263.3631897,25.9749985 263.1681824,26.4820023 262.9471741,26.9889984 L259.0731812,26.9889984 L259.0731812,27.8990021 L262.5181885,27.8990021 C261.6211853,29.5759964 260.3601685,31.0579987 258.722168,32.3580017 L259.3331909,33.151001 C260.269165,32.3970032 261.1141663,31.552002 261.8421631,30.6419983 L261.8421631,37.4410019 L262.7261658,37.4410019 L262.7261658,34.6589966 L267.8871765,34.6589966 Z M273.3731689,26.3000031 L273.3731689,27.2099991 L282.6291809,27.2099991 L282.6291809,26.3000031 L273.3731689,26.3000031 Z M272.1251831,29.927002 L272.1251831,30.862999 L276.5061646,30.862999 C275.1411743,33.6319962 274.0361633,35.3219986 273.2041626,35.9459991 C273.1521606,35.9720001 273.0871887,36.0110016 272.9831848,36.0370026 L273.2301636,36.9860001 C276.3501892,36.7779999 279.223175,36.5179977 281.8621826,36.1800003 C282.1091919,36.6480026 282.3301697,37.1029968 282.5381775,37.5579987 L283.3701782,36.9729996 C282.7201843,35.6470032 281.7971802,34.0739975 280.6011658,32.2799988 L279.847168,32.7480011 C280.4191895,33.6319962 280.9391785,34.4899979 281.4071655,35.3219986 C279.0801697,35.6340027 276.7531738,35.8550034 274.4131775,35.9850006 C275.2971802,35.0230026 276.3501892,33.3199997 277.5461731,30.862999 L283.7861633,30.862999 L283.7861633,29.927002 L272.1251831,29.927002 Z M296.5911865,26.8199997 L291.755188,26.8199997 C291.5731812,26.3130035 291.3781738,25.8580017 291.170166,25.4420013 L290.130188,25.6240005 C290.3511658,25.987999 290.5461731,26.3779984 290.7281799,26.8199997 L285.7881775,26.8199997 L285.7881775,29.6019974 L286.7501831,29.6019974 L286.7501831,27.7300034 L295.6291809,27.7300034 L295.6291809,29.6149979 L296.5911865,29.6149979 L296.5911865,26.8199997 Z M285.4761658,30.4339981 L285.4761658,31.3440018 L288.6091919,31.3440018 C288.1931763,32.0589981 287.7511597,32.7870026 287.2831726,33.5149994 C288.4921875,33.9049988 289.7011719,34.3600006 290.9231873,34.8799973 C289.545166,35.9329987 287.7381592,36.4660034 285.5281677,36.4789963 L286.0741882,37.3499985 C288.4921875,37.2720032 290.4161682,36.5960007 291.8721924,35.2959976 C293.2501831,35.9199982 294.6281738,36.6480026 296.0061646,37.4540024 L296.630188,36.6350021 C295.2521667,35.8550034 293.8871765,35.1790009 292.5481873,34.6070023 C293.2371826,33.8010025 293.848175,32.7220001 294.3811646,31.3440018 L296.9421692,31.3440018 L296.9421692,30.4339981 L290.2211914,30.4339981 C290.5331726,29.8619995 290.8581848,29.2509995 291.196167,28.6009979 L290.2341919,28.3150024 C289.8831787,29.0169983 289.5061646,29.7190018 289.1161804,30.4339981 L285.4761658,30.4339981 Z M289.7141724,31.3440018 L293.354187,31.3440018 C292.9121704,32.487999 292.3401794,33.4499969 291.6381836,34.2170029 C290.6111755,33.788002 289.6101685,33.4240036 288.6221924,33.1380005 C288.9601746,32.6179962 289.3241882,32.0199966 289.7141724,31.3440018 Z M304.1181641,25.5849991 C302.6101685,27.2229996 300.7121887,28.6009979 298.4241638,29.7060013 L298.8791809,30.5250015 C301.1801758,29.3679962 303.0391846,28.0029984 304.4561768,26.4300003 C305.9901733,28.0810013 307.8231812,29.4199982 309.9811707,30.4599991 L310.4491882,29.6279984 C308.3171692,28.6399994 306.4321899,27.3010025 304.7941895,25.5849991 L304.1181641,25.5849991 Z M300.8291626,29.6930008 L300.8291626,30.5899963 L303.9751587,30.5899963 L303.9751587,32.8519974 L300.2051697,32.8519974 L300.2051697,33.7490005 L303.9751587,33.7490005 L303.9751587,36.1539993 L299.0481873,36.1539993 L299.0481873,37.0770035 L309.8771667,37.0770035 L309.8771667,36.1539993 L304.9371643,36.1539993 L304.9371643,33.7490005 L308.6941833,33.7490005 L308.6941833,32.8519974 L304.9371643,32.8519974 L304.9371643,30.5899963 L308.0831909,30.5899963 L308.0831909,29.6930008 L300.8291626,29.6930008 Z M313.4651794,34.3470001 L312.880188,34.8929977 C313.3611755,35.2569962 313.8421631,35.685997 314.3231812,36.2060013 C314.7391663,36.6480026 315.1161804,37.0899963 315.4281616,37.5319977 L316.078186,36.9860001 C315.7661743,36.5439987 315.3891602,36.0889969 314.9601746,35.6470032 C314.4661865,35.1269989 313.9591675,34.697998 313.4651794,34.3470001 Z M328.7531738,25.6760025 C327.9211731,28.1589966 326.6991577,30.1350021 325.0741577,31.6169968 L325.8021851,32.2539978 C327.3881836,30.8239975 328.6491699,28.7440033 329.6111755,26.0139999 L328.7531738,25.6760025 Z M333.1861572,32.5660019 L332.3411865,32.8519974 C332.8871765,33.6319962 333.4071655,34.4899979 333.9141846,35.4260025 C332.0551758,35.7249985 330.0661621,35.9459991 327.9471741,36.0759964 C329.0651855,34.6719971 330.1831665,32.7350006 331.301178,30.2649994 L330.3911743,29.9530029 C328.8181763,33.5149994 327.5181885,35.5690002 326.4781799,36.1149979 L326.6471863,37.0250015 C329.4811707,36.8430023 332.0421753,36.5830002 334.3301697,36.2190018 C334.525177,36.6090012 334.7201843,37.0250015 334.9151611,37.4670029 L335.7861938,37.0770035 C335.0581665,35.4779968 334.2001648,33.9700012 333.1861572,32.5660019 Z M332.9911804,25.5849991 L332.1981812,26.0270004 C332.952179,28.5749969 334.3041687,30.6679993 336.2411804,32.2799988 L336.9041748,31.5130005 C335.045166,29.9789963 333.7451782,28.0029984 332.9911804,25.5849991 Z M342.2861938,30.2259979 L347.4471741,30.2259979 L347.4471741,31.6429977 L342.2861938,31.6429977 L342.2861938,30.2259979 Z M347.4471741,32.461998 L347.4471741,33.8399963 L342.2861938,33.8399963 L342.2861938,32.461998 L347.4471741,32.461998 Z M347.4471741,34.6589966 L347.4471741,36.1409988 C347.4471741,36.4530029 347.2781677,36.6090012 346.9401855,36.6090012 C346.5111694,36.6090012 346.0431824,36.5830002 345.5491943,36.5569992 L345.7831726,37.4150009 L347.2391663,37.4150009 C347.9671631,37.3889999 348.3311768,37.064003 348.3311768,36.427002 L348.3311768,29.4069977 L342.2991943,29.4069977 C342.6111755,28.9260025 342.8841858,28.4189987 343.144165,27.8990021 L349.9951782,27.8990021 L349.9951782,26.9889984 L343.5341797,26.9889984 C343.7161865,26.5339966 343.8721924,26.0660019 344.0281677,25.5849991 L343.0791626,25.4680023 C342.9231873,25.9749985 342.7281799,26.4820023 342.5071716,26.9889984 L338.6331787,26.9889984 L338.6331787,27.8990021 L342.078186,27.8990021 C341.1811829,29.5759964 339.920166,31.0579987 338.2821655,32.3580017 L338.8931885,33.151001 C339.8291626,32.3970032 340.6741943,31.552002 341.4021606,30.6419983 L341.4021606,37.4410019 L342.2861938,37.4410019 L342.2861938,34.6589966 L347.4471741,34.6589966 Z M352.9331665,26.3000031 L352.9331665,27.2099991 L362.1891785,27.2099991 L362.1891785,26.3000031 L352.9331665,26.3000031 Z M351.6851807,29.927002 L351.6851807,30.862999 L356.0661621,30.862999 C354.7011719,33.6319962 353.5961914,35.3219986 352.7641602,35.9459991 C352.7121582,35.9720001 352.6471863,36.0110016 352.5431824,36.0370026 L352.7901611,36.9860001 C355.9101868,36.7779999 358.7831726,36.5179977 361.4221802,36.1800003 C361.6691895,36.6480026 361.8901672,37.1029968 362.098175,37.5579987 L362.9301758,36.9729996 C362.2801819,35.6470032 361.3571777,34.0739975 360.1611938,32.2799988 L359.4071655,32.7480011 C359.979187,33.6319962 360.499176,34.4899979 360.9671631,35.3219986 C358.6401672,35.6340027 356.3131714,35.8550034 353.973175,35.9850006 C354.8571777,35.0230026 355.9101868,33.3199997 357.1061707,30.862999 L363.3461914,30.862999 L363.3461914,29.927002 L351.6851807,29.927002 Z M376.1511841,26.8199997 L371.3151855,26.8199997 C371.1331787,26.3130035 370.9381714,25.8580017 370.7301636,25.4420013 L369.6901855,25.6240005 C369.9111938,25.987999 370.1061707,26.3779984 370.2881775,26.8199997 L365.348175,26.8199997 L365.348175,29.6019974 L366.3101807,29.6019974 L366.3101807,27.7300034 L375.1891785,27.7300034 L375.1891785,29.6149979 L376.1511841,29.6149979 L376.1511841,26.8199997 Z M365.0361938,30.4339981 L365.0361938,31.3440018 L368.1691895,31.3440018 C367.7531738,32.0589981 367.3111572,32.7870026 366.8431702,33.5149994 C368.0521851,33.9049988 369.2611694,34.3600006 370.4831848,34.8799973 C369.1051636,35.9329987 367.2981873,36.4660034 365.0881653,36.4789963 L365.6341858,37.3499985 C368.0521851,37.2720032 369.9761658,36.5960007 371.4321899,35.2959976 C372.8101807,35.9199982 374.1881714,36.6480026 375.5661621,37.4540024 L376.1901855,36.6350021 C374.8121948,35.8550034 373.4471741,35.1790009 372.1081848,34.6070023 C372.7971802,33.8010025 373.4081726,32.7220001 373.9411621,31.3440018 L376.5021667,31.3440018 L376.5021667,30.4339981 L369.781189,30.4339981 C370.0931702,29.8619995 370.4181824,29.2509995 370.7561646,28.6009979 L369.7941895,28.3150024 C369.4431763,29.0169983 369.0661621,29.7190018 368.676178,30.4339981 L365.0361938,30.4339981 Z M369.2741699,31.3440018 L372.9141846,31.3440018 C372.472168,32.487999 371.900177,33.4499969 371.1981812,34.2170029 C370.1711731,33.788002 369.170166,33.4240036 368.1821899,33.1380005 C368.5201721,32.6179962 368.8841858,32.0199966 369.2741699,31.3440018 Z M383.6781616,25.5849991 C382.170166,27.2229996 380.2721558,28.6009979 377.9841919,29.7060013 L378.4391785,30.5250015 C380.7401733,29.3679962 382.5991821,28.0029984 384.0161743,26.4300003 C385.5501709,28.0810013 387.3831787,29.4199982 389.5411682,30.4599991 L390.0091553,29.6279984 C387.8771973,28.6399994 385.9921875,27.3010025 384.354187,25.5849991 L383.6781616,25.5849991 Z M380.3891602,29.6930008 L380.3891602,30.5899963 L383.5351563,30.5899963 L383.5351563,32.8519974 L379.7651978,32.8519974 L379.7651978,33.7490005 L383.5351563,33.7490005 L383.5351563,36.1539993 L378.6081543,36.1539993 L378.6081543,37.0770035 L389.4371948,37.0770035 L389.4371948,36.1539993 L384.4971924,36.1539993 L384.4971924,33.7490005 L388.2541809,33.7490005 L388.2541809,32.8519974 L384.4971924,32.8519974 L384.4971924,30.5899963 L387.6431885,30.5899963 L387.6431885,29.6930008 L380.3891602,29.6930008 Z M393.025177,34.3470001 L392.4401855,34.8929977 C392.9211731,35.2569962 393.4021606,35.685997 393.8831787,36.2060013 C394.2991943,36.6480026 394.676178,37.0899963 394.9881592,37.5319977 L395.6381836,36.9860001 C395.3261719,36.5439987 394.9491577,36.0889969 394.5201721,35.6470032 C394.0261841,35.1269989 393.519165,34.697998 393.025177,34.3470001 Z M413.2791748,33.788002 C414.3451538,33.5930023 415.2941895,33.3069992 416.1261597,32.9169998 L415.827179,32.1240005 C415.0731812,32.5009995 414.2281799,32.7870026 413.2791748,32.9690018 L413.2791748,31.473999 L412.3951721,31.473999 L412.3951721,36.1800003 C412.3951721,36.9079971 412.7981567,37.284996 413.604187,37.284996 L414.9951782,37.284996 C415.4371948,37.284996 415.7621765,37.1940002 415.9701538,37.012001 C416.2041626,36.7779999 416.3601685,36.1539993 416.4511719,35.1139984 L415.6321716,34.8669968 C415.5801697,35.6210022 415.4891968,36.0889969 415.3591919,36.2450027 C415.255188,36.375 415.0861816,36.4400024 414.8391724,36.4400024 L413.8641968,36.4400024 C413.4741821,36.4400024 413.2791748,36.2839966 413.2791748,35.9980011 L413.2791748,33.788002 Z M405.6221924,25.7539978 L404.9591675,26.3909988 C405.999176,27.0800018 406.8311768,27.7300034 407.4291687,28.3280029 L408.0921631,27.6650009 C407.4161682,27.0279999 406.597168,26.3909988 405.6221924,25.7539978 Z M405.2971802,28.887001 L404.6341553,29.5240021 C405.5831909,30.1740036 406.3371582,30.7979965 406.8831787,31.3700027 L407.5461731,30.7070007 C406.9351807,30.0960007 406.1811829,29.4850006 405.2971802,28.887001 Z M406.8961792,32.3710022 C406.2981567,33.9309998 405.5831909,35.4520035 404.7641602,36.9339981 L405.6741943,37.336998 C406.4151611,35.8809967 407.0911865,34.3339996 407.702179,32.6829987 L406.8961792,32.3710022 Z M408.7161865,26.0270004 L408.7161865,30.8499985 L415.1771851,30.8499985 L415.1771851,26.0270004 L408.7161865,26.0270004 Z M414.2801819,30.0699997 L409.6001587,30.0699997 L409.6001587,28.8219986 L414.2801819,28.8219986 L414.2801819,30.0699997 Z M409.6001587,28.0550003 L409.6001587,26.8069992 L414.2801819,26.8069992 L414.2801819,28.0550003 L409.6001587,28.0550003 Z M409.5091553,33.762001 L411.8101807,33.762001 L411.8101807,32.9300003 L409.5091553,32.9300003 L409.5091553,31.4609985 L408.6251831,31.4609985 L408.6251831,35.9199982 C408.6251831,36.2060013 408.4691772,36.4140015 408.1831665,36.5309982 L408.4301758,37.3239975 C409.7431641,37.1419983 410.8871765,36.9209976 411.8491821,36.6740036 L411.6801758,35.8420029 C411.0561829,36.0110016 410.3411865,36.1669998 409.5091553,36.322998 L409.5091553,33.762001 Z M423.4581909,25.5329971 C421.9241943,27.3399963 420.0131836,28.8479996 417.6991577,30.0699997 L418.1931763,30.9670029 C420.5071716,29.6669998 422.3791809,28.1459961 423.7961731,26.3779984 C425.3301697,28.25 427.176178,29.7709961 429.347168,30.9410019 L429.854187,30.0439987 C427.696167,28.9520035 425.7851563,27.4440002 424.1341553,25.5329971 L423.4581909,25.5329971 Z M427.9041748,32.2149963 L419.6881714,32.2149963 L419.6881714,37.4540024 L420.598175,37.4540024 L420.598175,36.6740036 L426.9941711,36.6740036 L426.9941711,37.4540024 L427.9041748,37.4540024 L427.9041748,32.2149963 Z M420.598175,35.7770004 L420.598175,33.098999 L426.9941711,33.098999 L426.9941711,35.7770004 L420.598175,35.7770004 Z M420.4161682,29.6669998 L420.4161682,30.564003 L427.176178,30.564003 L427.176178,29.6669998 L420.4161682,29.6669998 Z M432.4931641,26.3000031 L432.4931641,27.2099991 L441.749176,27.2099991 L441.749176,26.3000031 L432.4931641,26.3000031 Z M431.2451782,29.927002 L431.2451782,30.862999 L435.6261597,30.862999 C434.2611694,33.6319962 433.156189,35.3219986 432.3241577,35.9459991 C432.2721558,35.9720001 432.2071533,36.0110016 432.1031799,36.0370026 L432.3501587,36.9860001 C435.4701538,36.7779999 438.3431702,36.5179977 440.9821777,36.1800003 C441.229187,36.6480026 441.4501953,37.1029968 441.6581726,37.5579987 L442.4901733,36.9729996 C441.8401794,35.6470032 440.9171753,34.0739975 439.7211914,32.2799988 L438.9671631,32.7480011 C439.5391846,33.6319962 440.0591736,34.4899979 440.5271606,35.3219986 C438.2001953,35.6340027 435.8731689,35.8550034 433.5331726,35.9850006 C434.4171753,35.0230026 435.4701538,33.3199997 436.6661682,30.862999 L442.906189,30.862999 L442.906189,29.927002 L431.2451782,29.927002 Z M455.7111816,26.8199997 L450.8751831,26.8199997 C450.6931763,26.3130035 450.4981689,25.8580017 450.2901611,25.4420013 L449.2501831,25.6240005 C449.4711914,25.987999 449.6661682,26.3779984 449.848175,26.8199997 L444.9081726,26.8199997 L444.9081726,29.6019974 L445.8701782,29.6019974 L445.8701782,27.7300034 L454.749176,27.7300034 L454.749176,29.6149979 L455.7111816,29.6149979 L455.7111816,26.8199997 Z M444.5961914,30.4339981 L444.5961914,31.3440018 L447.729187,31.3440018 C447.3131714,32.0589981 446.8711548,32.7870026 446.4031982,33.5149994 C447.6121826,33.9049988 448.821167,34.3600006 450.0431824,34.8799973 C448.6651611,35.9329987 446.8581543,36.4660034 444.6481934,36.4789963 L445.1941833,37.3499985 C447.6121826,37.2720032 449.5361938,36.5960007 450.9921875,35.2959976 C452.3701782,35.9199982 453.7481689,36.6480026 455.1261597,37.4540024 L455.7501831,36.6350021 C454.3721924,35.8550034 453.0071716,35.1790009 451.6681824,34.6070023 C452.3571777,33.8010025 452.9681702,32.7220001 453.5011597,31.3440018 L456.0621948,31.3440018 L456.0621948,30.4339981 L449.3411865,30.4339981 C449.6531982,29.8619995 449.9781799,29.2509995 450.3161621,28.6009979 L449.354187,28.3150024 C449.0031738,29.0169983 448.6261597,29.7190018 448.2361755,30.4339981 L444.5961914,30.4339981 Z M448.8341675,31.3440018 L452.4741821,31.3440018 C452.0321655,32.487999 451.4601746,33.4499969 450.7581787,34.2170029 C449.7311707,33.788002 448.7301636,33.4240036 447.7421875,33.1380005 C448.0801697,32.6179962 448.4441833,32.0199966 448.8341675,31.3440018 Z M463.2381592,25.5849991 C461.7301636,27.2229996 459.8321533,28.6009979 457.5441895,29.7060013 L457.999176,30.5250015 C460.3001709,29.3679962 462.1591797,28.0029984 463.5761719,26.4300003 C465.1101685,28.0810013 466.9431763,29.4199982 469.1011963,30.4599991 L469.5691833,29.6279984 C467.4371948,28.6399994 465.5521851,27.3010025 463.9141846,25.5849991 L463.2381592,25.5849991 Z M459.9491577,29.6930008 L459.9491577,30.5899963 L463.0951538,30.5899963 L463.0951538,32.8519974 L459.3251953,32.8519974 L459.3251953,33.7490005 L463.0951538,33.7490005 L463.0951538,36.1539993 L458.1681824,36.1539993 L458.1681824,37.0770035 L468.9971924,37.0770035 L468.9971924,36.1539993 L464.0571899,36.1539993 L464.0571899,33.7490005 L467.8141785,33.7490005 L467.8141785,32.8519974 L464.0571899,32.8519974 L464.0571899,30.5899963 L467.203186,30.5899963 L467.203186,29.6930008 L459.9491577,29.6930008 Z M470.0761719,36.1669998" style="fill:rgb(23,55,94);stroke:none" clip-path="url(#clip12)" />
</svg>
