<?xml version="1.0" encoding="UTF-8"?>
<!DOCTYPE svg PUBLIC "-//W3C//DTD SVG 1.1//EN" "http://www.w3.org/Graphics/SVG/1.1/DTD/svg11.dtd">
<svg version="1.2" xmlns="http://www.w3.org/2000/svg" xmlns:xlink="http://www.w3.org/1999/xlink" x="0" y="0" width="376" height="250" viewBox="0 0 376 250">
<style type="text/css"><![CDATA[
text { font:12px Dialog; }
]]></style>
<rect x="-1060" y="-1094" width="2692" height="2440" style="fill:rgb(255,255,255);stroke:none" />
<clipPath id="clip1"><path d="M15,15 L361,15 L361,235 L15,235 Z M26,95 C21.5817184,95 18,98.5817184 18,103 L18,144 C18,148.4182739 21.5817184,152 26,152 L153,152 C157.4182739,152 161,148.4182739 161,144 L161,103 C161,98.5817184 157.4182739,95 153,95 Z M26,95" /></clipPath>
<path d="M170.9998779,123.9054718 L170.9998779,40.8743744 C170.9998779,36.458374 174.5838776,32.8743744 178.9998779,32.8743744 L197,32.8743744" style="fill:none;stroke:rgb(3,3,3)" clip-path="url(#clip1)" />
<clipPath id="clip2"><path d="M15,15 L361,15 L361,235 L15,235 Z M26,95 C21.5817184,95 18,98.5817184 18,103 L18,144 C18,148.4182739 21.5817184,152 26,152 L153,152 C157.4182739,152 161,148.4182739 161,144 L161,103 C161,98.5817184 157.4182739,95 153,95 Z M26,95" /></clipPath>
<path d="M170.9998779,123.9054718 L170.9998779,86.8743744 C170.9998779,82.458374 174.5838776,78.8743744 178.9998779,78.8743744 L197,78.8743744" style="fill:none;stroke:rgb(3,3,3)" clip-path="url(#clip2)" />
<clipPath id="clip3"><path d="M15,15 L361,15 L361,235 L15,235 Z M26,95 C21.5817184,95 18,98.5817184 18,103 L18,144 C18,148.4182739 21.5817184,152 26,152 L153,152 C157.4182739,152 161,148.4182739 161,144 L161,103 C161,98.5817184 157.4182739,95 153,95 Z M26,95" /></clipPath>
<path d="M170.9998779,123.9054718 C170.9998779,124.4213333 174.5838776,124.8399963 178.9998779,124.8399963 L197,124.8399963" style="fill:none;stroke:rgb(3,3,3)" clip-path="url(#clip3)" />
<clipPath id="clip4"><path d="M15,15 L361,15 L361,235 L15,235 Z M26,95 C21.5817184,95 18,98.5817184 18,103 L18,144 C18,148.4182739 21.5817184,152 26,152 L153,152 C157.4182739,152 161,148.4182739 161,144 L161,103 C161,98.5817184 157.4182739,95 153,95 Z M26,95" /></clipPath>
<path d="M170.9998779,123.9054718 L170.9998779,162.8399963 C170.9998779,167.2559967 174.5838776,170.8399963 178.9998779,170.8399963 L197,170.8399963" style="fill:none;stroke:rgb(3,3,3)" clip-path="url(#clip4)" />
<clipPath id="clip5"><path d="M15,15 L361,15 L361,235 L15,235 Z M26,95 C21.5817184,95 18,98.5817184 18,103 L18,144 C18,148.4182739 21.5817184,152 26,152 L153,152 C157.4182739,152 161,148.4182739 161,144 L161,103 C161,98.5817184 157.4182739,95 153,95 Z M26,95" /></clipPath>
<path d="M170.9998779,123.9054718 L170.9998779,208.9049988 C170.9998779,213.3209991 174.5838776,216.9049988 178.9998779,216.9049988 L197,216.9049988" style="fill:none;stroke:rgb(3,3,3)" clip-path="url(#clip5)" />
<clipPath id="clip6"><path d="M14,14 L362,14 L362,236 L14,236 L14,14 Z" /></clipPath>
<path d="M161,123.8557205 L170.9998779,123.9054718" style="fill:none;stroke:rgb(3,3,3)" clip-path="url(#clip6)" />
<clipPath id="clip7"><path d="M14,91 L166,91 L166,157 L14,157 L14,91 Z" /></clipPath>
<path d="M26,95 C21.5817184,95 18,98.5817184 18,103 L18,144 C18,148.4182739 21.5817184,152 26,152 L153,152 C157.4182739,152 161,148.4182739 161,144 L161,103 C161,98.5817184 157.4182739,95 153,95 Z M26,95" style="fill:rgb(247,150,70);stroke:none" clip-path="url(#clip7)" />
<clipPath id="clip8"><path d="M14,91 L166,91 L166,157 L14,157 L14,91 Z" /></clipPath>
<path d="M26,95 C21.5817184,95 18,98.5817184 18,103 L18,144 C18,148.4182739 21.5817184,152 26,152 L153,152 C157.4182739,152 161,148.4182739 161,144 L161,103 C161,98.5817184 157.4182739,95 153,95 Z M26,95" style="fill:none;stroke:rgb(255,255,255);stroke-width:5" clip-path="url(#clip8)" />
<clipPath id="clip9"><path d="M50,111 L130,111 L130,137 L50,137 L50,111 Z" /></clipPath>
<path d="M70.0919952,117.2860031 L63.3419991,117.2860031 C63.0900002,116.6380005 62.855999,116.0619965 62.6040001,115.5400009 L60.4799995,115.9000015 C60.75,116.3320007 61.0019989,116.7819977 61.2180023,117.2860031 L54.5579987,117.2860031 L54.5579987,121.4260025 L56.4659996,121.4260025 L56.4659996,119.1039963 L68.1839981,119.1039963 L68.1839981,121.4440002 L70.0919952,121.4440002 L70.0919952,117.2860031 Z M54.3419991,122.2720032 L54.3419991,124.0719986 L58.302002,124.0719986 C57.762001,125.0439987 57.1860008,125.9980011 56.5740013,126.9700012 C58.1759987,127.473999 59.7779999,128.0679932 61.3619995,128.7339935 C59.5620003,129.9940033 57.2039986,130.6239929 54.2879982,130.6239929 L55.3859978,132.3699951 C58.6439972,132.2799988 61.2900009,131.3619995 63.3239975,129.5979919 C65.1600037,130.4259949 66.9779968,131.3800049 68.7959976,132.4599915 L70.0739975,130.8040009 C68.2200012,129.7960052 66.4199982,128.9320068 64.673996,128.1940002 C65.4840012,127.1500015 66.2399979,125.7819977 66.9420013,124.0719986 L70.3619995,124.0719986 L70.3619995,122.2720032 L61.5240021,122.2720032 L62.6579971,120.1119995 L60.7139969,119.5179977 C60.2639999,120.4179993 59.7959976,121.3359985 59.2919998,122.2720032 L54.3419991,122.2720032 Z M60.5159988,124.0719986 L64.8720016,124.0719986 C64.3320007,125.3679962 63.6479988,126.5019989 62.8199997,127.4379959 C61.5960007,126.9700012 60.3899994,126.5559998 59.2200012,126.2320023 C59.6159973,125.6019974 60.0480003,124.8819962 60.5159988,124.0719986 Z M80.0100021,115.6480026 C77.9219971,117.8440018 75.3119965,119.6620026 72.1800003,121.1380005 L73.0979996,122.8119965 C73.9980011,122.3799973 74.8440018,121.9120026 75.6539993,121.4079971 L75.6539993,123.0459976 L79.7220001,123.0459976 L79.7220001,125.5660019 L74.6999969,125.5660019 L74.6999969,127.3840027 L79.7220001,127.3840027 L79.7220001,130.0480042 L73.0979996,130.0480042 L73.0979996,131.8840027 L88.2720032,131.8840027 L88.2720032,130.0480042 L81.6299973,130.0480042 L81.6299973,127.3840027 L86.6340027,127.3840027 L86.6340027,125.5660019 L81.6299973,125.5660019 L81.6299973,123.0459976 L85.697998,123.0459976 L85.697998,121.4260025 C86.4899979,121.9120026 87.3180008,122.3619995 88.1819992,122.776001 L89.1179962,121.1019974 C86.1839981,119.7699966 83.5920029,117.9519958 81.3420029,115.6480026 L80.0100021,115.6480026 Z M75.9420013,121.2279968 C77.7779999,120.0759964 79.3619995,118.7799988 80.6760025,117.3580017 C82.0439987,118.8160019 83.6100006,120.1119995 85.3919983,121.2279968 L75.9420013,121.2279968 Z M91.3860016,116.8720016 L91.3860016,118.4380035 L94.3560028,118.4380035 L94.3560028,123.9459991 L91.1159973,123.9459991 L91.1159973,125.5660019 L94.4100037,125.5660019 C93.6179962,126.3399963 92.447998,126.987999 90.9000015,127.5279999 L91.8539963,129.1119995 C92.9160004,128.5899963 93.8339996,128.0139923 94.6259995,127.3659973 L94.6259995,128.8059998 L98.0999985,128.8059998 L98.0999985,130.0480042 L92.0159988,130.0480042 L92.0159988,131.776001 L105.8939972,131.776001 L105.8939972,130.0480042 L99.935997,130.0480042 L99.935997,128.8059998 L103.3740005,128.8059998 L103.3740005,127.3479996 C104.1839981,128.0319977 105.1920013,128.6260071 106.397995,129.147995 L107.1719971,127.5279999 C105.6240005,127.0419998 104.435997,126.3939972 103.6080017,125.5660019 L106.9020004,125.5660019 L106.9020004,123.9459991 L103.6620026,123.9459991 L103.6620026,118.4380035 L106.6320038,118.4380035 L106.6320038,116.8720016 L103.6620026,116.8720016 L103.6620026,115.6839981 L101.8259964,115.6839981 L101.8259964,116.8720016 L96.1920013,116.8720016 L96.1920013,115.6839981 L94.3560028,115.6839981 L94.3560028,116.8720016 L91.3860016,116.8720016 Z M94.8600006,127.1500015 C95.4179993,126.6459961 95.8860016,126.1240005 96.2819977,125.5660019 L101.7360001,125.5660019 C102.0960007,126.1060028 102.5639954,126.6459961 103.1399994,127.1500015 L99.935997,127.1500015 L99.935997,125.961998 L98.0999985,125.961998 L98.0999985,127.1500015 L94.8600006,127.1500015 Z M96.1920013,123.9459991 L96.1920013,123.0999985 L101.8259964,123.0999985 L101.8259964,123.9459991 L96.1920013,123.9459991 Z M96.1920013,121.659996 L96.1920013,120.7959976 L101.8259964,120.7959976 L101.8259964,121.659996 L96.1920013,121.659996 Z M96.1920013,119.3560028 L96.1920013,118.4380035 L101.8259964,118.4380035 L101.8259964,119.3560028 L96.1920013,119.3560028 Z M115.5059967,128.4100037 C113.723999,129.0579987 111.6360016,129.5619965 109.2600021,129.9579926 L109.4940033,131.7940063 C111.7440033,131.3800049 113.7420044,130.8399963 115.5059967,130.173996 L115.5059967,128.4100037 Z M111.923996,115.5759964 C111.3300018,117.5019989 110.6279984,119.2659988 109.8180008,120.8860016 C109.5839996,121.2099991 109.3320007,121.4440002 109.0439987,121.5699997 L109.4940033,123.2799988 L112.0500031,122.9379959 C111.276001,124.3059998 110.6279984,125.2779999 110.1240005,125.8180008 C109.8899994,126.0339966 109.6019974,126.2139969 109.2779999,126.3580017 L109.7639999,128.0500031 C111.5100021,127.8339996 113.3639984,127.3840027 115.326004,126.7180023 L115.326004,125.0439987 C114.1920013,125.4400024 113.076004,125.7460022 111.9779968,125.9799957 C112.9499969,124.6839981 114.1559982,122.685997 115.5599976,119.9680023 L113.8860016,119.3199997 C113.5619965,120.0039978 113.237999,120.6340027 112.9499969,121.2460022 L111.2220001,121.461998 C112.0680008,120.1299973 112.8959961,118.4020004 113.723999,116.2959976 L111.923996,115.5759964 Z M124.2720032,118.6900024 L120.0599976,119.2839966 L120.0599976,115.6839981 L118.1699982,115.6839981 L118.1699982,119.5360031 L115.6139984,119.8959961 L115.8840027,121.6240005 L118.2060013,121.3000031 C118.2420044,121.947998 118.2779999,122.5960007 118.3499985,123.2080002 L115.3079987,123.6940002 L115.5780029,125.4580002 L118.6019974,124.9899979 C118.6559982,125.3499985 118.7279968,125.7099991 118.8180008,126.0699997 C119.0159988,126.9339981 119.2679977,127.7440033 119.5919952,128.4819946 C118.3320007,129.3999939 116.9100037,130.102005 115.326004,130.6060028 L116.423996,132.1179962 C117.8460007,131.6860046 119.1959991,131.0200043 120.4560013,130.1199951 C120.5279999,130.2460022 120.6360016,130.371994 120.7440033,130.5160065 C121.5540009,131.595993 122.4179993,132.1539917 123.3540039,132.1719971 C124.397995,132.1719971 125.1719971,131.0200043 125.711998,128.7160034 L124.1100006,127.6719971 C123.8580017,129.2919922 123.5339966,130.102005 123.1380005,130.102005 C122.7420044,130.102005 122.3099976,129.723999 121.8239975,129.0039978 C122.8139954,128.0859985 123.75,126.987999 124.6320038,125.7099991 L123.1380005,124.7019958 C122.5079956,125.6380005 121.8059998,126.5019989 121.0319977,127.2580032 C120.8160019,126.6100006 120.6360016,125.8899994 120.4920044,125.0800018 C120.4560013,124.9540024 120.4380035,124.8280029 120.4380035,124.7019958 L125.0460052,123.9820023 L124.7579956,122.2180023 L120.2220001,122.9199982 C120.1500015,122.3259964 120.1139984,121.6959991 120.0960007,121.0299988 L124.5419998,120.4179993 L124.2720032,118.6900024 Z M122.076004,115.6119995 L120.6539993,116.512001 C121.4639969,117.3219986 122.1119995,118.0599976 122.5800018,118.7259979 L124.0559998,117.6999969 C123.5879974,117.1240005 122.9219971,116.4219971 122.076004,115.6119995 Z M126.3600006,130.4799957" style="fill:rgb(55,96,146);stroke:none" clip-path="url(#clip9)" />
<clipPath id="clip10"><path d="M195,14 L349,14 L349,52 L195,52 L195,14 Z" /></clipPath>
<path d="M202,16 C199.2385712,16 197,18.2385712 197,21 L197,44 C197,46.7614288 199.2385712,49 202,49 L341,49 C343.7614136,49 346,46.7614288 346,44 L346,21 C346,18.2385712 343.7614136,16 341,16 Z M202,16" style="fill:rgb(217,217,217);stroke:none" clip-path="url(#clip10)" />
<clipPath id="clip11"><path d="M195,14 L349,14 L349,52 L195,52 L195,14 Z" /></clipPath>
<path d="M202,16 C199.2385712,16 197,18.2385712 197,21 L197,44 C197,46.7614288 199.2385712,49 202,49 L341,49 C343.7614136,49 346,46.7614288 346,44 L346,21 C346,18.2385712 343.7614136,16 341,16 Z M202,16" style="fill:none;stroke:rgb(255,255,255);stroke-width:2" clip-path="url(#clip11)" />
<clipPath id="clip12"><path d="M209,23 L335,23 L335,43 L209,43 L209,23 Z" /></clipPath>
<path d="M214.2675018,31.4919968 L216.3605042,31.4919968 L216.3605042,33.663002 L214.2675018,33.663002 L214.2675018,31.4919968 Z M216.3605042,30.6470032 L214.2675018,30.6470032 L214.2675018,28.4499969 L216.3605042,28.4499969 L216.3605042,30.6470032 Z M214.2545013,34.5080032 L216.3605042,34.5080032 L216.3605042,37.4459991 C216.3605042,37.9140015 216.1914978,38.1480026 215.8665009,38.1480026 C215.5545044,38.1480026 215.2295074,38.1220016 214.865509,38.0960007 L215.0865021,38.9280014 L216.1264954,38.9280014 C216.8545074,38.9280014 217.2185059,38.5250015 217.2185059,37.7450027 L217.2185059,27.6050034 L213.4225159,27.6050034 L213.4225159,33.8450012 C213.4095154,35.6650009 213.1495056,37.1729965 212.6295013,38.3430023 L213.3315125,38.9929962 C213.864502,37.822998 214.1765137,36.3280029 214.2545013,34.5080032 Z M219.1945038,33.2210007 L219.5065002,33.2210007 C219.792511,34.4950027 220.3515015,35.6389999 221.1835022,36.6529999 C220.6634979,37.2770004 220.039505,37.7839966 219.2985077,38.1869965 L219.792511,38.9410019 C220.5725098,38.5250015 221.2355042,37.9919968 221.8075104,37.3290024 C222.4055023,37.9140015 223.1074982,38.4469986 223.9394989,38.9280014 L224.4075012,38.1350021 C223.614502,37.6800003 222.9255066,37.1729965 222.3404999,36.6009979 C222.9385071,35.6650009 223.3675079,34.5209961 223.614502,33.1819992 L223.614502,32.3889999 L219.1945038,32.3889999 L219.1945038,28.4499969 L222.6655121,28.4499969 C222.6395111,29.4380035 222.5875092,30.0749969 222.4965057,30.3610001 C222.4185028,30.5559998 222.3014984,30.685997 222.1455078,30.737999 C221.989502,30.7770004 221.7685089,30.8030014 221.4564972,30.8030014 C221.0924988,30.8030014 220.8065033,30.7900009 220.5855103,30.7900009 L220.8325043,31.5960007 L221.885498,31.5960007 C222.7044983,31.5960007 223.1855011,31.322998 223.341507,30.7900009 C223.4974976,30.2699966 223.5755005,29.2040024 223.5755005,27.5920029 L218.3105011,27.5920029 L218.3105011,38.9800034 L219.1945038,38.9800034 L219.1945038,33.2210007 Z M220.3125,33.2210007 L222.7825012,33.2210007 C222.5485077,34.2480011 222.1975098,35.1449966 221.716507,35.9250031 C221.0534973,35.1190033 220.5855103,34.2220001 220.3125,33.2210007 Z M229.6334991,27.0069962 C229.0875092,28.3069992 228.0214996,29.3990021 226.4615021,30.2959976 L227.0335083,31.0500031 C227.6315002,30.685997 228.164505,30.2829971 228.6585083,29.8410034 C229.2825012,30.387001 229.9585114,30.8809967 230.6865082,31.3099976 C229.2565002,31.8819962 227.6054993,32.2979965 225.7205048,32.5579987 L226.1495056,33.4420013 C228.2555084,33.1169968 230.114502,32.5839996 231.7005005,31.8560028 C233.3125,32.6620026 235.1455078,33.1819992 237.1995087,33.4160004 L237.6285095,32.5449982 C235.8215027,32.362999 234.1835022,31.9599991 232.7145081,31.3359985 C233.9105072,30.659996 234.9244995,29.8410034 235.7565002,28.8789978 L235.7565002,28.125 L230.088501,28.125 C230.2705078,27.8130035 230.4394989,27.487999 230.5825043,27.137001 L229.6334991,27.0069962 Z M231.6875,30.8550034 C230.8164978,30.4000015 230.010498,29.8539963 229.2825012,29.2170029 L229.4515076,29.0090027 L234.417511,29.0090027 C233.6504974,29.7109985 232.740509,30.3349991 231.6875,30.8550034 Z M230.8945007,32.7919998 C230.8945007,33.3119965 230.8424988,33.8059998 230.7385101,34.2740021 L226.6045074,34.2740021 L226.6045074,35.1190033 L230.4785004,35.1190033 C230.3745117,35.3789978 230.2315063,35.6259995 230.0755005,35.8600006 C229.3995056,36.8089981 227.9824982,37.6019974 225.8505096,38.2259979 L226.4745026,38.9929962 C228.8665009,38.2389984 230.3874969,37.2639999 231.0505066,36.0940018 C231.2194977,35.7819977 231.3625031,35.4570007 231.466507,35.1190033 L235.3144989,35.1190033 C235.2754974,36.4189987 235.1585083,37.2249985 234.963501,37.5370026 C234.7555084,37.848999 234.2745056,38.0179977 233.4945068,38.0309982 L231.9605103,37.9660034 L232.1945038,38.810997 C232.792511,38.836998 233.2994995,38.862999 233.7154999,38.862999 C234.638504,38.862999 235.2884979,38.6419983 235.6655121,38.2129974 C236.042511,37.7839966 236.2375031,36.4710007 236.263504,34.2740021 L231.6875,34.2740021 C231.7655029,33.8059998 231.8175049,33.3119965 231.8175049,32.7919998 L230.8945007,32.7919998 Z M240.2415009,27.5400009 L240.2415009,30.6989975 L244.2064972,30.6989975 L244.2064972,27.5400009 L240.2415009,27.5400009 Z M243.3485107,29.9059982 L241.0865021,29.9059982 L241.0865021,28.3460007 L243.3485107,28.3460007 L243.3485107,29.9059982 Z M245.6495056,27.5400009 L245.6495056,30.6989975 L249.6925049,30.6989975 L249.6925049,27.5400009 L245.6495056,27.5400009 Z M248.8475037,29.9059982 L246.5075073,29.9059982 L246.5075073,28.3460007 L248.8475037,28.3460007 L248.8475037,29.9059982 Z M239.1885071,31.9990005 L239.1885071,32.8310013 L242.7765045,32.8310013 C241.8665009,33.6110001 240.5924988,34.2480011 238.9284973,34.7419968 L239.3574982,35.5090027 C239.7215118,35.3919983 240.0725098,35.2750015 240.4235077,35.1449966 L240.4235077,38.9800034 L241.2425079,38.9800034 L241.2425079,38.4209976 L243.4654999,38.4209976 L243.4654999,38.9800034 L244.2975006,38.9800034 L244.2975006,34.8850021 L241.0345001,34.8850021 C242.2565002,34.3389969 243.2315063,33.663002 243.9595032,32.8310013 L246.1565094,32.8310013 C246.8065033,33.6240005 247.7685089,34.3130035 249.01651,34.8850021 L245.5455017,34.8850021 L245.5455017,38.9800034 L246.3775024,38.9800034 L246.3775024,38.4209976 L248.8085022,38.4209976 L248.8085022,38.9800034 L249.6405029,38.9800034 L249.6405029,35.1579971 C249.9264984,35.262001 250.2255096,35.3789978 250.5505066,35.4830017 L250.9275055,34.6900024 C249.2505035,34.2350006 247.989502,33.6110001 247.1445007,32.8310013 L250.6545105,32.8310013 L250.6545105,31.9990005 L248.8605042,31.9990005 C248.6525116,31.5960007 248.4185028,31.2190018 248.1455078,30.8550034 L247.3525085,31.1149979 C247.5605011,31.375 247.7555084,31.6740036 247.9375,31.9990005 L244.5835114,31.9990005 C244.7655029,31.6869965 244.9345093,31.375 245.0644989,31.0370026 L244.167511,30.9459991 C244.0115051,31.3099976 243.8164978,31.6610031 243.5695038,31.9990005 L239.1885071,31.9990005 Z M241.2425079,37.6149979 L241.2425079,35.6650009 L243.4654999,35.6650009 L243.4654999,37.6149979 L241.2425079,37.6149979 Z M246.3775024,37.6149979 L246.3775024,35.6650009 L248.8085022,35.6650009 L248.8085022,37.6149979 L246.3775024,37.6149979 Z M254.1255035,29.697998 L253.2675018,30.0100021 C253.5924988,30.5820007 253.865509,31.2060013 254.0995026,31.8819962 L252.3444977,31.8819962 L252.3444977,32.7919998 L258.8574829,32.7919998 L258.8574829,31.8819962 L257.2844849,31.8819962 C257.6224976,31.2969971 257.9215088,30.6340027 258.194519,29.8929977 L257.3234863,29.5940018 C257.0635071,30.4000015 256.7385254,31.1669998 256.3615112,31.8819962 L254.9965057,31.8819962 C254.7365112,31.0240021 254.4375,30.2959976 254.1255035,29.697998 Z M259.4555054,27.5920029 L259.4555054,38.9410019 L260.365509,38.9410019 L260.365509,28.4499969 L262.6925049,28.4499969 C262.2764893,29.8539963 261.8475037,31.0759964 261.4185181,32.1029968 C262.4324951,33.3509979 262.9525146,34.3519974 262.9655151,35.1190033 C262.9525146,35.586998 262.8875122,35.8990021 262.7575073,36.0680008 C262.6275024,36.223999 262.3284912,36.3150024 261.8605042,36.3410034 C261.6135254,36.3410034 261.3145142,36.3150024 260.9505005,36.2890015 L261.2495117,37.2770004 C262.3154907,37.2770004 263.0305176,37.1080017 263.3945007,36.7959976 C263.7324829,36.4840012 263.9014893,35.9250031 263.9014893,35.1190033 C263.8884888,34.3389969 263.3945007,33.3249969 262.4194946,32.1029968 C262.8875122,30.9329987 263.3164978,29.6589966 263.7194824,28.2939987 L263.7194824,27.5920029 L259.4555054,27.5920029 Z M252.591507,28.3069992 L252.591507,29.2170029 L258.76651,29.2170029 L258.76651,28.3069992 L256.114502,28.3069992 C255.9715118,27.8130035 255.8285065,27.3580017 255.6855011,26.9680023 L254.7235107,27.137001 C254.8925018,27.487999 255.0485077,27.8779984 255.2044983,28.3069992 L252.591507,28.3069992 Z M258.2595215,33.9749985 L253.0855103,33.9749985 L253.0855103,38.8759995 L254.0084991,38.8759995 L254.0084991,38.1480026 L257.3364868,38.1480026 L257.3364868,38.8759995 L258.2595215,38.8759995 L258.2595215,33.9749985 Z M254.0084991,37.2639999 L254.0084991,34.8590012 L257.3364868,34.8590012 L257.3364868,37.2639999 L254.0084991,37.2639999 Z M266.8135071,27.5270004 L266.8135071,29.9970016 L270.5704956,29.9970016 L270.5704956,30.8420029 L267.1644897,30.8420029 L267.1644897,31.5960007 L270.5704956,31.5960007 L270.5704956,32.5319977 L265.7474976,32.5319977 L265.7474976,33.3379974 L271.5715027,33.3379974 C269.8945007,34.0530014 267.9315186,34.5339966 265.6694946,34.7679977 L266.1765137,35.5479965 C266.865509,35.4179993 267.5415039,35.288002 268.1914978,35.1319962 L268.1914978,39.0579987 L269.114502,39.0579987 L269.114502,38.4729996 L274.6395264,38.4729996 L274.6395264,39.0579987 L275.5625,39.0579987 L275.5625,34.2870026 L270.9865112,34.2870026 C271.740509,34.0009995 272.4425049,33.689003 273.1184998,33.3379974 L277.2005005,33.3379974 L277.2005005,32.5319977 L274.4575195,32.5319977 C275.2374878,31.9990005 275.9395142,31.401001 276.5505066,30.7509995 L275.7835083,30.3479996 C275.042511,31.1800003 274.1585083,31.9079971 273.1445007,32.5319977 L271.4804993,32.5319977 L271.4804993,31.5960007 L274.2495117,31.5960007 L274.2495117,30.8420029 L271.4804993,30.8420029 L271.4804993,29.9970016 L276.0175171,29.9970016 L276.0175171,27.5270004 L266.8135071,27.5270004 Z M275.1204834,29.3079987 L273.2095032,29.3079987 L273.2095032,28.2289963 L275.1204834,28.2289963 L275.1204834,29.3079987 Z M272.364502,29.3079987 L270.4924927,29.3079987 L270.4924927,28.2289963 L272.364502,28.2289963 L272.364502,29.3079987 Z M269.647522,29.3079987 L267.7105103,29.3079987 L267.7105103,28.2289963 L269.647522,28.2289963 L269.647522,29.3079987 Z M269.114502,36.7310028 L274.6395264,36.7310028 L274.6395264,37.7060013 L269.114502,37.7060013 L269.114502,36.7310028 Z M274.6395264,36.0159988 L269.114502,36.0159988 L269.114502,35.0149994 L274.6395264,35.0149994 L274.6395264,36.0159988 Z M290.0964966,28.3199997 L285.260498,28.3199997 C285.0784912,27.8130035 284.8834839,27.3580017 284.6755066,26.9420013 L283.635498,27.1240005 C283.8565063,27.487999 284.0515137,27.8779984 284.2335205,28.3199997 L279.2935181,28.3199997 L279.2935181,31.1019974 L280.2554932,31.1019974 L280.2554932,29.2300034 L289.1345215,29.2300034 L289.1345215,31.1149979 L290.0964966,31.1149979 L290.0964966,28.3199997 Z M278.9815063,31.9339981 L278.9815063,32.8440018 L282.114502,32.8440018 C281.6984863,33.5589981 281.2565002,34.2870026 280.7885132,35.0149994 C281.9974976,35.4049988 283.2064819,35.8600006 284.4284973,36.3799973 C283.0505066,37.4329987 281.2434998,37.9660034 279.0335083,37.9789963 L279.5794983,38.8499985 C281.9974976,38.7720032 283.9215088,38.0960007 285.3775024,36.7959976 C286.7554932,37.4199982 288.1334839,38.1480026 289.5115051,38.9540024 L290.135498,38.1350021 C288.7575073,37.3550034 287.3925171,36.6790009 286.0534973,36.1070023 C286.7424927,35.3010025 287.3535156,34.2220001 287.8865051,32.8440018 L290.4475098,32.8440018 L290.4475098,31.9339981 L283.7265015,31.9339981 C284.0385132,31.3619995 284.3635254,30.7509995 284.7015076,30.1009979 L283.739502,29.8150024 C283.3884888,30.5169983 283.0115051,31.2190018 282.621521,31.9339981 L278.9815063,31.9339981 Z M283.2194824,32.8440018 L286.8594971,32.8440018 C286.417511,33.987999 285.84552,34.9499969 285.1434937,35.7170029 C284.1165161,35.288002 283.115509,34.9240036 282.1275024,34.6380005 C282.4655151,34.1179962 282.8294983,33.5199966 283.2194824,32.8440018 Z M297.6235046,27.0849991 C296.115509,28.7229996 294.2174988,30.1009979 291.9295044,31.2060013 L292.3845215,32.0250015 C294.6854858,30.8679962 296.5444946,29.5029984 297.9614868,27.9300003 C299.4954834,29.5810013 301.3284912,30.9199982 303.4865112,31.9599991 L303.9544983,31.1279984 C301.8225098,30.1399994 299.9375,28.8010025 298.2994995,27.0849991 L297.6235046,27.0849991 Z M294.3345032,31.1930008 L294.3345032,32.0899963 L297.4804993,32.0899963 L297.4804993,34.3519974 L293.7105103,34.3519974 L293.7105103,35.2490005 L297.4804993,35.2490005 L297.4804993,37.6539993 L292.5534973,37.6539993 L292.5534973,38.5770035 L303.3825073,38.5770035 L303.3825073,37.6539993 L298.4425049,37.6539993 L298.4425049,35.2490005 L302.1995239,35.2490005 L302.1995239,34.3519974 L298.4425049,34.3519974 L298.4425049,32.0899963 L301.588501,32.0899963 L301.588501,31.1930008 L294.3345032,31.1930008 Z M305.7615051,28.0209961 L305.7615051,28.814003 L308.0625,28.814003 L308.0625,33.1169968 L305.5664978,33.1169968 L305.5664978,33.9489975 L308.2705078,33.9489975 C307.6464844,34.7160034 306.6975098,35.3399963 305.4105225,35.8339996 L305.89151,36.6269989 C307.3995056,35.9250031 308.4915161,35.0279999 309.167511,33.9489975 L313.2495117,33.9489975 C313.9255066,35.0279999 315.069519,35.9120026 316.6815186,36.5879974 L317.0585022,35.7819977 C315.7584839,35.3399963 314.7835083,34.7289963 314.1594849,33.9489975 L316.8635254,33.9489975 L316.8635254,33.1169968 L314.3674927,33.1169968 L314.3674927,28.814003 L316.6685181,28.814003 L316.6685181,28.0209961 L314.3674927,28.0209961 L314.3674927,27.0329971 L313.4575195,27.0329971 L313.4575195,28.0209961 L308.9725037,28.0209961 L308.9725037,27.0329971 L308.0625,27.0329971 L308.0625,28.0209961 L305.7615051,28.0209961 Z M308.9725037,33.1169968 L308.9725037,32.1809998 L313.4575195,32.1809998 L313.4575195,33.1169968 L308.9725037,33.1169968 Z M308.9725037,31.4400024 L308.9725037,30.5169983 L313.4575195,30.5169983 L313.4575195,31.4400024 L308.9725037,31.4400024 Z M308.9725037,29.776001 L308.9725037,28.814003 L313.4575195,28.814003 L313.4575195,29.776001 L308.9725037,29.776001 Z M310.76651,34.4039993 L310.76651,35.4440002 L308.1015015,35.4440002 L308.1015015,36.276001 L310.76651,36.276001 L310.76651,37.6539993 L306.2164917,37.6539993 L306.2164917,38.5250015 L316.135498,38.5250015 L316.135498,37.6539993 L311.6765137,37.6539993 L311.6765137,36.276001 L314.3154907,36.276001 L314.3154907,35.4440002 L311.6765137,35.4440002 L311.6765137,34.4039993 L310.76651,34.4039993 Z M323.1555176,36.3799973 C321.8815002,36.8740005 320.3865051,37.2770004 318.6705017,37.5630035 L318.7875061,38.4729996 C320.4255066,38.1740036 321.8815002,37.7709961 323.1555176,37.2770004 L323.1555176,36.3799973 Z M320.8414917,26.9810028 C320.3215027,28.5279999 319.7105103,29.9059982 319.0084839,31.1019974 C318.89151,31.2709961 318.7615051,31.3880005 318.6184998,31.4400024 L318.8395081,32.2979965 C319.5675049,32.2070007 320.2955017,32.1159973 321.010498,32.012001 C320.3345032,33.2210007 319.7495117,34.0790024 319.2684937,34.572998 C319.1514893,34.677002 319.0084839,34.7679977 318.8395081,34.8460007 L319.0994873,35.7040024 C320.3475037,35.534996 321.647522,35.2229996 323.0125122,34.7809982 L323.0125122,33.935997 C322.0765076,34.2480011 321.1405029,34.4950027 320.2044983,34.677002 C320.9584961,33.7539978 321.9205017,32.1940002 323.0645142,29.9970016 L322.2324829,29.6849976 C321.9725037,30.2050018 321.7125244,30.6989975 321.4785156,31.1669998 C320.8934937,31.2580032 320.3085022,31.3359985 319.7235107,31.3880005 C320.3995056,30.3740005 321.0755005,29.0220032 321.7385254,27.3320007 L320.8414917,26.9810028 Z M329.4605103,29.3470001 L326.2235107,29.802002 L326.2235107,27.0459976 L325.2875061,27.0459976 L325.2875061,29.9319992 L323.2985229,30.2180023 L323.4414978,31.0759964 L325.3135071,30.8030014 C325.3265076,31.427002 325.365509,32.0250015 325.4305115,32.5839996 L323.0775146,32.9609985 L323.2075195,33.8450012 L325.5474854,33.4680023 C325.5994873,33.8059998 325.6514893,34.1309967 325.7294922,34.4690018 C325.885498,35.1709976 326.0805054,35.7949982 326.3275146,36.3669968 C325.365509,37.0820007 324.286499,37.6279984 323.0905151,38.0179977 L323.6365051,38.7720032 C324.7415161,38.4339981 325.7814941,37.901001 326.7434998,37.185997 C326.8215027,37.3550034 326.9255066,37.5110016 327.042511,37.6669998 C327.6015015,38.4469986 328.1865234,38.836998 328.8104858,38.862999 C329.4865112,38.862999 330.0065002,37.9919968 330.3704834,36.276001 L329.5775146,35.7559967 C329.3435059,37.1470032 329.0444946,37.848999 328.7064819,37.848999 C328.3684998,37.848999 327.9915161,37.5240021 327.5625,36.887001 C327.510498,36.8089981 327.4714966,36.7180023 327.4194946,36.6399994 C328.2255249,35.9380035 328.9664917,35.0800018 329.6555176,34.0790024 L328.9144897,33.5719986 C328.3684998,34.4039993 327.7445068,35.1319962 327.042511,35.7819977 C326.8605042,35.262001 326.7044983,34.677002 326.5745239,34.0009995 C326.5355225,33.7929993 326.496521,33.5589981 326.47052,33.3249969 L329.9544983,32.7789993 L329.8115234,31.8949966 L326.3665161,32.4410019 C326.3145142,31.8819962 326.2755127,31.2969971 326.2495117,30.6729965 L329.5905151,30.2050018 L329.4605103,29.3470001 Z M327.6795044,27.0069962 L326.9515076,27.461998 C327.6015015,28.0599976 328.121521,28.6190033 328.4855042,29.1259995 L329.213501,28.6190033 C328.8494873,28.1640015 328.3424988,27.6309967 327.6795044,27.0069962 Z M330.9815063,37.6669998" style="fill:rgb(23,55,94);stroke:none" clip-path="url(#clip12)" />
<clipPath id="clip13"><path d="M195,60 L349,60 L349,98 L195,98 L195,60 Z" /></clipPath>
<path d="M202,62 C199.2385712,62 197,64.2385712 197,67 L197,90 C197,92.7614288 199.2385712,95 202,95 L341,95 C343.7614136,95 346,92.7614288 346,90 L346,67 C346,64.2385712 343.7614136,62 341,62 Z M202,62" style="fill:rgb(217,217,217);stroke:none" clip-path="url(#clip13)" />
<clipPath id="clip14"><path d="M195,60 L349,60 L349,98 L195,98 L195,60 Z" /></clipPath>
<path d="M202,62 C199.2385712,62 197,64.2385712 197,67 L197,90 C197,92.7614288 199.2385712,95 202,95 L341,95 C343.7614136,95 346,92.7614288 346,90 L346,67 C346,64.2385712 343.7614136,62 341,62 Z M202,62" style="fill:none;stroke:rgb(255,255,255);stroke-width:2" clip-path="url(#clip14)" />
<clipPath id="clip15"><path d="M209,69 L335,69 L335,89 L209,89 L209,69 Z" /></clipPath>
<path d="M220.5464935,75.9319992 L222.4705048,75.9319992 C222.4185028,77.6869965 222.1455078,79.2210007 221.638504,80.5339966 C221.1184998,79.4420013 220.7024994,78.1289978 220.3775024,76.6080017 L220.5464935,75.9319992 Z M221.2095032,81.4700012 C220.611496,82.5749969 219.8184967,83.4720001 218.8045044,84.173996 L219.2855072,84.9539948 C220.260498,84.2519989 221.0664978,83.3809967 221.690506,82.3410034 C222.3404999,83.4329987 223.1204987,84.3170013 224.0305023,84.9669952 L224.5375061,84.1999969 C223.6015015,83.5630035 222.8085022,82.6660004 222.1325073,81.4960022 C222.8605042,79.961998 223.263504,78.1029968 223.3285065,75.9319992 L224.1735077,75.9319992 L224.1735077,75.0350037 L220.7415009,75.0350037 C220.8455048,74.4629974 220.9494934,73.8390045 221.0274963,73.1759949 L220.1174927,73.0200043 C219.8574982,75.4900055 219.3374939,77.4530029 218.5704956,78.9089966 L219.1555023,79.6240005 C219.4284973,79.1559982 219.6885071,78.6230011 219.9225006,78.0250015 C220.2734985,79.3249969 220.7024994,80.4689941 221.2095032,81.4700012 Z M215.0475006,79.0910034 C214.9564972,79.3509979 214.8525085,79.6240005 214.7355042,79.9100037 L212.8374939,79.9100037 L212.8374939,80.7290039 L214.3714905,80.7290039 C214.1115112,81.2490005 213.8125,81.7819977 213.4745026,82.3540039 C214.1115112,82.5879974 214.7095032,82.8349991 215.2814941,83.0820007 C214.5274963,83.5110016 213.6044922,83.8619995 212.5384979,84.147995 L212.9804993,84.9280014 C214.2805023,84.5639954 215.3594971,84.0830002 216.2174988,83.4850006 C216.9844971,83.822998 217.6474915,84.173996 218.2194977,84.512001 L218.7265015,83.7839966 C218.1544952,83.4720001 217.5565033,83.1860046 216.9324951,82.9000015 C217.60849,82.276001 218.0894928,81.5350037 218.3755035,80.677002 L218.3755035,79.9100037 L215.6585083,79.9100037 C215.7365112,79.6759949 215.8274994,79.4420013 215.9185028,79.1949997 L215.0475006,79.0910034 Z M216.0744934,82.5359955 C215.6065063,82.3410034 215.1125031,82.1589966 214.5924988,81.977005 C214.8525085,81.586998 215.0865021,81.1710052 215.2944946,80.7290039 L217.5305023,80.7290039 C217.2185059,81.4049988 216.7245026,82.0159988 216.0744934,82.5359955 Z M213.864502,73.2929993 L213.1235046,73.5400009 C213.4355011,74.0339966 213.7214966,74.5930023 213.9945068,75.2299957 L214.6705017,74.9179993 C214.4364929,74.3460007 214.1764984,73.8000031 213.864502,73.2929993 Z M217.8164978,73.2539978 C217.582489,73.8000031 217.2445068,74.3460007 216.8284912,74.9049988 L217.4915009,75.2429962 C217.9075012,74.6969986 218.2324982,74.1380005 218.4924927,73.5659943 L217.8164978,73.2539978 Z M212.8634949,75.5419998 L212.8634949,76.3610001 L214.7095032,76.3610001 C214.3195038,77.076004 213.6174927,77.7259979 212.6165009,78.3110046 L213.0715027,79.0650024 C214.1894989,78.3110046 214.9694977,77.427002 215.3984985,76.4000015 L215.3984985,78.8699951 L216.2695007,78.8699951 L216.2695007,77.1800003 C216.7375031,77.4920044 217.2965088,77.9080048 217.9465027,78.4280014 L218.4275055,77.6999969 C217.6994934,77.2579956 216.9714966,76.8549957 216.2695007,76.5039978 L216.2695007,76.3610001 L218.635498,76.3610001 L218.635498,75.5419998 L216.2695007,75.5419998 L216.2695007,73.0589981 L215.3984985,73.0589981 L215.3984985,75.5419998 L212.8634949,75.5419998 Z M227.3845062,84.8499985 C228.1125031,84.8499985 228.4765015,84.4599991 228.4765015,83.7060013 L228.4765015,79.9100037 C228.8795013,79.7279968 229.2825012,79.5460052 229.6855011,79.3379974 L229.6855011,78.4150009 C229.2955017,78.6230011 228.8925018,78.8180008 228.4765015,79 L228.4765015,76.4389954 L229.7245026,76.4389954 L229.7245026,75.5419998 L228.4765015,75.5419998 L228.4765015,73.0849991 L227.5664978,73.0849991 L227.5664978,75.5419998 L226.0065002,75.5419998 L226.0065002,76.4389954 L227.5664978,76.4389954 L227.5664978,79.3769989 C226.9945068,79.5849991 226.3964996,79.7669983 225.7985077,79.9100037 L226.0325012,80.8199997 C226.539505,80.6640015 227.0464935,80.4819946 227.5664978,80.2870026 L227.5664978,83.4720001 C227.5664978,83.8359985 227.3975067,84.0309982 227.0724945,84.0309982 C226.760498,84.0309982 226.4225006,84.0050049 226.0845032,83.9660034 L226.2794952,84.8499985 L227.3845062,84.8499985 Z M231.2714996,79.1040039 L233.9235077,79.1040039 L233.9235077,80.7030029 L231.7525024,80.7030029 L231.7525024,84.9669952 L232.6235046,84.9669952 L232.6235046,84.3300018 L236.1464996,84.3300018 L236.1464996,84.9669952 L237.0175018,84.9669952 L237.0175018,80.7030029 L234.8334961,80.7030029 L234.8334961,79.1040039 L237.6154938,79.1040039 L237.6154938,78.2590027 L234.8334961,78.2590027 L234.8334961,76.7249985 L237.2774963,76.7249985 L237.2774963,73.5659943 L230.4264984,73.5659943 L230.4264984,77.6349945 C230.4134979,80.3650055 229.9454956,82.6009979 229.0225067,84.3170013 L229.7505035,84.9669952 C230.6085052,83.2770004 231.1154938,81.3269958 231.2714996,79.1040039 Z M233.9235077,76.7249985 L233.9235077,78.2590027 L231.3235016,78.2590027 C231.3235016,78.0509949 231.3365021,77.8430023 231.3365021,77.6349945 L231.3365021,76.7249985 L233.9235077,76.7249985 Z M232.6235046,83.4980011 L232.6235046,81.5350037 L236.1464996,81.5350037 L236.1464996,83.4980011 L232.6235046,83.4980011 Z M236.3674927,74.4369965 L236.3674927,75.8800049 L231.3365021,75.8800049 L231.3365021,74.4369965 L236.3674927,74.4369965 Z M245.4544983,72.9420013 L244.414505,73.1240005 C244.6484985,73.4360046 244.8825073,73.8000031 245.0904999,74.2030029 L240.2024994,74.2030029 L240.2024994,78.0769958 C240.1764984,80.7290039 239.7994995,82.7960052 239.0845032,84.2779999 L239.8515015,84.9669952 C240.6835022,83.2509995 241.1125031,80.9499969 241.164505,78.0769958 L241.164505,75.112999 L250.7975006,75.112999 L250.7975006,74.2030029 L246.1174927,74.2030029 C245.9095001,73.7350006 245.6885071,73.3190002 245.4544983,72.9420013 Z M244.6094971,75.477005 C244.466507,75.9059982 244.3235016,76.3219986 244.1804962,76.7249985 L241.8795013,76.7249985 L241.8795013,77.5439987 L243.8424988,77.5439987 C243.4394989,78.4409943 242.9844971,79.1949997 242.4904938,79.8059998 L242.6855011,80.6119995 L246.091507,80.6119995 L246.091507,82.0680008 L241.3984985,82.0680008 L241.3984985,82.9259949 L246.091507,82.9259949 L246.091507,84.9799957 L247.0274963,84.9799957 L247.0274963,82.9259949 L250.914505,82.9259949 L250.914505,82.0680008 L247.0274963,82.0680008 L247.0274963,80.6119995 L249.9264984,80.6119995 L249.9264984,79.7669983 L247.0274963,79.7669983 L247.0274963,78.1940002 L246.091507,78.1940002 L246.091507,79.7669983 L243.6605072,79.7669983 C244.0765076,79.1170044 244.466507,78.3759995 244.8305054,77.5439987 L250.2254944,77.5439987 L250.2254944,76.7249985 L245.1555023,76.7249985 C245.2725067,76.387001 245.3894958,76.048996 245.5065002,75.6849976 L244.6094971,75.477005 Z M254.216507,75.697998 L253.3585052,76.0099945 C253.6835022,76.5820007 253.9564972,77.2060013 254.190506,77.8820038 L252.4355011,77.8820038 L252.4355011,78.7919998 L258.9484863,78.7919998 L258.9484863,77.8820038 L257.3754883,77.8820038 C257.713501,77.2969971 258.0125122,76.6340027 258.2855225,75.8930054 L257.4144897,75.5939941 C257.15448,76.4000015 256.8294983,77.1669998 256.4525146,77.8820038 L255.0874939,77.8820038 C254.8274994,77.0240021 254.5285034,76.2960052 254.216507,75.697998 Z M259.5465088,73.5919952 L259.5465088,84.9409943 L260.4564819,84.9409943 L260.4564819,74.4499969 L262.7835083,74.4499969 C262.3674927,75.8540039 261.9385071,77.076004 261.5095215,78.1029968 C262.5234985,79.3509979 263.0435181,80.352005 263.0565186,81.1190033 C263.0435181,81.586998 262.9785156,81.8990021 262.8485107,82.0680008 C262.7185059,82.223999 262.4194946,82.3150024 261.9515076,82.3410034 C261.7044983,82.3410034 261.4055176,82.3150024 261.0415039,82.2890015 L261.3405151,83.2770004 C262.4064941,83.2770004 263.121521,83.1080017 263.4855042,82.7960052 C263.8234863,82.4840012 263.9924927,81.9250031 263.9924927,81.1190033 C263.9794922,80.3390045 263.4855042,79.3249969 262.510498,78.1029968 C262.9785156,76.9329987 263.4075012,75.6589966 263.8104858,74.2939987 L263.8104858,73.5919952 L259.5465088,73.5919952 Z M252.6824951,74.3069992 L252.6824951,75.2169952 L258.8574829,75.2169952 L258.8574829,74.3069992 L256.2055054,74.3069992 C256.0625,73.8130035 255.9194946,73.3580017 255.7765045,72.9680023 L254.8144989,73.137001 C254.9835052,73.487999 255.1394958,73.8779984 255.2955017,74.3069992 L252.6824951,74.3069992 Z M258.3504944,79.9749985 L253.1764984,79.9749985 L253.1764984,84.8759995 L254.0995026,84.8759995 L254.0995026,84.147995 L257.4274902,84.147995 L257.4274902,84.8759995 L258.3504944,84.8759995 L258.3504944,79.9749985 Z M254.0995026,83.2639999 L254.0995026,80.8590012 L257.4274902,80.8590012 L257.4274902,83.2639999 L254.0995026,83.2639999 Z M266.90448,73.5270004 L266.90448,75.9970016 L270.661499,75.9970016 L270.661499,76.8419952 L267.2554932,76.8419952 L267.2554932,77.5960007 L270.661499,77.5960007 L270.661499,78.5319977 L265.838501,78.5319977 L265.838501,79.3379974 L271.6625061,79.3379974 C269.9855042,80.0530014 268.022522,80.5339966 265.760498,80.7680054 L266.2675171,81.5480042 C266.9564819,81.4179993 267.6325073,81.2879944 268.2825012,81.1320038 L268.2825012,85.0579987 L269.2055054,85.0579987 L269.2055054,84.4729996 L274.7304993,84.4729996 L274.7304993,85.0579987 L275.6535034,85.0579987 L275.6535034,80.2870026 L271.0775146,80.2870026 C271.8314819,80.0009995 272.5335083,79.6889954 273.2095032,79.3379974 L277.2915039,79.3379974 L277.2915039,78.5319977 L274.5485229,78.5319977 C275.3284912,77.9990005 276.0305176,77.401001 276.6414795,76.7509995 L275.8745117,76.3479996 C275.1334839,77.1800003 274.2495117,77.9080048 273.2355042,78.5319977 L271.5715027,78.5319977 L271.5715027,77.5960007 L274.3405151,77.5960007 L274.3405151,76.8419952 L271.5715027,76.8419952 L271.5715027,75.9970016 L276.1085205,75.9970016 L276.1085205,73.5270004 L266.90448,73.5270004 Z M275.2114868,75.3079987 L273.3005066,75.3079987 L273.3005066,74.2290039 L275.2114868,74.2290039 L275.2114868,75.3079987 Z M272.4555054,75.3079987 L270.5834961,75.3079987 L270.5834961,74.2290039 L272.4555054,74.2290039 L272.4555054,75.3079987 Z M269.7384949,75.3079987 L267.8015137,75.3079987 L267.8015137,74.2290039 L269.7384949,74.2290039 L269.7384949,75.3079987 Z M269.2055054,82.7310028 L274.7304993,82.7310028 L274.7304993,83.7060013 L269.2055054,83.7060013 L269.2055054,82.7310028 Z M274.7304993,82.0159988 L269.2055054,82.0159988 L269.2055054,81.0149994 L274.7304993,81.0149994 L274.7304993,82.0159988 Z M290.1875,74.3199997 L285.3515015,74.3199997 C285.1694946,73.8130035 284.9744873,73.3580017 284.7664795,72.9420013 L283.7265015,73.1240005 C283.9475098,73.487999 284.1425171,73.8779984 284.3244934,74.3199997 L279.3845215,74.3199997 L279.3845215,77.102005 L280.3464966,77.102005 L280.3464966,75.2299957 L289.2254944,75.2299957 L289.2254944,77.1150055 L290.1875,77.1150055 L290.1875,74.3199997 Z M279.0725098,77.9339981 L279.0725098,78.8439941 L282.2055054,78.8439941 C281.7894897,79.5589981 281.3475037,80.2870026 280.8795166,81.0149994 C282.088501,81.4049988 283.2974854,81.8600006 284.5195007,82.3800049 C283.1414795,83.4329987 281.3345032,83.9660034 279.1245117,83.9790039 L279.6705017,84.8499985 C282.088501,84.7720032 284.0125122,84.0960007 285.4685059,82.7960052 C286.8464966,83.4199982 288.2244873,84.147995 289.602478,84.9539948 L290.2265015,84.1349945 C288.8485107,83.3549957 287.4835205,82.6790009 286.1445007,82.1069946 C286.8334961,81.3009949 287.444519,80.2220001 287.977478,78.8439941 L290.5385132,78.8439941 L290.5385132,77.9339981 L283.8175049,77.9339981 C284.1295166,77.3619995 284.4544983,76.7509995 284.7924805,76.1009979 L283.8305054,75.8150024 C283.4794922,76.5169983 283.102478,77.2189941 282.7124939,77.9339981 L279.0725098,77.9339981 Z M283.3104858,78.8439941 L286.9505005,78.8439941 C286.5084839,79.987999 285.9364929,80.9499969 285.2344971,81.7169952 C284.2075195,81.2879944 283.2064819,80.923996 282.2185059,80.6380005 C282.5565186,80.1179962 282.9205017,79.5200043 283.3104858,78.8439941 Z M297.7144775,73.0849991 C296.2064819,74.7229996 294.3085022,76.1009979 292.0205078,77.2060013 L292.4754944,78.0250015 C294.7764893,76.8679962 296.635498,75.5029984 298.0524902,73.9300003 C299.5864868,75.5810013 301.4194946,76.9199982 303.5775146,77.9599991 L304.0455017,77.1279984 C301.9135132,76.1399994 300.0285034,74.8009949 298.3905029,73.0849991 L297.7144775,73.0849991 Z M294.4255066,77.1930008 L294.4255066,78.0899963 L297.5715027,78.0899963 L297.5715027,80.352005 L293.8015137,80.352005 L293.8015137,81.2490005 L297.5715027,81.2490005 L297.5715027,83.6539993 L292.6445007,83.6539993 L292.6445007,84.5769958 L303.4735107,84.5769958 L303.4735107,83.6539993 L298.5335083,83.6539993 L298.5335083,81.2490005 L302.2904968,81.2490005 L302.2904968,80.352005 L298.5335083,80.352005 L298.5335083,78.0899963 L301.6795044,78.0899963 L301.6795044,77.1930008 L294.4255066,77.1930008 Z M305.852478,74.0209961 L305.852478,74.8139954 L308.1535034,74.8139954 L308.1535034,79.1170044 L305.6575012,79.1170044 L305.6575012,79.9490051 L308.3615112,79.9490051 C307.7374878,80.7160034 306.7885132,81.3399963 305.5014954,81.8339996 L305.9824829,82.6269989 C307.4904785,81.9250031 308.5825195,81.0279999 309.2584839,79.9490051 L313.3405151,79.9490051 C314.0164795,81.0279999 315.1605225,81.9120026 316.772522,82.5879974 L317.1495056,81.7819977 C315.8494873,81.3399963 314.8745117,80.7290039 314.2504883,79.9490051 L316.9544983,79.9490051 L316.9544983,79.1170044 L314.4584961,79.1170044 L314.4584961,74.8139954 L316.7595215,74.8139954 L316.7595215,74.0209961 L314.4584961,74.0209961 L314.4584961,73.0330048 L313.5485229,73.0330048 L313.5485229,74.0209961 L309.0635071,74.0209961 L309.0635071,73.0330048 L308.1535034,73.0330048 L308.1535034,74.0209961 L305.852478,74.0209961 Z M309.0635071,79.1170044 L309.0635071,78.1809998 L313.5485229,78.1809998 L313.5485229,79.1170044 L309.0635071,79.1170044 Z M309.0635071,77.4400024 L309.0635071,76.5169983 L313.5485229,76.5169983 L313.5485229,77.4400024 L309.0635071,77.4400024 Z M309.0635071,75.776001 L309.0635071,74.8139954 L313.5485229,74.8139954 L313.5485229,75.776001 L309.0635071,75.776001 Z M310.8574829,80.4039993 L310.8574829,81.4440002 L308.1925049,81.4440002 L308.1925049,82.276001 L310.8574829,82.276001 L310.8574829,83.6539993 L306.3074951,83.6539993 L306.3074951,84.5250015 L316.2265015,84.5250015 L316.2265015,83.6539993 L311.7675171,83.6539993 L311.7675171,82.276001 L314.4064941,82.276001 L314.4064941,81.4440002 L311.7675171,81.4440002 L311.7675171,80.4039993 L310.8574829,80.4039993 Z M323.246521,82.3800049 C321.9725037,82.8740005 320.477478,83.2770004 318.7615051,83.5630035 L318.878479,84.4729996 C320.5164795,84.173996 321.9725037,83.7709961 323.246521,83.2770004 L323.246521,82.3800049 Z M320.9324951,72.9810028 C320.4125061,74.5279999 319.8015137,75.9059982 319.0994873,77.102005 C318.9824829,77.2709961 318.852478,77.3880005 318.7095032,77.4400024 L318.930481,78.2980042 C319.6585083,78.2070007 320.3865051,78.1159973 321.1015015,78.012001 C320.4255066,79.2210007 319.8405151,80.0789948 319.3594971,80.572998 C319.2424927,80.677002 319.0994873,80.7680054 318.930481,80.8460007 L319.1904907,81.7039948 C320.4385071,81.5350037 321.7384949,81.2229996 323.1035156,80.7809982 L323.1035156,79.9360046 C322.1674805,80.2480011 321.2315063,80.4949951 320.2955017,80.677002 C321.0494995,79.7539978 322.0115051,78.1940002 323.1555176,75.9970016 L322.3234863,75.6849976 C322.0635071,76.2050018 321.8034973,76.6990051 321.569519,77.1669998 C320.9844971,77.2579956 320.3995056,77.3359985 319.8145142,77.3880005 C320.4904785,76.3740005 321.1665039,75.0220032 321.8294983,73.3320007 L320.9324951,72.9810028 Z M329.5515137,75.3470001 L326.3145142,75.802002 L326.3145142,73.0460052 L325.378479,73.0460052 L325.378479,75.9319992 L323.3894958,76.2180023 L323.5325012,77.076004 L325.40448,76.8030014 C325.4174805,77.427002 325.4564819,78.0250015 325.5214844,78.5839996 L323.1685181,78.9609985 L323.2985229,79.8450012 L325.6384888,79.4680023 C325.6904907,79.8059998 325.7424927,80.1309967 325.8204956,80.4689941 C325.9765015,81.1710052 326.1715088,81.7949982 326.4185181,82.3670044 C325.4564819,83.0820007 324.3775024,83.6279984 323.1815186,84.0180054 L323.727478,84.7720032 C324.8325195,84.4339981 325.8724976,83.901001 326.8345032,83.1860046 C326.9125061,83.3549957 327.0164795,83.5110016 327.1334839,83.6669998 C327.6925049,84.4469986 328.2774963,84.836998 328.9014893,84.862999 C329.5775146,84.862999 330.0975037,83.9920044 330.4614868,82.276001 L329.6685181,81.7559967 C329.4345093,83.1470032 329.135498,83.848999 328.7974854,83.848999 C328.4595032,83.848999 328.0825195,83.5240021 327.6535034,82.887001 C327.6015015,82.8089981 327.5625,82.7180023 327.510498,82.6399994 C328.3164978,81.9380035 329.0574951,81.0800018 329.746521,80.0789948 L329.0054932,79.5719986 C328.4595032,80.4039993 327.8355103,81.1320038 327.1334839,81.7819977 C326.9515076,81.262001 326.7955017,80.677002 326.6654968,80.0009995 C326.6264954,79.7929993 326.5874939,79.5589981 326.5614929,79.3249969 L330.0455017,78.7789993 L329.9024963,77.8950043 L326.4575195,78.4409943 C326.4055176,77.8820038 326.3665161,77.2969971 326.3405151,76.6730042 L329.6815186,76.2050018 L329.5515137,75.3470001 Z M327.7705078,73.0070038 L327.0424805,73.461998 C327.6925049,74.0599976 328.2124939,74.6190033 328.5765076,75.1259995 L329.3045044,74.6190033 C328.9404907,74.1640015 328.4335022,73.6309967 327.7705078,73.0070038 Z M331.0725098,83.6669998" style="fill:rgb(23,55,94);stroke:none" clip-path="url(#clip15)" />
<clipPath id="clip16"><path d="M195,106 L336,106 L336,144 L195,144 L195,106 Z" /></clipPath>
<path d="M202,108 C199.2385712,108 197,110.2385712 197,113 L197,136 C197,138.7614288 199.2385712,141 202,141 L328,141 C330.7614136,141 333,138.7614288 333,136 L333,113 C333,110.2385712 330.7614136,108 328,108 Z M202,108" style="fill:rgb(217,217,217);stroke:none" clip-path="url(#clip16)" />
<clipPath id="clip17"><path d="M195,106 L336,106 L336,144 L195,144 L195,106 Z" /></clipPath>
<path d="M202,108 C199.2385712,108 197,110.2385712 197,113 L197,136 C197,138.7614288 199.2385712,141 202,141 L328,141 C330.7614136,141 333,138.7614288 333,136 L333,113 C333,110.2385712 330.7614136,108 328,108 Z M202,108" style="fill:none;stroke:rgb(255,255,255);stroke-width:2" clip-path="url(#clip17)" />
<clipPath id="clip18"><path d="M209,115 L322,115 L322,135 L209,135 L209,115 Z" /></clipPath>
<path d="M215.0214996,129.4980011 L215.0214996,130.4080048 L224.1994934,130.4080048 L224.1994934,129.4980011 L221.4564972,129.4980011 C222.2624969,127.5739975 222.9254913,125.3639984 223.4714966,122.8939972 L222.5484924,122.6470032 C221.9505005,125.3769989 221.2485046,127.6520004 220.4425049,129.4980011 L215.0214996,129.4980011 Z M216.4385071,123.2839966 L215.6195068,123.5439987 C216.1654968,125.052002 216.6074982,126.6380005 216.9584961,128.276001 L217.8424988,128.0549927 C217.4264984,126.2610016 216.9584961,124.6620026 216.4385071,123.2839966 Z M218.9474945,122.3610001 L218.1284943,122.6210022 C218.5964966,124.1809998 218.9734955,125.8059998 219.259491,127.4960022 L220.1564941,127.288002 C219.7924957,125.4420013 219.3894958,123.7910004 218.9474945,122.3610001 Z M218.960495,118.9420013 L217.9335022,119.1240005 C218.1934967,119.487999 218.4274902,119.8779984 218.635498,120.2939987 L213.8125,120.2939987 L213.8125,124.1029968 C213.786499,126.7419968 213.3964996,128.7960052 212.6684875,130.2779999 L213.4355011,130.9669952 C214.2804871,129.2510071 214.7225037,126.9629974 214.7745056,124.1029968 L214.7745056,121.2040024 L224.4075012,121.2040024 L224.4075012,120.2939987 L219.6494904,120.2939987 C219.4414978,119.8000031 219.2075043,119.3450012 218.960495,118.9420013 Z M228.1515045,123.5830002 L231.4534912,123.5830002 L231.4534912,125.8580017 L228.1515045,125.8580017 L228.1515045,123.5830002 Z M228.0995026,126.7160034 L231.4534912,126.7160034 L231.4534912,130.5249939 L232.4154968,130.5249939 L232.4154968,126.7160034 L235.9514923,126.7160034 L235.9514923,128.9779968 C235.9514923,129.5240021 235.7044983,129.7969971 235.236496,129.7969971 C234.7944946,129.7969971 234.3134918,129.7709961 233.7935028,129.7449951 L234.0404968,130.6679993 L235.5354919,130.6679993 C236.4454956,130.6679993 236.9004974,130.2129974 236.9004974,129.3029938 L236.9004974,119.5660019 L227.2154999,119.5660019 L227.2154999,125.8059998 C227.1894989,127.586998 226.760498,129.0559998 225.9284973,130.2129974 L226.6434937,130.8500061 C227.4754944,129.7579956 227.9564972,128.3800049 228.0995026,126.7160034 Z M235.9514923,125.8580017 L232.4154968,125.8580017 L232.4154968,123.5830002 L235.9514923,123.5830002 L235.9514923,125.8580017 Z M235.9514923,122.711998 L232.4154968,122.711998 L232.4154968,120.4759979 L235.9514923,120.4759979 L235.9514923,122.711998 Z M231.4534912,120.4759979 L231.4534912,122.711998 L228.1515045,122.711998 L228.1515045,120.4759979 L231.4534912,120.4759979 Z M241.0865021,121.697998 L240.2285004,122.0100021 C240.5534973,122.5820007 240.8264923,123.2060013 241.0605011,123.8819962 L239.3054962,123.8819962 L239.3054962,124.7919998 L245.8184967,124.7919998 L245.8184967,123.8819962 L244.2454987,123.8819962 C244.5834961,123.2969971 244.8824921,122.6340027 245.1555023,121.8929977 L244.2845001,121.5940018 C244.0244904,122.4000015 243.6994934,123.1669998 243.3224945,123.8819962 L241.9575043,123.8819962 C241.6974945,123.0240021 241.3984985,122.2959976 241.0865021,121.697998 Z M246.4165039,119.5920029 L246.4165039,130.9409943 L247.3264923,130.9409943 L247.3264923,120.4499969 L249.6535034,120.4499969 C249.2375031,121.8539963 248.8085022,123.0759964 248.3795013,124.1029968 C249.3934937,125.3509979 249.9134979,126.3519974 249.9264984,127.1190033 C249.9134979,127.586998 249.8484955,127.8990021 249.7184906,128.0679932 C249.588501,128.223999 249.289505,128.3150024 248.8215027,128.3410034 C248.5744934,128.3410034 248.2754974,128.3150024 247.911499,128.2890015 L248.210495,129.2769928 C249.2765045,129.2769928 249.9915009,129.1080017 250.3554993,128.7960052 C250.6934967,128.4839935 250.8625031,127.9250031 250.8625031,127.1190033 C250.8495026,126.3389969 250.3554993,125.3249969 249.3804932,124.1029968 C249.8484955,122.9329987 250.2774963,121.6589966 250.6804962,120.2939987 L250.6804962,119.5920029 L246.4165039,119.5920029 Z M239.5524902,120.3069992 L239.5524902,121.2170029 L245.7274933,121.2170029 L245.7274933,120.3069992 L243.0755005,120.3069992 C242.9324951,119.8130035 242.789505,119.3580017 242.6464996,118.9680023 L241.684494,119.137001 C241.8535004,119.487999 242.009491,119.8779984 242.1654968,120.3069992 L239.5524902,120.3069992 Z M245.2205048,125.9749985 L240.0464935,125.9749985 L240.0464935,130.8760071 L240.9694977,130.8760071 L240.9694977,130.147995 L244.2975006,130.147995 L244.2975006,130.8760071 L245.2205048,130.8760071 L245.2205048,125.9749985 Z M240.9694977,129.2640076 L240.9694977,126.8590012 L244.2975006,126.8590012 L244.2975006,129.2640076 L240.9694977,129.2640076 Z M253.7744904,119.5270004 L253.7744904,121.9970016 L257.5314941,121.9970016 L257.5314941,122.8420029 L254.1255035,122.8420029 L254.1255035,123.5960007 L257.5314941,123.5960007 L257.5314941,124.5319977 L252.7084961,124.5319977 L252.7084961,125.3379974 L258.5325012,125.3379974 C256.8554993,126.0530014 254.8925018,126.5339966 252.6304932,126.7679977 L253.1374969,127.5479965 C253.8264923,127.4179993 254.5025024,127.288002 255.1524963,127.1319962 L255.1524963,131.0579987 L256.0755005,131.0579987 L256.0755005,130.4730072 L261.6004944,130.4730072 L261.6004944,131.0579987 L262.5234985,131.0579987 L262.5234985,126.2870026 L257.9475098,126.2870026 C258.7014771,126.0009995 259.4035034,125.689003 260.0794983,125.3379974 L264.161499,125.3379974 L264.161499,124.5319977 L261.4185181,124.5319977 C262.1984863,123.9990005 262.9005127,123.401001 263.5115051,122.7509995 L262.7445068,122.3479996 C262.003479,123.1800003 261.1195068,123.9079971 260.1054993,124.5319977 L258.4414978,124.5319977 L258.4414978,123.5960007 L261.2105103,123.5960007 L261.2105103,122.8420029 L258.4414978,122.8420029 L258.4414978,121.9970016 L262.9785156,121.9970016 L262.9785156,119.5270004 L253.7744904,119.5270004 Z M262.0814819,121.3079987 L260.1705017,121.3079987 L260.1705017,120.2289963 L262.0814819,120.2289963 L262.0814819,121.3079987 Z M259.3255005,121.3079987 L257.4534912,121.3079987 L257.4534912,120.2289963 L259.3255005,120.2289963 L259.3255005,121.3079987 Z M256.60849,121.3079987 L254.6714935,121.3079987 L254.6714935,120.2289963 L256.60849,120.2289963 L256.60849,121.3079987 Z M256.0755005,128.7310028 L261.6004944,128.7310028 L261.6004944,129.7059937 L256.0755005,129.7059937 L256.0755005,128.7310028 Z M261.6004944,128.0160065 L256.0755005,128.0160065 L256.0755005,127.0149994 L261.6004944,127.0149994 L261.6004944,128.0160065 Z M277.0574951,120.3199997 L272.2214966,120.3199997 C272.0394897,119.8130035 271.8444824,119.3580017 271.6365051,118.9420013 L270.5964966,119.1240005 C270.8175049,119.487999 271.0125122,119.8779984 271.194519,120.3199997 L266.2545166,120.3199997 L266.2545166,123.1019974 L267.2164917,123.1019974 L267.2164917,121.2300034 L276.09552,121.2300034 L276.09552,123.1149979 L277.0574951,123.1149979 L277.0574951,120.3199997 Z M265.9425049,123.9339981 L265.9425049,124.8440018 L269.0755005,124.8440018 C268.6594849,125.5589981 268.2174988,126.2870026 267.7495117,127.0149994 C268.9584961,127.4049988 270.1674805,127.8600006 271.3894958,128.3800049 C270.0115051,129.4329987 268.2044983,129.9660034 265.9945068,129.9790039 L266.5404968,130.8500061 C268.9584961,130.7720032 270.8825073,130.095993 272.338501,128.7960052 C273.7164917,129.4199982 275.0944824,130.147995 276.4725037,130.9539948 L277.0964966,130.1349945 C275.7185059,129.3549957 274.3535156,128.6790009 273.0144958,128.1069946 C273.7034912,127.3010025 274.3145142,126.2220001 274.8475037,124.8440018 L277.4085083,124.8440018 L277.4085083,123.9339981 L270.6875,123.9339981 C270.9995117,123.3619995 271.3244934,122.7509995 271.6624756,122.1009979 L270.7005005,121.8150024 C270.3494873,122.5169983 269.9725037,123.2190018 269.5825195,123.9339981 L265.9425049,123.9339981 Z M270.180481,124.8440018 L273.8204956,124.8440018 C273.378479,125.987999 272.8065186,126.9499969 272.1044922,127.7170029 C271.0775146,127.288002 270.0764771,126.923996 269.088501,126.6380005 C269.4265137,126.1179962 269.7904968,125.5199966 270.180481,124.8440018 Z M284.5845032,119.0849991 C283.0764771,120.7229996 281.1784973,122.1009979 278.8905029,123.2060013 L279.34552,124.0250015 C281.6464844,122.8679962 283.5054932,121.5029984 284.9224854,119.9300003 C286.4564819,121.5810013 288.2894897,122.9199982 290.4475098,123.9599991 L290.9154968,123.1279984 C288.7835083,122.1399994 286.8984985,120.8010025 285.260498,119.0849991 L284.5845032,119.0849991 Z M281.2955017,123.1930008 L281.2955017,124.0899963 L284.4414978,124.0899963 L284.4414978,126.3519974 L280.6715088,126.3519974 L280.6715088,127.2490005 L284.4414978,127.2490005 L284.4414978,129.654007 L279.5144958,129.654007 L279.5144958,130.5769958 L290.3435059,130.5769958 L290.3435059,129.654007 L285.4035034,129.654007 L285.4035034,127.2490005 L289.1604919,127.2490005 L289.1604919,126.3519974 L285.4035034,126.3519974 L285.4035034,124.0899963 L288.5494995,124.0899963 L288.5494995,123.1930008 L281.2955017,123.1930008 Z M292.7225037,120.0209961 L292.7225037,120.814003 L295.0234985,120.814003 L295.0234985,125.1169968 L292.5274963,125.1169968 L292.5274963,125.9489975 L295.2315063,125.9489975 C294.6074829,126.7160034 293.6585083,127.3399963 292.3714905,127.8339996 L292.852478,128.6269989 C294.3605042,127.9250031 295.4525146,127.0279999 296.128479,125.9489975 L300.2105103,125.9489975 C300.8865051,127.0279999 302.0305176,127.9120026 303.6425171,128.5879974 L304.0195007,127.7819977 C302.7194824,127.3399963 301.7445068,126.7289963 301.1204834,125.9489975 L303.8244934,125.9489975 L303.8244934,125.1169968 L301.3284912,125.1169968 L301.3284912,120.814003 L303.6295166,120.814003 L303.6295166,120.0209961 L301.3284912,120.0209961 L301.3284912,119.0329971 L300.4185181,119.0329971 L300.4185181,120.0209961 L295.9335022,120.0209961 L295.9335022,119.0329971 L295.0234985,119.0329971 L295.0234985,120.0209961 L292.7225037,120.0209961 Z M295.9335022,125.1169968 L295.9335022,124.1809998 L300.4185181,124.1809998 L300.4185181,125.1169968 L295.9335022,125.1169968 Z M295.9335022,123.4400024 L295.9335022,122.5169983 L300.4185181,122.5169983 L300.4185181,123.4400024 L295.9335022,123.4400024 Z M295.9335022,121.776001 L295.9335022,120.814003 L300.4185181,120.814003 L300.4185181,121.776001 L295.9335022,121.776001 Z M297.727478,126.4039993 L297.727478,127.4440002 L295.0625,127.4440002 L295.0625,128.276001 L297.727478,128.276001 L297.727478,129.654007 L293.1774902,129.654007 L293.1774902,130.5249939 L303.0964966,130.5249939 L303.0964966,129.654007 L298.6375122,129.654007 L298.6375122,128.276001 L301.2764893,128.276001 L301.2764893,127.4440002 L298.6375122,127.4440002 L298.6375122,126.4039993 L297.727478,126.4039993 Z M310.1165161,128.3800049 C308.8424988,128.8739929 307.3475037,129.2769928 305.6315002,129.5630035 L305.7485046,130.4730072 C307.3865051,130.173996 308.8424988,129.7709961 310.1165161,129.2769928 L310.1165161,128.3800049 Z M307.8024902,118.9810028 C307.2825012,120.5279999 306.6715088,121.9059982 305.9694824,123.1019974 C305.852478,123.2709961 305.7225037,123.3880005 305.5794983,123.4400024 L305.8004761,124.2979965 C306.5285034,124.2070007 307.2565002,124.1159973 307.9714966,124.012001 C307.2955017,125.2210007 306.7105103,126.0790024 306.2294922,126.572998 C306.1124878,126.677002 305.9694824,126.7679977 305.8004761,126.8460007 L306.0604858,127.7040024 C307.3085022,127.5350037 308.60849,127.2229996 309.9735107,126.7809982 L309.9735107,125.935997 C309.0374756,126.2480011 308.1015015,126.4950027 307.1654968,126.677002 C307.9194946,125.7539978 308.8815002,124.1940002 310.0255127,121.9970016 L309.1934814,121.6849976 C308.9335022,122.2050018 308.6734924,122.6989975 308.4395142,123.1669998 C307.8544922,123.2580032 307.2695007,123.3359985 306.6845093,123.3880005 C307.3605042,122.3740005 308.036499,121.0220032 308.6994934,119.3320007 L307.8024902,118.9810028 Z M316.4215088,121.3470001 L313.1845093,121.802002 L313.1845093,119.0459976 L312.2485046,119.0459976 L312.2485046,121.9319992 L310.259491,122.2180023 L310.4024963,123.0759964 L312.2744751,122.8030014 C312.2874756,123.427002 312.3264771,124.0250015 312.3914795,124.5839996 L310.0385132,124.9609985 L310.1685181,125.8450012 L312.5084839,125.4680023 C312.5604858,125.8059998 312.6124878,126.1309967 312.6904907,126.4690018 C312.8464966,127.1709976 313.0415039,127.7949982 313.2885132,128.3670044 C312.3264771,129.0820007 311.2474976,129.628006 310.0515137,130.0180054 L310.5975037,130.7720032 C311.7025146,130.4340057 312.7424927,129.901001 313.7044983,129.1860046 C313.7825012,129.3549957 313.8865051,129.5110016 314.003479,129.6669922 C314.5625,130.4470062 315.1474915,130.8370056 315.7714844,130.8630066 C316.4475098,130.8630066 316.9674988,129.9920044 317.3314819,128.276001 L316.5385132,127.7559967 C316.3045044,129.1470032 316.0054932,129.848999 315.6674805,129.848999 C315.3294983,129.848999 314.9525146,129.5240021 314.5234985,128.8869934 C314.4714966,128.8090057 314.4324951,128.7180023 314.3804932,128.6399994 C315.1864929,127.9380035 315.9274902,127.0800018 316.6165161,126.0790024 L315.8754883,125.5719986 C315.3294983,126.4039993 314.7055054,127.1319962 314.003479,127.7819977 C313.8215027,127.262001 313.6654968,126.677002 313.5354919,126.0009995 C313.4964905,125.7929993 313.4575195,125.5589981 313.4315186,125.3249969 L316.9154968,124.7789993 L316.7724915,123.8949966 L313.3275146,124.4410019 C313.2755127,123.8819962 313.2365112,123.2969971 313.2105103,122.6729965 L316.5515137,122.2050018 L316.4215088,121.3470001 Z M314.6405029,119.0070038 L313.9124756,119.461998 C314.5625,120.0599976 315.0825195,120.6190033 315.4465027,121.1259995 L316.1744995,120.6190033 C315.8104858,120.1640015 315.3034973,119.6309967 314.6405029,119.0070038 Z M317.9425049,129.6669922" style="fill:rgb(23,55,94);stroke:none" clip-path="url(#clip18)" />
<clipPath id="clip19"><path d="M195,152 L336,152 L336,190 L195,190 L195,152 Z" /></clipPath>
<path d="M202,154 C199.2385712,154 197,156.2385712 197,159 L197,182 C197,184.7614288 199.2385712,187 202,187 L328,187 C330.7614136,187 333,184.7614288 333,182 L333,159 C333,156.2385712 330.7614136,154 328,154 Z M202,154" style="fill:rgb(217,217,217);stroke:none" clip-path="url(#clip19)" />
<clipPath id="clip20"><path d="M195,152 L336,152 L336,190 L195,190 L195,152 Z" /></clipPath>
<path d="M202,154 C199.2385712,154 197,156.2385712 197,159 L197,182 C197,184.7614288 199.2385712,187 202,187 L328,187 C330.7614136,187 333,184.7614288 333,182 L333,159 C333,156.2385712 330.7614136,154 328,154 Z M202,154" style="fill:none;stroke:rgb(255,255,255);stroke-width:2" clip-path="url(#clip20)" />
<clipPath id="clip21"><path d="M209,161 L322,161 L322,181 L209,181 L209,161 Z" /></clipPath>
<path d="M217.8619995,174.0679932 L218.4859924,173.4440002 C217.9660034,172.6380005 217.4459991,171.8970032 216.9519958,171.2210083 C217.2900085,170.1159973 217.5629883,168.8939972 217.7709961,167.5549927 L216.9129944,167.3990021 C216.7569885,168.4389954 216.548996,169.427002 216.302002,170.3370056 C215.7559967,169.6090088 215.2359924,168.9980011 214.7550049,168.4909973 L214.1699982,169.0500031 C214.7680054,169.7389984 215.3789978,170.4929962 216.0029907,171.3249969 C215.5610046,172.6380005 215.0019989,173.7819977 214.3259888,174.7440033 L214.923996,175.4720001 C215.5870056,174.5619965 216.1589966,173.4700012 216.6269989,172.1959991 C217.0299988,172.7810059 217.4459991,173.4049988 217.8619995,174.0679932 Z M221.6710052,174.6660004 L222.3079987,174.0420074 C221.7489929,173.1060028 221.2160034,172.2610016 220.7220001,171.5070038 C221.1119995,170.3370056 221.423996,169.0370026 221.6580048,167.5939941 L220.7740021,167.4380035 C220.5919952,168.5559998 220.3710022,169.6090088 220.0849915,170.5839996 C219.5390015,169.8040009 219.0189972,169.154007 218.5509949,168.6210022 L217.9660034,169.1799927 C218.5639954,169.9080048 219.1490021,170.7140045 219.746994,171.5980072 C219.2659912,172.9240112 218.6549988,174.0809937 217.927002,175.0690002 L218.5249939,175.7839966 C219.227005,174.8739929 219.8379974,173.7819977 220.3580017,172.5079956 C220.7870026,173.1840057 221.2290039,173.8990021 221.6710052,174.6660004 Z M222.2689972,176.9410095 C223.0359955,176.9410095 223.4259949,176.5379944 223.4259949,175.7449951 L223.4259949,165.6309967 L213.052002,165.6309967 L213.052002,176.9929962 L213.9750061,176.9929962 L213.9750061,166.5279999 L222.503006,166.5279999 L222.503006,175.5370026 C222.503006,175.8880005 222.3209991,176.0700073 221.9570007,176.0700073 L220.7089996,176.0310059 L220.9559937,176.9410095 L222.2689972,176.9410095 Z M230.2379913,174.4320068 C228.9640045,174.9129944 227.4689941,175.303009 225.7659912,175.5890045 L225.8829956,176.5119934 C227.5209961,176.1999969 228.9640045,175.8099976 230.2379913,175.3160095 L230.2379913,174.4320068 Z M227.9109955,165.0720062 C227.3909912,166.6060028 226.7929993,167.9580078 226.1040039,169.1410065 C225.9869995,169.3099976 225.8569946,169.427002 225.7140045,169.4920044 L225.947998,170.3500061 C226.6629944,170.2460022 227.3650055,170.1289978 228.0670013,169.9989929 C227.378006,171.2470093 226.7929993,172.1179962 226.3249969,172.6380005 C226.220993,172.7420044 226.0780029,172.8330078 225.9089966,172.9110107 L226.1560059,173.7559967 C227.378006,173.5870056 228.6519928,173.2619934 229.9909973,172.7940063 L229.9909973,171.9490051 C229.0679932,172.2870026 228.1580048,172.5469971 227.2480011,172.7420044 C227.9759979,171.8059998 228.8990021,170.2460022 230.0169983,168.0490112 L229.2109985,167.75 C228.977005,168.2310028 228.7429962,168.6990051 228.5220032,169.1410065 C227.9499969,169.2449951 227.3909912,169.3359985 226.8320007,169.4140015 C227.4819946,168.4259949 228.1320038,167.0870056 228.7819977,165.4100037 L227.9109955,165.0720062 Z M236.3609924,172.1439972 L231.0180054,172.1439972 L231.0180054,176.9410095 L231.9149933,176.9410095 L231.9149933,176.3820038 L235.4640045,176.3820038 L235.4640045,176.9410095 L236.3609924,176.9410095 L236.3609924,172.1439972 Z M231.9149933,175.5240021 L231.9149933,173.0019989 L235.4640045,173.0019989 L235.4640045,175.5240021 L231.9149933,175.5240021 Z M232.3049927,165.0720062 C231.8889923,166.4499969 231.1089935,167.6199951 229.9519958,168.5690002 L230.4980011,169.2969971 C230.927002,168.9459991 231.3170013,168.5559998 231.6679993,168.1399994 C232.0189972,168.7120056 232.4349976,169.2579956 232.9290009,169.7519989 C232.0319977,170.4020081 230.9530029,170.947998 229.7050018,171.4160004 L230.2769928,172.1699982 C231.5509949,171.6759949 232.6689911,171.0650024 233.6049957,170.3630066 C234.5410004,171.1170044 235.6849976,171.6889954 237.0500031,172.105011 L237.5829926,171.3379974 C236.3090057,170.973999 235.2039948,170.45401 234.2939911,169.7910004 C235.1909943,168.9720001 235.8800049,168.0230103 236.3609924,166.9440002 L236.3609924,166.2680054 L232.8379974,166.2680054 C232.9680023,165.9429932 233.0979919,165.605011 233.2019958,165.2409973 L232.3049927,165.0720062 Z M232.1750031,167.477005 C232.253006,167.3600006 232.3309937,167.230011 232.4089966,167.1000061 L235.3470001,167.1000061 C234.9179993,167.8800049 234.3329926,168.5820007 233.5919952,169.2189941 C233.0330048,168.7120056 232.5650024,168.1269989 232.1750031,167.477005 Z M245.6949921,166.0469971 L245.6949921,170.5319977 L249.8809967,170.5319977 L249.8809967,166.0469971 L245.6949921,166.0469971 Z M248.9839935,169.6869965 L246.5789948,169.6869965 L246.5789948,166.8919983 L248.9839935,166.8919983 L248.9839935,169.6869965 Z M241.1190033,165.1369934 L241.1190033,166.3070068 L239.1689911,166.3070068 L239.1689911,167.1130066 L241.0540009,167.1130066 C240.8329926,168.6600037 240.1049957,169.8170013 238.8569946,170.5970001 L239.5460052,171.2080078 C240.923996,170.2980042 241.7299957,168.9329987 241.9640045,167.1130066 L243.6539917,167.1130066 C243.628006,168.4779968 243.5630035,169.322998 243.4589996,169.6350098 C243.3289948,169.9600067 243.0299988,170.1289978 242.5619965,170.1419983 L241.8209991,170.0769958 L242.0549927,170.9219971 C242.3410034,170.947998 242.5749969,170.973999 242.7830048,170.973999 C243.4329987,170.973999 243.8880005,170.753006 244.1609955,170.3110046 C244.4210052,169.8690033 244.5509949,168.5429993 244.5639954,166.3070068 L242.0289917,166.3070068 L242.0289917,165.1369934 L241.1190033,165.1369934 Z M239.1170044,172.1179962 L239.1170044,173.0019989 L243.4329987,173.0019989 C242.4839935,174.1199951 240.9889984,175.0559998 238.947998,175.7969971 L239.4810028,176.6549988 C241.6779938,175.6929932 243.2639923,174.4840088 244.2259979,173.0019989 L244.2910004,173.0019989 L244.2910004,176.9929962 L245.227005,176.9929962 L245.227005,173.0019989 L245.3049927,173.0019989 C246.1889954,174.3280029 247.7229919,175.5370026 249.9199982,176.6289978 L250.5699921,175.822998 C248.477005,174.9909973 246.9819946,174.0420074 246.0849915,173.0019989 L250.4140015,173.0019989 L250.4140015,172.1179962 L245.227005,172.1179962 L245.227005,171.0650024 L244.2910004,171.0650024 L244.2910004,172.1179962 L239.1170044,172.1179962 Z M258.3439941,165.0850067 C258.0449829,166.9309998 257.4859924,168.4909973 256.6799927,169.7649994 L257.2780151,170.5449982 C257.7980042,169.7649994 258.2399902,168.8679962 258.6040039,167.8670044 L262.5559998,167.8670044 C262.5429993,171.8970032 262.4779968,174.2890015 262.3609924,175.0429993 C262.2440186,175.7189941 261.8670044,176.0700073 261.242981,176.0700073 C260.8269958,176.0700073 260.3460083,176.0440063 259.7739868,176.0180054 L259.9819946,176.8630066 C260.6450195,176.8890076 261.1129761,176.9020081 261.3859863,176.9020081 C262.4649963,176.9020081 263.0759888,176.3690033 263.2319946,175.3160095 C263.3619995,174.276001 263.4400024,171.4940033 263.4400024,166.9960022 L258.8770142,166.9960022 C259.03302,166.4240112 259.1629944,165.826004 259.2669983,165.2019958 L258.3439941,165.0850067 Z M257.2780151,174.2109985 C258.552002,173.951004 259.6959839,173.6910095 260.684021,173.4179993 C260.7879944,173.7819977 260.9049988,174.1719971 261.0220032,174.5879974 L261.8410034,174.223999 C261.5029907,173.0670013 261.1129761,171.9750061 260.6710205,170.9609985 L259.8909912,171.2340088 C260.072998,171.6759949 260.2680054,172.1699982 260.4500122,172.7160034 C259.8259888,172.8720093 259.1109924,173.0279999 258.3309937,173.1840057 C258.7080078,172.4949951 259.2149963,171.2860107 259.8519897,169.5570068 L259.03302,169.2579956 C258.1099854,171.8580017 257.4729919,173.2489929 257.1090088,173.4440002 L257.2780151,174.2109985 Z M255.0679932,170.3890076 C255.4319916,170.8569946 255.8739929,171.4810028 256.3809814,172.2350006 L256.901001,171.4420013 C256.2769775,170.6750031 255.6660004,169.9859924 255.0679932,169.3619995 L255.0679932,168.5429993 L256.6669922,168.5429993 L256.6669922,167.6459961 L255.0679932,167.6459961 L255.0679932,165.1109924 L254.1450043,165.1109924 L254.1450043,167.6459961 L252.2599945,167.6459961 L252.2599945,168.5429993 L254.0800018,168.5429993 C253.6640015,170.1809998 252.9749908,171.6499939 252,172.9369965 L252.4029999,173.951004 C253.1309967,172.8720093 253.7030029,171.6759949 254.1450043,170.3500061 L254.1450043,176.9670105 L255.0679932,176.9670105 L255.0679932,170.3890076 Z M276.6740112,166.3720093 L271.8380127,166.3720093 C271.6560059,165.8650055 271.4609985,165.4100037 271.2529907,164.9940033 L270.2130127,165.1759949 C270.434021,165.5400085 270.6289978,165.9299927 270.8110046,166.3720093 L265.8710022,166.3720093 L265.8710022,169.154007 L266.8330078,169.154007 L266.8330078,167.2819977 L275.7120056,167.2819977 L275.7120056,169.1670074 L276.6740112,169.1670074 L276.6740112,166.3720093 Z M265.559021,169.9859924 L265.559021,170.8959961 L268.6920166,170.8959961 C268.276001,171.6109924 267.8339844,172.3390045 267.3659973,173.0670013 C268.5750122,173.4570007 269.7839966,173.9120026 271.0059814,174.4320068 C269.6279907,175.4850006 267.8209839,176.0180054 265.6109924,176.0310059 L266.1569824,176.9020081 C268.5750122,176.8240051 270.4989929,176.1480103 271.9550171,174.8480072 C273.3330078,175.4720001 274.7109985,176.1999969 276.0889893,177.0059967 L276.7130127,176.1869965 C275.3349915,175.4069977 273.9700012,174.7310028 272.6309814,174.1589966 C273.3200073,173.3529968 273.9309998,172.2740021 274.4639893,170.8959961 L277.0249939,170.8959961 L277.0249939,169.9859924 L270.3040161,169.9859924 C270.6159973,169.4140015 270.940979,168.803009 271.2789917,168.1529999 L270.3170166,167.8670044 C269.9660034,168.5690002 269.5889893,169.2709961 269.1990051,169.9859924 L265.559021,169.9859924 Z M269.7969971,170.8959961 L273.4370117,170.8959961 C272.9949951,172.0400085 272.4230042,173.0019989 271.7210083,173.7689972 C270.6940002,173.3399963 269.6929932,172.9759979 268.7050171,172.6900024 C269.0429993,172.1699982 269.4069824,171.5720062 269.7969971,170.8959961 Z M284.2009888,165.1369934 C282.6929932,166.7749939 280.7949829,168.1529999 278.507019,169.2579956 L278.9620056,170.0769958 C281.2630005,168.9199982 283.1220093,167.5549927 284.5390015,165.9819946 C286.072998,167.6329956 287.9060059,168.9720001 290.0639954,170.0119934 L290.5319824,169.1799927 C288.3999939,168.1920013 286.5150146,166.8529968 284.8770142,165.1369934 L284.2009888,165.1369934 Z M280.9119873,169.2449951 L280.9119873,170.1419983 L284.0579834,170.1419983 L284.0579834,172.404007 L280.2879944,172.404007 L280.2879944,173.3009949 L284.0579834,173.3009949 L284.0579834,175.7059937 L279.1309814,175.7059937 L279.1309814,176.6289978 L289.9599915,176.6289978 L289.9599915,175.7059937 L285.0200195,175.7059937 L285.0200195,173.3009949 L288.7769775,173.3009949 L288.7769775,172.404007 L285.0200195,172.404007 L285.0200195,170.1419983 L288.1660156,170.1419983 L288.1660156,169.2449951 L280.9119873,169.2449951 Z M292.3389893,166.072998 L292.3389893,166.8659973 L294.6400146,166.8659973 L294.6400146,171.1690063 L292.1439819,171.1690063 L292.1439819,172.0010071 L294.8479919,172.0010071 C294.223999,172.7680054 293.2749939,173.3919983 291.9879761,173.8860016 L292.4689941,174.6790009 C293.9769897,173.977005 295.0690002,173.0800018 295.7449951,172.0010071 L299.8269958,172.0010071 C300.5029907,173.0800018 301.6470032,173.9640045 303.2590027,174.6399994 L303.6359863,173.8339996 C302.3359985,173.3919983 301.3609924,172.7810059 300.7369995,172.0010071 L303.440979,172.0010071 L303.440979,171.1690063 L300.9450073,171.1690063 L300.9450073,166.8659973 L303.2460022,166.8659973 L303.2460022,166.072998 L300.9450073,166.072998 L300.9450073,165.0850067 L300.0350037,165.0850067 L300.0350037,166.072998 L295.5499878,166.072998 L295.5499878,165.0850067 L294.6400146,165.0850067 L294.6400146,166.072998 L292.3389893,166.072998 Z M295.5499878,171.1690063 L295.5499878,170.2330017 L300.0350037,170.2330017 L300.0350037,171.1690063 L295.5499878,171.1690063 Z M295.5499878,169.4920044 L295.5499878,168.5690002 L300.0350037,168.5690002 L300.0350037,169.4920044 L295.5499878,169.4920044 Z M295.5499878,167.8280029 L295.5499878,166.8659973 L300.0350037,166.8659973 L300.0350037,167.8280029 L295.5499878,167.8280029 Z M297.3439941,172.4559937 L297.3439941,173.4960022 L294.6790161,173.4960022 L294.6790161,174.3280029 L297.3439941,174.3280029 L297.3439941,175.7059937 L292.7940063,175.7059937 L292.7940063,176.5769958 L302.7130127,176.5769958 L302.7130127,175.7059937 L298.2539978,175.7059937 L298.2539978,174.3280029 L300.8930054,174.3280029 L300.8930054,173.4960022 L298.2539978,173.4960022 L298.2539978,172.4559937 L297.3439941,172.4559937 Z M309.7330017,174.4320068 C308.4589844,174.9259949 306.9639893,175.32901 305.2479858,175.6150055 L305.3649902,176.5249939 C307.0029907,176.2259979 308.4589844,175.822998 309.7330017,175.32901 L309.7330017,174.4320068 Z M307.4190063,165.0330048 C306.8989868,166.5800018 306.2879944,167.9580078 305.5859985,169.154007 C305.4689941,169.322998 305.3389893,169.4400024 305.1959839,169.4920044 L305.4169922,170.3500061 C306.1450195,170.2590027 306.8729858,170.1679993 307.5880127,170.0639954 C306.9119873,171.2730103 306.3269958,172.1309967 305.8460083,172.625 C305.7290039,172.7290039 305.5859985,172.8200073 305.4169922,172.8980103 L305.677002,173.7559967 C306.9249878,173.5870056 308.2249756,173.2749939 309.5899963,172.8330078 L309.5899963,171.9880066 C308.6539917,172.3000031 307.7180176,172.5469971 306.7819824,172.7290039 C307.5360107,171.8059998 308.4979858,170.2460022 309.6419983,168.0490112 L308.8099976,167.7369995 C308.5499878,168.2570038 308.289978,168.7510071 308.0559998,169.2189941 C307.4710083,169.3099976 306.8859863,169.3880005 306.3009949,169.4400024 C306.9769897,168.4259949 307.6530151,167.0740051 308.315979,165.3840027 L307.4190063,165.0330048 Z M316.0379944,167.3990021 L312.8009949,167.8540039 L312.8009949,165.0980072 L311.8649902,165.0980072 L311.8649902,167.9840088 L309.8759766,168.2700043 L310.0189819,169.128006 L311.8909912,168.855011 C311.9039917,169.4790039 311.9429932,170.0769958 312.0079956,170.6360016 L309.6549988,171.0130005 L309.7850037,171.8970032 L312.125,171.5200043 C312.177002,171.8580017 312.2290039,172.1829987 312.3070068,172.5209961 C312.4630127,173.2230072 312.65802,173.8470001 312.9049988,174.4190063 C311.9429932,175.1340027 310.8640137,175.6799927 309.6679993,176.0700073 L310.2139893,176.8240051 C311.3190002,176.4859924 312.3590088,175.9530029 313.3209839,175.2380066 C313.3989868,175.4069977 313.5029907,175.5630035 313.6199951,175.7189941 C314.1790161,176.4989929 314.7639771,176.8890076 315.3880005,176.9150085 C316.0639954,176.9150085 316.5839844,176.0440063 316.947998,174.3280029 L316.1549988,173.8079987 C315.9210205,175.1990051 315.6220093,175.901001 315.2839966,175.901001 C314.9459839,175.901001 314.5690002,175.576004 314.1400146,174.9389954 C314.0880127,174.8609924 314.0490112,174.7700043 313.9970093,174.6920013 C314.8029785,173.9900055 315.5440063,173.1320038 316.2330017,172.1309967 L315.4920044,171.6239929 C314.9459839,172.4559937 314.321991,173.1840057 313.6199951,173.8339996 C313.4379883,173.3139954 313.2819824,172.7290039 313.1519775,172.053009 C313.1129761,171.8450012 313.0740051,171.6109924 313.0480042,171.3769989 L316.5319824,170.8309937 L316.3889771,169.9470062 L312.9440002,170.4929962 C312.8919983,169.9340057 312.8529968,169.348999 312.8269958,168.7250061 L316.1679993,168.2570038 L316.0379944,167.3990021 Z M314.257019,165.0590057 L313.5289917,165.5140076 C314.1790161,166.1119995 314.6990051,166.6710052 315.0629883,167.178009 L315.7910156,166.6710052 C315.427002,166.2160034 314.9199829,165.6829987 314.257019,165.0590057 Z M317.559021,175.7189941" style="fill:rgb(23,55,94);stroke:none" clip-path="url(#clip21)" />
<clipPath id="clip22"><path d="M195,198 L362,198 L362,236 L195,236 L195,198 Z" /></clipPath>
<path d="M202,200 C199.2385712,200 197,202.2385712 197,205 L197,228 C197,230.7614288 199.2385712,233 202,233 L354,233 C356.7614136,233 359,230.7614288 359,228 L359,205 C359,202.2385712 356.7614136,200 354,200 Z M202,200" style="fill:rgb(217,217,217);stroke:none" clip-path="url(#clip22)" />
<clipPath id="clip23"><path d="M195,198 L362,198 L362,236 L195,236 L195,198 Z" /></clipPath>
<path d="M202,200 C199.2385712,200 197,202.2385712 197,205 L197,228 C197,230.7614288 199.2385712,233 202,233 L354,233 C356.7614136,233 359,230.7614288 359,228 L359,205 C359,202.2385712 356.7614136,200 354,200 Z M202,200" style="fill:none;stroke:rgb(255,255,255);stroke-width:2" clip-path="url(#clip23)" />
<clipPath id="clip24"><path d="M209,207 L348,207 L348,227 L209,227 L209,207 Z" /></clipPath>
<path d="M217.6019897,220.0419922 L218.2259979,219.4179993 C217.7059937,218.6119995 217.1860046,217.8710022 216.6919861,217.1950073 C217.0299988,216.0899963 217.3029938,214.8680115 217.5109863,213.5289917 L216.6529999,213.3730011 C216.496994,214.4129944 216.2890015,215.401001 216.0419922,216.3110046 C215.4960022,215.5830078 214.9759979,214.9720001 214.4949951,214.4649963 L213.9100037,215.0240021 C214.5079956,215.7129974 215.118988,216.4670105 215.7429962,217.2990112 C215.3009949,218.6119995 214.7420044,219.756012 214.0659943,220.7180023 L214.6640015,221.4459991 C215.3269958,220.5360107 215.8989868,219.4440002 216.3670044,218.1699982 C216.769989,218.7550049 217.1860046,219.3789978 217.6019897,220.0419922 Z M221.4109955,220.6399994 L222.0479889,220.0159912 C221.4889984,219.0800018 220.9559937,218.2350006 220.4619904,217.4810028 C220.8519897,216.3110046 221.1640015,215.0110016 221.397995,213.5679932 L220.5139923,213.4120026 C220.3320007,214.5299988 220.1109924,215.5830078 219.8249969,216.5579987 C219.2789917,215.7779999 218.7590027,215.1279907 218.2910004,214.5950012 L217.7059937,215.1539917 C218.3040009,215.8820038 218.8889923,216.6880035 219.4869995,217.571991 C219.0059967,218.8980103 218.394989,220.0549927 217.6669922,221.0429993 L218.2649994,221.7579956 C218.9669952,220.8479919 219.5780029,219.756012 220.0979919,218.4819946 C220.5269928,219.1579895 220.9689941,219.8730011 221.4109955,220.6399994 Z M222.0090027,222.9150085 C222.776001,222.9150085 223.1660004,222.5119934 223.1660004,221.7189941 L223.1660004,211.605011 L212.7919922,211.605011 L212.7919922,222.9670105 L213.7149963,222.9670105 L213.7149963,212.5019989 L222.2429962,212.5019989 L222.2429962,221.5110016 C222.2429962,221.8619995 222.0609894,222.0440063 221.696991,222.0440063 L220.4489899,222.0050049 L220.6959991,222.9150085 L222.0090027,222.9150085 Z M229.9779968,220.4060059 C228.7039948,220.8869934 227.2089996,221.2770081 225.5059967,221.5630035 L225.6230011,222.4859924 C227.2610016,222.1740112 228.7039948,221.7839966 229.9779968,221.2900085 L229.9779968,220.4060059 Z M227.651001,211.04599 C227.1309967,212.5800018 226.5329895,213.9320068 225.8439941,215.1149902 C225.7269897,215.2839966 225.5970001,215.401001 225.4539948,215.4660034 L225.6880035,216.3240051 C226.4029999,216.2200012 227.1049957,216.1029968 227.8069916,215.9729919 C227.1179962,217.2210083 226.5329895,218.0920105 226.0650024,218.6119995 C225.9609985,218.7160034 225.8179932,218.8070068 225.6490021,218.8850098 L225.8959961,219.730011 C227.1179962,219.5610046 228.3919983,219.2359924 229.7310028,218.7680054 L229.7310028,217.9230042 C228.8079987,218.2610016 227.897995,218.5209961 226.9879913,218.7160034 C227.7160034,217.7799988 228.6389923,216.2200012 229.7570038,214.0230103 L228.9509888,213.723999 C228.7169952,214.2050018 228.4830017,214.6730042 228.2619934,215.1149902 C227.6900024,215.2189941 227.1309967,215.3099976 226.571991,215.3880005 C227.2220001,214.3999939 227.871994,213.0610046 228.5220032,211.3840027 L227.651001,211.04599 Z M236.1009979,218.1180115 L230.7579956,218.1180115 L230.7579956,222.9150085 L231.6549988,222.9150085 L231.6549988,222.3560028 L235.2039948,222.3560028 L235.2039948,222.9150085 L236.1009979,222.9150085 L236.1009979,218.1180115 Z M231.6549988,221.4980011 L231.6549988,218.9759979 L235.2039948,218.9759979 L235.2039948,221.4980011 L231.6549988,221.4980011 Z M232.0449982,211.04599 C231.6289978,212.4240112 230.848999,213.5939941 229.6920013,214.5429993 L230.2379913,215.2709961 C230.6669922,214.9199982 231.0569916,214.5299988 231.4079895,214.1139984 C231.7590027,214.6860046 232.1750031,215.2319946 232.6689911,215.7259979 C231.7720032,216.3760071 230.6929932,216.9219971 229.4449921,217.3899994 L230.0169983,218.1439972 C231.2910004,217.6499939 232.4089966,217.0390015 233.3450012,216.3370056 C234.2809906,217.0910034 235.4250031,217.6629944 236.7899933,218.07901 L237.322998,217.3120117 C236.048996,216.947998 234.9440002,216.428009 234.0339966,215.7649994 C234.9309998,214.9459991 235.6199951,213.9970093 236.1009979,212.9179993 L236.1009979,212.2420044 L232.5780029,212.2420044 C232.7079926,211.9169922 232.8379974,211.57901 232.9420013,211.2149963 L232.0449982,211.04599 Z M231.9149933,213.451004 C231.9929962,213.3339996 232.0709991,213.20401 232.1490021,213.0740051 L235.0869904,213.0740051 C234.6579895,213.8540039 234.072998,214.5559998 233.3320007,215.1929932 C232.772995,214.6860046 232.3049927,214.1009979 231.9149933,213.451004 Z M240.0919952,211.3190002 L239.4420013,211.9299927 C240.3259888,212.6190033 241.0149994,213.2689972 241.5220032,213.8930054 L242.1589966,213.2430115 C241.5999908,212.6060028 240.9109955,211.9689941 240.0919952,211.3190002 Z M238.5839996,215.076004 L238.5839996,215.9729919 L240.3909912,215.9729919 L240.3909912,221.1210022 C240.3909912,221.32901 240.2870026,221.5240021 240.1049957,221.7059937 L240.4689941,222.5379944 C241.3789978,221.9400024 242.25,221.2640076 243.0690002,220.4970093 L242.8089905,219.5090027 C242.276001,220.0159912 241.7689972,220.4580078 241.3009949,220.8479919 L241.3009949,215.076004 L238.5839996,215.076004 Z M243.1989899,216.5970001 L243.1989899,217.5070038 L243.9140015,217.5070038 C244.2779999,218.6380005 244.9409943,219.6520081 245.9290009,220.5620117 C244.9539948,221.2510071 243.7449951,221.8099976 242.302002,222.2389984 L242.821991,223.0319977 C244.3430023,222.5639954 245.6299896,221.9530029 246.6699982,221.1730042 C247.5800018,221.875 248.723999,222.4859924 250.0759888,223.0319977 L250.5829926,222.2259979 C249.3089905,221.7579956 248.2299957,221.2250061 247.345993,220.6139984 C248.2949982,219.730011 248.970993,218.677002 249.3869934,217.4550018 L249.3869934,216.5970001 L243.1989899,216.5970001 Z M244.7979889,217.5070038 L248.4639893,217.5070038 C248.0479889,218.4689941 247.423996,219.3009949 246.5919952,220.0289917 C245.7339935,219.2879944 245.1360016,218.4429932 244.7979889,217.5070038 Z M244.1999969,211.57901 L244.1999969,213.0220032 C244.1999969,214.0490112 243.6279907,214.8420105 242.496994,215.401001 L243.1210022,216.1159973 C244.446991,215.3619995 245.1230011,214.29599 245.1230011,212.9179993 L245.1230011,212.4629974 L247.644989,212.4629974 L247.644989,214.5820007 C247.644989,215.348999 248.0350037,215.7389984 248.8410034,215.7389984 L250.2709961,215.7389984 L250.2709961,214.881012 L249.0749969,214.881012 C248.7369995,214.881012 248.5679932,214.7120056 248.5679932,214.3869934 L248.5679932,211.57901 L244.1999969,211.57901 Z M261.8670044,217.3250122 L253.677002,217.3250122 L253.677002,222.9930115 L254.5739899,222.9930115 L254.5739899,222.42099 L260.9700012,222.42099 L260.9700012,222.9930115 L261.8670044,222.9930115 L261.8670044,217.3250122 Z M254.5739899,221.6149902 L254.5739899,220.2369995 L257.3170166,220.2369995 L257.3170166,221.6149902 L254.5739899,221.6149902 Z M258.2009888,221.6149902 L258.2009888,220.2369995 L260.9700012,220.2369995 L260.9700012,221.6149902 L258.2009888,221.6149902 Z M254.5739899,219.4830017 L254.5739899,218.105011 L257.3170166,218.105011 L257.3170166,219.4830017 L254.5739899,219.4830017 Z M258.2009888,218.105011 L260.9700012,218.105011 L260.9700012,219.4830017 L258.2009888,219.4830017 L258.2009888,218.105011 Z M256.0299988,210.9160004 C255.0809937,212.3070068 253.871994,213.4250031 252.4160004,214.2700043 L253.0139923,214.9980011 C253.6640015,214.5820007 254.2749939,214.1269989 254.8470001,213.6069946 C255.4449921,214.2180023 256.1340027,214.7640076 256.9140015,215.2319946 C255.4579926,215.8820038 253.7679901,216.3500061 251.8179932,216.6230011 L252.220993,217.4420013 C254.3659973,217.0910034 256.2379761,216.5189972 257.8239746,215.7259979 C259.3320007,216.480011 261.1519775,217.0130005 263.2839966,217.3379974 L263.6870117,216.506012 C261.7630005,216.2460022 260.1119995,215.8300018 258.7080078,215.2319946 C259.8519897,214.5299988 260.8269958,213.697998 261.6329956,212.7099915 L261.6329956,211.9949951 L256.34198,211.9949951 C256.5499878,211.7220001 256.7579956,211.4360046 256.9530029,211.1239929 L256.0299988,210.9160004 Z M255.4059906,213.0740051 L255.6660004,212.8139954 L260.4760132,212.8139954 C259.7219849,213.5679932 258.8250122,214.2310028 257.7850037,214.803009 C256.848999,214.3089905 256.0559998,213.7369995 255.4059906,213.0740051 Z M266.9630127,213.723999 L266.1049805,214.0360107 C266.4299927,214.6080017 266.7030029,215.2319946 266.9370117,215.9079895 L265.1820068,215.9079895 L265.1820068,216.8179932 L271.6950073,216.8179932 L271.6950073,215.9079895 L270.1220093,215.9079895 C270.4599915,215.322998 270.7590027,214.6600037 271.0319824,213.9190063 L270.1610107,213.6199951 C269.901001,214.4259949 269.5759888,215.1929932 269.1989746,215.9079895 L267.8339844,215.9079895 C267.5739746,215.0500031 267.2749939,214.321991 266.9630127,213.723999 Z M272.2929993,211.6180115 L272.2929993,222.9670105 L273.2030029,222.9670105 L273.2030029,212.4759979 L275.5299988,212.4759979 C275.1140137,213.8800049 274.6849976,215.1019897 274.2559814,216.1289978 C275.269989,217.3769989 275.789978,218.3779907 275.8029785,219.1450043 C275.789978,219.6130066 275.7249756,219.9250031 275.5950012,220.0939941 C275.4649963,220.25 275.1660156,220.3410034 274.697998,220.3670044 C274.4509888,220.3670044 274.1519775,220.3410034 273.7879944,220.3150024 L274.0869751,221.303009 C275.1530151,221.303009 275.867981,221.1340027 276.2319946,220.821991 C276.5700073,220.5100098 276.7390137,219.951004 276.7390137,219.1450043 C276.7260132,218.3649902 276.2319946,217.3509979 275.257019,216.1289978 C275.7249756,214.9589996 276.1539917,213.6849976 276.5570068,212.3200073 L276.5570068,211.6180115 L272.2929993,211.6180115 Z M265.4290161,212.3330078 L265.4290161,213.2430115 L271.6040039,213.2430115 L271.6040039,212.3330078 L268.9519958,212.3330078 C268.8089905,211.8390045 268.6660156,211.3840027 268.5230103,210.9940033 L267.5609741,211.1629944 C267.7299805,211.5140076 267.8859863,211.9039917 268.0419922,212.3330078 L265.4290161,212.3330078 Z M271.0969849,218.0010071 L265.9229736,218.0010071 L265.9229736,222.9020081 L266.8460083,222.9020081 L266.8460083,222.1740112 L270.1740112,222.1740112 L270.1740112,222.9020081 L271.0969849,222.9020081 L271.0969849,218.0010071 Z M266.8460083,221.2900085 L266.8460083,218.8850098 L270.1740112,218.8850098 L270.1740112,221.2900085 L266.8460083,221.2900085 Z M279.651001,211.553009 L279.651001,214.0230103 L283.4079895,214.0230103 L283.4079895,214.8680115 L280.0020142,214.8680115 L280.0020142,215.6220093 L283.4079895,215.6220093 L283.4079895,216.5579987 L278.5849915,216.5579987 L278.5849915,217.3639984 L284.4089966,217.3639984 C282.7319946,218.07901 280.7689819,218.5599976 278.507019,218.7940063 L279.0139771,219.5740051 C279.7030029,219.4440002 280.3789978,219.3139954 281.0289917,219.1579895 L281.0289917,223.0839996 L281.9519958,223.0839996 L281.9519958,222.4989929 L287.4769897,222.4989929 L287.4769897,223.0839996 L288.3999939,223.0839996 L288.3999939,218.3130035 L283.8239746,218.3130035 C284.5780029,218.0270081 285.2799988,217.7149963 285.9559937,217.3639984 L290.0379944,217.3639984 L290.0379944,216.5579987 L287.2949829,216.5579987 C288.0750122,216.0249939 288.7769775,215.427002 289.3880005,214.7770081 L288.6210022,214.3739929 C287.8800049,215.2059937 286.9960022,215.9339905 285.9819946,216.5579987 L284.3179932,216.5579987 L284.3179932,215.6220093 L287.0869751,215.6220093 L287.0869751,214.8680115 L284.3179932,214.8680115 L284.3179932,214.0230103 L288.8549805,214.0230103 L288.8549805,211.553009 L279.651001,211.553009 Z M287.9580078,213.3339996 L286.0469971,213.3339996 L286.0469971,212.2550049 L287.9580078,212.2550049 L287.9580078,213.3339996 Z M285.2019958,213.3339996 L283.3300171,213.3339996 L283.3300171,212.2550049 L285.2019958,212.2550049 L285.2019958,213.3339996 Z M282.4849854,213.3339996 L280.5479736,213.3339996 L280.5479736,212.2550049 L282.4849854,212.2550049 L282.4849854,213.3339996 Z M281.9519958,220.7570038 L287.4769897,220.7570038 L287.4769897,221.7319946 L281.9519958,221.7319946 L281.9519958,220.7570038 Z M287.4769897,220.0419922 L281.9519958,220.0419922 L281.9519958,219.0410004 L287.4769897,219.0410004 L287.4769897,220.0419922 Z M302.9339905,212.3460083 L298.0979919,212.3460083 C297.9160156,211.8390045 297.7210083,211.3840027 297.5130005,210.9680023 L296.4729919,211.1499939 C296.6940002,211.5140076 296.8889771,211.9039917 297.0709839,212.3460083 L292.1309814,212.3460083 L292.1309814,215.1279907 L293.0930176,215.1279907 L293.0930176,213.256012 L301.9719849,213.256012 L301.9719849,215.1409912 L302.9339905,215.1409912 L302.9339905,212.3460083 Z M291.8190002,215.9599915 L291.8190002,216.8699951 L294.9519958,216.8699951 C294.5360107,217.5849915 294.0939941,218.3130035 293.6259766,219.0410004 C294.8349915,219.4309998 296.0440063,219.8860016 297.2659912,220.4060059 C295.8880005,221.4589996 294.0809937,221.9920044 291.8710022,222.0050049 L292.4169922,222.8760071 C294.8349915,222.7980042 296.7590027,222.1220093 298.2149963,220.821991 C299.5930176,221.4459991 300.9710083,222.1740112 302.348999,222.980011 L302.9729919,222.1610107 C301.5950012,221.381012 300.2299805,220.7050018 298.8909912,220.1329956 C299.5800171,219.3269958 300.190979,218.2480011 300.723999,216.8699951 L303.2850037,216.8699951 L303.2850037,215.9599915 L296.5639954,215.9599915 C296.8759766,215.3880005 297.2009888,214.7770081 297.5390015,214.1269989 L296.5769958,213.8410034 C296.2260132,214.5429993 295.848999,215.2449951 295.4589844,215.9599915 L291.8190002,215.9599915 Z M296.0570068,216.8699951 L299.696991,216.8699951 C299.2550049,218.0140076 298.6829834,218.9759979 297.9810181,219.7430115 C296.9539795,219.3139954 295.9530029,218.9500122 294.9649963,218.6640015 C295.3029785,218.1439972 295.6669922,217.54599 296.0570068,216.8699951 Z M310.4609985,211.1109924 C308.9530029,212.7489929 307.0549927,214.1269989 304.7669983,215.2319946 L305.2219849,216.0509949 C307.5230103,214.8939972 309.382019,213.5289917 310.7990112,211.9559937 C312.3330078,213.6069946 314.1660156,214.9459991 316.3239746,215.9859924 L316.7919922,215.1539917 C314.6600037,214.1660004 312.7749939,212.8269958 311.1369934,211.1109924 L310.4609985,211.1109924 Z M307.1719971,215.2189941 L307.1719971,216.1159973 L310.3179932,216.1159973 L310.3179932,218.3779907 L306.5479736,218.3779907 L306.5479736,219.2749939 L310.3179932,219.2749939 L310.3179932,221.6799927 L305.3909912,221.6799927 L305.3909912,222.6029968 L316.2200012,222.6029968 L316.2200012,221.6799927 L311.2799988,221.6799927 L311.2799988,219.2749939 L315.0369873,219.2749939 L315.0369873,218.3779907 L311.2799988,218.3779907 L311.2799988,216.1159973 L314.4259949,216.1159973 L314.4259949,215.2189941 L307.1719971,215.2189941 Z M318.598999,212.0469971 L318.598999,212.8399963 L320.8999939,212.8399963 L320.8999939,217.1430054 L318.4039917,217.1430054 L318.4039917,217.9750061 L321.1080017,217.9750061 C320.4840088,218.7420044 319.5350037,219.3659973 318.2479858,219.8600006 L318.7290039,220.6529999 C320.2369995,219.951004 321.3289795,219.0540009 322.0050049,217.9750061 L326.0869751,217.9750061 C326.7630005,219.0540009 327.9069824,219.9380035 329.5189819,220.6139984 L329.8959961,219.8079987 C328.5960083,219.3659973 327.6210022,218.7550049 326.9970093,217.9750061 L329.7009888,217.9750061 L329.7009888,217.1430054 L327.2050171,217.1430054 L327.2050171,212.8399963 L329.5059814,212.8399963 L329.5059814,212.0469971 L327.2050171,212.0469971 L327.2050171,211.0589905 L326.2949829,211.0589905 L326.2949829,212.0469971 L321.8099976,212.0469971 L321.8099976,211.0589905 L320.8999939,211.0589905 L320.8999939,212.0469971 L318.598999,212.0469971 Z M321.8099976,217.1430054 L321.8099976,216.2070007 L326.2949829,216.2070007 L326.2949829,217.1430054 L321.8099976,217.1430054 Z M321.8099976,215.4660034 L321.8099976,214.5429993 L326.2949829,214.5429993 L326.2949829,215.4660034 L321.8099976,215.4660034 Z M321.8099976,213.802002 L321.8099976,212.8399963 L326.2949829,212.8399963 L326.2949829,213.802002 L321.8099976,213.802002 Z M323.6040039,218.4299927 L323.6040039,219.4700012 L320.9389954,219.4700012 L320.9389954,220.302002 L323.6040039,220.302002 L323.6040039,221.6799927 L319.0540161,221.6799927 L319.0540161,222.5509949 L328.9729919,222.5509949 L328.9729919,221.6799927 L324.5139771,221.6799927 L324.5139771,220.302002 L327.1530151,220.302002 L327.1530151,219.4700012 L324.5139771,219.4700012 L324.5139771,218.4299927 L323.6040039,218.4299927 Z M335.992981,220.4060059 C334.7189941,220.8999939 333.223999,221.303009 331.5079956,221.5890045 L331.625,222.4989929 C333.2630005,222.2000122 334.7189941,221.7969971 335.992981,221.303009 L335.992981,220.4060059 Z M333.6790161,211.0070038 C333.1589966,212.5540009 332.5479736,213.9320068 331.8460083,215.1279907 C331.7290039,215.2969971 331.598999,215.4140015 331.4559937,215.4660034 L331.677002,216.3240051 C332.4049988,216.2330017 333.1329956,216.1419983 333.8479919,216.0379944 C333.1719971,217.2470093 332.5869751,218.105011 332.1060181,218.598999 C331.9890137,218.7030029 331.8460083,218.7940063 331.677002,218.8720093 L331.9370117,219.730011 C333.1849976,219.5610046 334.4849854,219.2489929 335.8499756,218.8070068 L335.8499756,217.9620056 C334.9140015,218.2740021 333.9779968,218.5209961 333.0419922,218.7030029 C333.79599,217.7799988 334.7579956,216.2200012 335.9019775,214.0230103 L335.0700073,213.7109985 C334.8099976,214.2310028 334.5499878,214.7250061 334.315979,215.1929932 C333.7310181,215.2839966 333.1459961,215.3619995 332.5609741,215.4140015 C333.2369995,214.3999939 333.9129944,213.0480042 334.5759888,211.3580017 L333.6790161,211.0070038 Z M342.2979736,213.3730011 L339.0609741,213.8280029 L339.0609741,211.071991 L338.125,211.071991 L338.125,213.9580078 L336.1359863,214.2440033 L336.2789917,215.1019897 L338.151001,214.82901 C338.1640015,215.4530029 338.2030029,216.0509949 338.2680054,216.6100006 L335.914978,216.9869995 L336.0449829,217.8710022 L338.3850098,217.4940033 C338.4370117,217.8320007 338.4890137,218.1569977 338.5670166,218.4949951 C338.7229919,219.196991 338.9179993,219.8209991 339.164978,220.3930054 C338.2030029,221.1080017 337.1239929,221.6539917 335.9279785,222.0440063 L336.473999,222.7980042 C337.5789795,222.4599915 338.6190186,221.927002 339.5809937,221.2120056 C339.6589966,221.381012 339.7630005,221.5370026 339.8800049,221.6929932 C340.4389954,222.4729919 341.0239868,222.8630066 341.6480103,222.8890076 C342.3239746,222.8890076 342.8439941,222.0180054 343.2080078,220.302002 L342.414978,219.7819977 C342.1809998,221.1730042 341.882019,221.875 341.5440063,221.875 C341.2059937,221.875 340.8289795,221.5500031 340.3999939,220.9129944 C340.3479919,220.8349915 340.3089905,220.7440033 340.257019,220.6660004 C341.0629883,219.9640045 341.8040161,219.1060028 342.492981,218.105011 L341.7520142,217.5979919 C341.2059937,218.4299927 340.5820007,219.1579895 339.8800049,219.8079987 C339.697998,219.2879944 339.5419922,218.7030029 339.4119873,218.0270081 C339.3729858,217.8190002 339.3339844,217.5849915 339.3079834,217.3509979 L342.7919922,216.8049927 L342.6489868,215.92099 L339.2039795,216.4670105 C339.1519775,215.9079895 339.1129761,215.322998 339.0869751,214.6990051 L342.4279785,214.2310028 L342.2979736,213.3730011 Z M340.5169983,211.0329895 L339.7890015,211.4880066 C340.4389954,212.0859985 340.9589844,212.6450043 341.322998,213.1520081 L342.0509949,212.6450043 C341.6870117,212.1900024 341.1799927,211.6569977 340.5169983,211.0329895 Z M343.8190002,221.6929932" style="fill:rgb(23,55,94);stroke:none" clip-path="url(#clip24)" />
</svg>
